<?xml version="1.0" standalone="no"?>
<!DOCTYPE svg PUBLIC "-//W3C//DTD SVG 1.1//EN" "http://www.w3.org/Graphics/SVG/1.1/DTD/svg11.dtd" >
<svg xmlns="http://www.w3.org/2000/svg" xmlns:xlink="http://www.w3.org/1999/xlink" version="1.1">
<metadata>
Created by FontForge 20170731 at Fri Jan  4 20:08:54 2019
 By Aleksey,,,
Copyright(c)2017. Hyun Seok Choi. All rights reserved.
</metadata>
<defs>
<font id="HSGaeulsenggak" horiz-adv-x="950" >
  <font-face 
    font-family="HSGaeulsenggak"
    font-weight="400"
    font-stretch="normal"
    units-per-em="1000"
    panose-1="0 0 5 3 3 0 0 2 0 4"
    ascent="800"
    descent="-200"
    x-height="434"
    cap-height="673"
    bbox="-139.842 -473 1223 891"
    underline-thickness="58"
    underline-position="-347"
    unicode-range="U+0001-FFE6"
  />
<missing-glyph horiz-adv-x="700" 
d="M17 -115v772h666v-772h-666zM71 -84h558l-279 330zM328 272l-278 329v-659zM627 626h-555l277 -330zM372 271l278 -329v660z" />
    <glyph glyph-name=".notdef" horiz-adv-x="700" 
d="M17 -115v772h666v-772h-666zM71 -84h558l-279 330zM328 272l-278 329v-659zM627 626h-555l277 -330zM372 271l278 -329v660z" />
    <glyph glyph-name=".null" horiz-adv-x="0" 
 />
    <glyph glyph-name="nonmarkingreturn" horiz-adv-x="333" 
 />
    <glyph glyph-name="NULL" horiz-adv-x="284" 
 />
    <glyph glyph-name="NULL" unicode="&#xa0;" horiz-adv-x="284" 
 />
    <glyph glyph-name="NULL" unicode=" " horiz-adv-x="284" 
 />
    <glyph glyph-name="NULL" horiz-adv-x="284" 
 />
    <glyph glyph-name="NULL" horiz-adv-x="284" 
 />
    <glyph glyph-name="NULL" horiz-adv-x="284" 
 />
    <glyph glyph-name="NULL" horiz-adv-x="284" 
 />
    <glyph glyph-name="NULL" horiz-adv-x="284" 
 />
    <glyph glyph-name="NULL" horiz-adv-x="284" 
 />
    <glyph glyph-name="NULL" horiz-adv-x="284" 
 />
    <glyph glyph-name="NULL" horiz-adv-x="284" 
 />
    <glyph glyph-name="NULL" horiz-adv-x="284" 
 />
    <glyph glyph-name="NULL" horiz-adv-x="284" 
 />
    <glyph glyph-name="NULL" horiz-adv-x="284" 
 />
    <glyph glyph-name="NULL" horiz-adv-x="284" 
 />
    <glyph glyph-name="NULL" horiz-adv-x="284" 
 />
    <glyph glyph-name="NULL" horiz-adv-x="284" 
 />
    <glyph glyph-name="NULL" horiz-adv-x="284" 
 />
    <glyph glyph-name="NULL" horiz-adv-x="284" 
 />
    <glyph glyph-name="NULL" horiz-adv-x="284" 
 />
    <glyph glyph-name="NULL" horiz-adv-x="284" 
 />
    <glyph glyph-name="NULL" unicode="&#xd;" horiz-adv-x="284" 
 />
    <glyph glyph-name="NULL" horiz-adv-x="284" 
 />
    <glyph glyph-name="NULL" horiz-adv-x="284" 
 />
    <glyph glyph-name="NULL" unicode="&#xa;" horiz-adv-x="284" 
 />
    <glyph glyph-name="NULL" unicode="&#x9;" horiz-adv-x="284" 
 />
    <glyph glyph-name="NULL" horiz-adv-x="284" 
 />
    <glyph glyph-name="NULL" horiz-adv-x="284" 
 />
    <glyph glyph-name="NULL" horiz-adv-x="284" 
 />
    <glyph glyph-name="NULL" horiz-adv-x="284" 
 />
    <glyph glyph-name="NULL" horiz-adv-x="284" 
 />
    <glyph glyph-name="NULL" horiz-adv-x="284" 
 />
    <glyph glyph-name="NULL" horiz-adv-x="284" 
 />
    <glyph glyph-name="NULL" horiz-adv-x="284" 
 />
    <glyph glyph-name="exclam" unicode="!" horiz-adv-x="354" 
d="M116 143l-20 585q0 17 12.5 29.5t29.5 12.5h71q18 0 30.5 -12.5t12.5 -29.5l-20 -585q0 -18 -12.5 -30.5t-30.5 -12.5h-31q-17 0 -29.5 12.5t-12.5 30.5zM252 -110q0 -26 -17 -43t-41 -17h-38q-26 0 -43 17t-17 43v45q0 24 17 41t43 17h38q24 0 41 -17t17 -41v-45z" />
    <glyph glyph-name="quotedbl" unicode="&#x22;" horiz-adv-x="378" 
d="M167 695q0 -13 -3 -35t-9 -43t-15 -36.5t-21 -15.5h-18q-13 0 -22.5 15.5t-15.5 36.5t-9 43t-3 35v55q0 48 50 48h18q48 0 48 -48v-55zM327 695q0 -13 -3 -35t-9 -43t-15 -36.5t-21 -15.5h-18q-13 0 -22.5 15.5t-15.5 36.5t-9 43t-3 35v55q0 48 50 48h18q48 0 48 -48v-55
z" />
    <glyph glyph-name="numbersign" unicode="#" horiz-adv-x="727" 
d="M372 -37l14 94h-134l-14 -94q-2 -18 -16.5 -30.5t-32.5 -12.5h-31q-17 0 -27.5 12.5t-8.5 30.5l14 94h-93q-17 0 -27.5 12.5t-8.5 30.5l5 31q3 17 17 29.5t32 12.5h93l44 284h-94q-18 0 -28.5 12.5t-7.5 30.5l4 31q3 17 17.5 29.5t32.5 12.5h93l15 95q3 17 17.5 29.5
t31.5 12.5h31q18 0 28.5 -12.5t7.5 -29.5l-15 -95h134l15 95q3 17 17.5 29.5t31.5 12.5h31q18 0 28.5 -12.5t7.5 -29.5l-15 -95h96q17 0 27.5 -12.5t7.5 -29.5l-4 -31q-3 -18 -17.5 -30.5t-31.5 -12.5h-95l-44 -284h96q17 0 27.5 -12.5t7.5 -29.5l-5 -31q-2 -18 -16.5 -30.5
t-31.5 -12.5h-96l-14 -94q-2 -18 -16.5 -30.5t-32.5 -12.5h-31q-17 0 -27.5 12.5t-8.5 30.5zM270 173h134l44 284h-134z" />
    <glyph glyph-name="dollar" unicode="$" horiz-adv-x="689" 
d="M569 271q38 -35 55.5 -87t17.5 -126q0 -87 -45 -148q-37 -49 -98 -76q-28 -12 -53.5 -18.5t-44.5 -8.5v-34q0 -18 -12.5 -30.5t-30.5 -12.5h-28q-18 0 -30.5 12.5t-12.5 30.5v37q-3 0 -6 0.5t-5 0.5q-106 18 -163 74q-53 53 -55 131v27q0 18 12.5 30.5t30.5 12.5h28
q18 0 30.5 -12.5t12.5 -30.5v-26q0 -31 21 -51q29 -29 94 -41v307q-29 3 -57 10t-55 21q-57 28 -87 78t-30 120q0 26 3.5 49t9.5 44q15 53 51 89q37 40 98 61q29 9 67 15v34q0 18 12.5 30.5t30.5 12.5h28q18 0 30.5 -12.5t12.5 -30.5v-31q39 -4 69 -14.5t52.5 -25.5
t38 -32.5t26.5 -33.5q12 -20 19 -39.5t10.5 -35t4.5 -26t1 -13.5v-53q0 -18 -12.5 -30.5t-29.5 -12.5h-28q-18 0 -30.5 12.5t-12.5 30.5v54q0 2 -3 19t-17 37q-28 40 -88 49v-273q3 0 6 -0.5t6 -0.5q41 -6 81.5 -18.5t74.5 -44.5zM492 188q-15 14 -38.5 21t-52.5 12v-299
q12 2 26 6t28 10q74 35 74 120q0 96 -37 130zM172 461q0 -55 27.5 -80t87.5 -35v258q-56 -11 -83 -39q-32 -33 -32 -104z" />
    <glyph glyph-name="percent" unicode="%" horiz-adv-x="767" 
d="M233 -66l182 704q5 17 20.5 29.5t32.5 12.5l41 -1q18 0 22.5 -12.5t-0.5 -29.5l-182 -703q-5 -18 -15.5 -30.5t-28.5 -12.5h-41q-17 0 -26.5 12.5t-4.5 30.5zM140 656q-25 0 -47 -9.5t-38.5 -26t-26 -38.5t-9.5 -47v-86q0 -25 9.5 -47t26 -38t38.5 -25.5t47 -9.5t47 9.5
t38.5 25.5t26 38t9.5 47v86q0 25 -9.5 47t-26 38.5t-38.5 26t-47 9.5zM169 472q-5 -30 -31 -30q-12 0 -20.5 9.5t-8.5 20.5v47q2 14 10.5 21.5t21.5 7.5q28 -2 28 -29v-47zM630 284q-25 0 -47 -9.5t-38.5 -26t-26 -38.5t-9.5 -47v-86q0 -25 9.5 -47t26 -38t38.5 -25.5
t47 -9.5t47 9.5t38.5 25.5t26 38t9.5 47v86q0 25 -9.5 47t-26 38.5t-38.5 26t-47 9.5zM659 100q-5 -30 -31 -30q-12 0 -20.5 9.5t-8.5 20.5v47q2 14 10.5 21.5t21.5 7.5q28 -2 28 -29v-47z" />
    <glyph glyph-name="ampersand" unicode="&#x26;" horiz-adv-x="607" 
d="M565 -153q11 -18 1.5 -30.5t-27.5 -12.5h-48q-14 0 -23 8.5t-17 21.5q-45 -27 -100 -27h-108q-39 0 -75 14.5t-64 43.5q-29 28 -43.5 64t-14.5 76v116q0 39 14.5 75t43.5 65l5 5q-4 4 -5 6q-29 29 -44 64l-3 10q-11 29 -11 66v116q0 82 58 140q28 28 64 43t75 15h108
q39 0 75 -15t64 -43q58 -58 58 -140v-116q0 -74 -48 -130q-23 -24 -70 -46.5t-120 -22.5h-32l165 -210v140q0 18 12.5 30.5t30.5 12.5h20q17 0 29.5 -12.5t12.5 -30.5v-138q0 -56 -27 -101zM151 412q0 -28 14 -50q5 -6 10 -13q13 -14 30.5 -22t37.5 -8h108q19 0 36 7.5
t29.5 20t19.5 29.5t7 36v116q0 19 -7 36t-19.5 29.5t-29.5 20t-36 7.5h-108q-19 0 -36 -7.5t-29.5 -20t-19.5 -29.5t-7 -36v-116zM351 -88q20 0 35 7l-209 267q-12 -13 -19 -29.5t-7 -35.5v-116q0 -20 7 -36.5t19.5 -29.5t29.5 -20t36 -7h108z" />
    <glyph glyph-name="quotesingle" unicode="'" horiz-adv-x="256" 
d="M206 695q0 -13 -4.5 -35t-12.5 -43t-18.5 -36.5t-22.5 -15.5h-38q-13 0 -24 15.5t-19 36.5t-12.5 43t-4.5 35v45q0 24 17 41t43 17h38q24 0 41 -17t17 -41v-45z" />
    <glyph glyph-name="parenleft" unicode="(" horiz-adv-x="380" 
d="M245 -189q-45 45 -82.5 100.5t-61.5 113.5q-45 111 -45 234q0 122 45 235q24 58 61.5 113t82.5 100q17 17 37 13.5t37 -20.5t20.5 -36.5t-13.5 -36.5q-75 -75 -112 -171t-37 -196.5t37 -197t112 -170.5q17 -17 13.5 -36.5t-20.5 -36.5q-12 -12 -24 -17q-11 -5 -24 -4.5
t-26 13.5z" />
    <glyph glyph-name="parenright" unicode=")" horiz-adv-x="372" 
d="M134 -189q-14 -13 -26.5 -13.5t-23.5 4.5q-12 5 -24 17q-17 17 -20.5 36.5t13.5 36.5q75 74 112 170.5t37 197t-37 196.5t-112 171q-17 17 -13.5 36.5t20.5 36.5t37 20.5t37 -13.5q45 -45 82.5 -100t61.5 -113q45 -113 45 -235q0 -123 -45 -234q-24 -58 -61.5 -113.5
t-82.5 -100.5z" />
    <glyph glyph-name="asterisk" unicode="*" horiz-adv-x="595" 
d="M519 297h-118l64 -101q10 -14 6 -31.5t-19 -27.5l-24 -15q-14 -9 -31.5 -5t-27.5 18l-71 112l-70 -112q-10 -14 -27.5 -18t-31.5 5l-24 15q-15 10 -19 27.5t6 31.5l64 101h-122q-17 0 -29.5 12.5t-12.5 29.5v28q0 18 12.5 31t29.5 12h121l-63 101q-10 16 -6 33t18 26
l24 15q15 10 32.5 6t26.5 -19l71 -113l72 113q9 15 26.5 19t32.5 -6l24 -15q14 -9 18 -26t-6 -33l-63 -101l117 1q18 0 30.5 -13t12.5 -31v-28q0 -17 -12.5 -29.5t-30.5 -12.5z" />
    <glyph glyph-name="plus" unicode="+" horiz-adv-x="597" 
d="M75 411h166v165q0 18 12.5 30.5t30.5 12.5h28q17 0 29.5 -12.5t12.5 -30.5v-165h166q17 0 29.5 -12.5t12.5 -29.5v-28q0 -18 -12.5 -30.5t-29.5 -12.5h-166v-167q0 -17 -12.5 -29.5t-29.5 -12.5h-28q-18 0 -30.5 12.5t-12.5 29.5v167h-166q-18 0 -30.5 12.5t-12.5 30.5
v28q0 17 12.5 29.5t30.5 12.5z" />
    <glyph glyph-name="comma" unicode="," horiz-adv-x="266" 
d="M209 -140q0 -13 -8 -33t-20.5 -39.5t-26.5 -33.5t-26 -14v60h-15q-26 0 -43 17t-17 43v45q0 24 17 41t43 17h38q24 0 41 -17t17 -41v-45z" />
    <glyph glyph-name="hyphen" unicode="-" horiz-adv-x="597" 
d="M75 411h445q17 0 29.5 -12.5t12.5 -29.5v-28q0 -18 -12.5 -30.5t-29.5 -12.5h-445q-18 0 -30.5 12.5t-12.5 30.5v28q0 17 12.5 29.5t30.5 12.5z" />
    <glyph glyph-name="period" unicode="." horiz-adv-x="258" 
d="M209 -140q0 -26 -17 -43t-41 -17h-38q-26 0 -43 17t-17 43v45q0 24 17 41t43 17h38q24 0 41 -17t17 -41v-45z" />
    <glyph glyph-name="slash" unicode="/" horiz-adv-x="403" 
d="M56 -36l182 704q5 17 20.5 29.5t32.5 12.5l31 -1q18 0 27.5 -12.5t4.5 -29.5l-182 -703q-5 -18 -20.5 -30.5t-33.5 -12.5h-31q-17 0 -26.5 12.5t-4.5 30.5z" />
    <glyph glyph-name="zero" unicode="0" horiz-adv-x="648" 
d="M366 726q48 0 89.5 -18t73 -49t49.5 -72.5t18 -89.5v-463q0 -47 -18 -89t-49.5 -73t-73 -49t-89.5 -18h-77q-47 0 -88.5 18t-72.5 49t-49 73t-18 89v463q0 48 18 89.5t49 72.5t72.5 49t88.5 18h77zM471 497q0 43 -31 74q-32 30 -74 30h-77q-43 0 -73 -30q-31 -33 -31 -74
v-463q0 -42 31 -73t73 -31h77q43 0 74 31q31 30 31 73v463z" />
    <glyph glyph-name="one" unicode="1" horiz-adv-x="493" 
d="M305 725q20 0 34.5 -14t14.5 -35v-823q0 -21 -14.5 -35t-34.5 -14h-28q-20 0 -34.5 14t-14.5 35v672l-15 -15q-15 -15 -35 -15q-8 0 -17.5 4.5t-16.5 10.5l-20 19q-14 14 -14 35q0 19 14 34l113 113q14 14 38 14h30v0z" />
    <glyph glyph-name="two" unicode="2" horiz-adv-x="630" 
d="M523 -71q20 0 34 -14.5t14 -34.5v-27q0 -21 -14 -35t-34 -14h-410q-20 0 -34 14t-14 35v42q0 21 8.5 40t24 38.5t37 40t46.5 43.5q23 21 52 48t60 59q45 46 74.5 79t47 65.5t24.5 70t7 91.5v55q0 18 -6.5 33.5t-18 27t-27 18t-32.5 6.5h-105q-17 0 -32.5 -6.5t-27 -18
t-18 -27t-6.5 -33.5v-130q0 -20 -14 -34.5t-34 -14.5h-20q-20 0 -34.5 14.5t-14.5 34.5v130q0 41 15.5 77.5t43.5 65.5q25 25 56.5 40t65.5 17q3 1 10 1h115q41 0 77.5 -15t64.5 -43q29 -29 44 -65.5t15 -77.5v-151q0 -42 -20 -84t-53 -85t-76 -87t-90 -90
q-26 -24 -50.5 -47.5t-50.5 -51.5h300v0z" />
    <glyph glyph-name="three" unicode="3" horiz-adv-x="620" 
d="M362 725q41 0 77 -15t65 -43q28 -29 43 -65.5t15 -76.5v-114q0 -41 -15 -77.5t-43 -64.5l-1 -1h1q28 -29 43 -66t15 -77v-113q0 -41 -15 -77.5t-43 -64.5q-29 -29 -65 -44t-77 -15h-115h-5.5t-5.5 1q-34 3 -65 17.5t-56 40.5q-28 28 -43.5 64.5t-15.5 77.5v66q0 21 14 35
t34 14h20q20 0 34.5 -14t14.5 -35v-66q0 -35 24.5 -60t59.5 -25h105q17 0 32.5 6.5t27 18t18 27t6.5 33.5v113q0 18 -6.5 33t-18 26.5t-27 18t-32.5 6.5h-122q-20 0 -34 14.5t-14 34.5v19q0 21 14 35t34 14h122q35 0 59.5 25t24.5 60v114q0 35 -24.5 59.5t-59.5 24.5h-105
q-18 0 -33 -6.5t-26.5 -18t-18 -27t-6.5 -32.5v-68q0 -20 -14.5 -34t-34.5 -14h-20q-20 0 -34 14t-14 34v68q0 40 15.5 76.5t43.5 65.5q25 25 56 40t66 18h5h5h115v0z" />
    <glyph glyph-name="four" unicode="4" horiz-adv-x="666" 
d="M579 245q20 0 34 -14t14 -35v-20q0 -20 -14 -34t-34 -14h-53v-275q0 -21 -14.5 -35t-34.5 -14h-28q-20 0 -34.5 14t-14.5 35v275h-163q-41 0 -77.5 15t-65.5 44q-28 29 -43 65t-15 77v347q0 21 14 35t34 14h19q21 0 35 -14t14 -35v-347q0 -35 25 -59.5t60 -24.5h163v431
q0 21 14.5 35t34.5 14h28q20 0 34.5 -14t14.5 -35v-431h53v0z" />
    <glyph glyph-name="five" unicode="5" horiz-adv-x="618" 
d="M518 725q20 0 34 -14t14 -35v-19q0 -20 -14 -34t-34 -14h-360v-139q0 -35 24.5 -60t59.5 -25l48 -1h75q41 0 77.5 -15t64.5 -44q29 -28 44 -64.5t15 -77.5v-171q0 -41 -15 -77.5t-44 -64.5q-28 -29 -64.5 -44t-77.5 -15h-115q-7 0 -10 1q-70 6 -122 58q-29 28 -43.5 64.5
t-14.5 77.5v66q0 21 14 35t34 14h20q20 0 34.5 -14t14.5 -35v-66q0 -18 6.5 -33.5t17.5 -27t26.5 -18t32.5 -6.5h105q35 0 59.5 25t24.5 60v171q0 35 -24.5 60t-59.5 25h-121q-4 0 -8 1q-38 2 -74 17t-62 41q-29 29 -44 65.5t-15 77.5v206q0 21 14 35t34 14h429v0z" />
    <glyph glyph-name="six" unicode="6" horiz-adv-x="625" 
d="M390 394q41 0 77.5 -14.5t65.5 -43.5t43.5 -65.5t14.5 -76.5v-182q0 -41 -14.5 -77.5t-43.5 -64.5q-29 -29 -65.5 -44t-77.5 -15h-162h-5.5t-5.5 1q-33 3 -65 18t-57 40q-27 28 -43.5 65t-16.5 77v513q0 40 15.5 76.5t44.5 65.5q29 28 65 43t76 15h212q21 0 35 -14
t14 -35v-19q0 -20 -14 -34t-35 -14h-212q-35 0 -59.5 -24.5t-24.5 -59.5v-513q0 -18 6.5 -33.5t18 -27t27 -18t32.5 -6.5h154q35 0 60 25t25 60v182q0 17 -6.5 32t-18 26.5t-27 18t-33.5 6.5h-169q-20 0 -34 14.5t-14 34.5v20q0 20 14 34t34 14h169v0z" />
    <glyph glyph-name="seven" unicode="7" horiz-adv-x="562" 
d="M323 725q41 0 77.5 -15t64.5 -43q29 -29 44 -65.5t15 -76.5v-672q0 -21 -14 -35t-35 -14h-19q-20 0 -34 14t-14 35v672q0 35 -25 59.5t-60 24.5h-251q-20 0 -34.5 14t-14.5 34v19q0 21 14.5 35t34.5 14h251v0z" />
    <glyph glyph-name="eight" unicode="8" horiz-adv-x="580" 
d="M336 725q41 0 77.5 -15t64.5 -43q29 -29 44 -65.5t15 -76.5v-114q0 -41 -15 -77.5t-44 -64.5l-1 -1h1q29 -29 44 -66t15 -77v-113q0 -41 -15 -77.5t-44 -64.5q-28 -29 -64.5 -44t-77.5 -15h-105q-41 0 -77 15t-65 44q-28 28 -43 64.5t-15 77.5v113q0 40 15 77t43 66v1
q-28 28 -43 64.5t-15 77.5v114q0 40 15 76.5t43 65.5q29 28 65 43t77 15h105zM420 525q0 17 -6.5 32.5t-18 27t-26.5 18t-33 6.5h-105q-35 0 -59 -24.5t-24 -59.5v-114q0 -35 24 -60t59 -25h105q18 0 33 7t26.5 18.5t18 27t6.5 32.5v114zM420 125q0 35 -24.5 59.5
t-59.5 24.5h-105q-17 0 -32.5 -6.5t-26.5 -18t-17.5 -26.5t-6.5 -33v-113q0 -18 6.5 -33.5t17.5 -27t26.5 -18t32.5 -6.5h105q35 0 59.5 25t24.5 60v113z" />
    <glyph glyph-name="nine" unicode="9" horiz-adv-x="572" 
d="M534 12q0 -41 -15 -77.5t-44 -64.5q-28 -29 -64.5 -44t-77.5 -15h-163q-20 0 -34 14t-14 34v19q0 21 14 35t34 14h163q35 0 59.5 25t24.5 60v513q0 17 -6.5 32.5t-18 27t-26.5 18t-33 6.5h-105q-35 0 -59.5 -24.5t-24.5 -59.5v-183q0 -35 24.5 -59.5t59.5 -24.5h122
q20 0 34 -14.5t14 -34.5v-19q0 -20 -14 -34.5t-34 -14.5h-122q-41 0 -77 15.5t-65 43.5q-28 28 -43.5 64.5t-15.5 77.5v183q0 40 15.5 76.5t43.5 65.5q29 28 65 43t77 15h115h4h6q35 -3 66 -18t56 -40q29 -29 44 -65.5t15 -76.5v-513z" />
    <glyph glyph-name="colon" unicode=":" horiz-adv-x="286" 
d="M219 190q0 -26 -17 -43t-41 -17h-38q-26 0 -43 17t-17 43v45q0 24 17 41t43 17h38q24 0 41 -17t17 -41v-45zM219 520q0 -26 -17 -43t-41 -17h-38q-26 0 -43 17t-17 43v45q0 24 17 41t43 17h38q24 0 41 -17t17 -41v-45z" />
    <glyph glyph-name="semicolon" unicode=";" horiz-adv-x="273" 
d="M216 520q0 -26 -17 -43t-41 -17h-38q-26 0 -43 17t-17 43v45q0 24 17 41t43 17h38q24 0 41 -17t17 -41v-45zM216 190q0 -13 -8 -33t-20.5 -39.5t-26.5 -33.5t-26 -14v60h-15q-26 0 -43 17t-17 43v45q0 24 17 41t43 17h38q24 0 41 -17t17 -41v-45z" />
    <glyph glyph-name="less" unicode="&#x3c;" horiz-adv-x="592" 
d="M553 -107q12 -13 12 -30.5t-12 -29.5l-20 -20q-13 -13 -30.5 -13t-29.5 13l-412 411l-20 20q-12 13 -12 30.5t12 29.5l409 409q13 13 30.5 13t29.5 -13l20 -20q13 -12 13 -29.5t-13 -30.5l-359 -359l382 -381v0z" />
    <glyph glyph-name="equal" unicode="=" horiz-adv-x="577" 
d="M67 491h445q17 0 29.5 -12.5t12.5 -29.5v-28q0 -18 -12.5 -30.5t-29.5 -12.5h-445q-18 0 -30.5 12.5t-12.5 30.5v28q0 17 12.5 29.5t30.5 12.5zM67 221h445q17 0 29.5 -12.5t12.5 -29.5v-28q0 -18 -12.5 -30.5t-29.5 -12.5h-445q-18 0 -30.5 12.5t-12.5 30.5v28
q0 17 12.5 29.5t30.5 12.5z" />
    <glyph glyph-name="greater" unicode="&#x3e;" horiz-adv-x="592" 
d="M413 274l-359 359q-13 13 -13 30.5t13 29.5l20 20q12 13 29.5 13t30.5 -13l409 -409q12 -12 12 -29.5t-12 -30.5l-20 -20l-412 -411q-12 -13 -29.5 -13t-30.5 13l-20 20q-12 12 -12 29.5t12 30.5z" />
    <glyph glyph-name="question" unicode="?" horiz-adv-x="613" 
d="M511 709q63 -65 63 -152v-60q0 -35 -11 -68t-31 -64q-19 -26 -41.5 -49t-43.5 -43v-1q-16 -15 -31.5 -29t-28 -27.5t-20 -27t-7.5 -27.5q0 -35 -4.5 -49.5t-12.5 -23.5q-17 -17 -40 -17h-7q-24 0 -36 17t-12 42q0 18 -1.5 36.5t-0.5 37t5.5 36t15.5 33.5q13 20 29 36.5
t32 31.5v1l2 1l18 17q17 16 32 31.5t26.5 32t18.5 35.5t7 42v56q0 32 -20.5 53t-52.5 21h-124h-74q-25 0 -42.5 17.5t-17.5 41.5v23q0 25 17.5 42.5t42.5 17.5h198q42 0 81.5 -16.5t70.5 -47.5zM387 -110q0 -26 -17 -43t-41 -17h-38q-26 0 -43 17t-17 43v45q0 24 17 41
t43 17h38q24 0 41 -17t17 -41v-45z" />
    <glyph glyph-name="at" unicode="@" horiz-adv-x="990" 
d="M885 464q22 -38 34 -84t17.5 -100t6.5 -116.5t1 -135.5q0 -91 -31 -164.5t-91 -127.5q-132 -117 -385 -117q-86 0 -160 32q-75 34 -130 87q-26 28 -49 61.5t-37 69.5q-34 76 -34 159q0 39 8.5 78t23 76.5t34 71.5t42.5 62q50 52 117 84t139 36h4q5 1 10 1h10l88 -1h54
q40 0 76.5 -15t65.5 -44q28 -28 43 -64t15 -77v-183v-7t-1 -6v-13q0 -45 -17 -85t-49 -72q-31 -32 -72 -49t-86 -17h-61q-45 0 -85.5 17t-72.5 49t-49 72t-17 85t17 86t49 72q32 32 72.5 49t85.5 17h61q30 0 56.5 -6.5t51.5 -20.5v14q-1 35 -25 59t-58 24h-158
q-53 -5 -99 -29.5t-81 -63t-55 -90t-20 -110.5q0 -60 23 -113.5t62.5 -93.5t93 -63t114.5 -23q101 0 179 23.5t129 65.5q36 36 59 89.5t23 114.5q0 66 -0.5 122.5t-4.5 104t-12.5 85t-24.5 65.5v-1q-11 19 -29.5 37t-53 32t-89 23t-136.5 9h-32q-20 0 -34 14t-14 34v20
q0 20 14 34.5t34 14.5h67q6 0 8 -1q131 -5 213 -35q50 -19 89 -49.5t63 -72.5zM532 -79q22 0 41.5 8.5t34 23t23 33.5t8.5 41t-8.5 41.5t-23 33.5t-34 22.5t-41.5 8.5h-61q-22 0 -41.5 -8.5t-34 -22.5t-23 -33.5t-8.5 -41.5t8.5 -41t23 -33.5t34 -23t41.5 -8.5h61z" />
    <glyph glyph-name="A" unicode="A" horiz-adv-x="803" 
d="M771 -149q5 -20 -3.5 -33.5t-29.5 -13.5h-54q-17 0 -29.5 12.5t-19.5 30.5l-82 235h-232q-21 0 -35 14t-14 34v20q0 20 14 34.5t35 14.5h191q-15 45 -30 86t-29 81.5t-29 81.5t-30 86l-241 -687q-7 -17 -19 -30t-30 -13h-54q-20 0 -29 13.5t-2 33.5l290 830q7 19 24 31.5
t36 12.5h52q18 0 35 -12.5t23 -31.5z" />
    <glyph glyph-name="B" unicode="B" horiz-adv-x="641" 
d="M86 -196q-21 0 -35 14t-14 35v823q0 21 14 35t35 14h257q45 0 85 -17.5t70 -47t47 -69.5t17 -85v-80q0 -38 -12.5 -72.5t-33.5 -62.5q42 -29 66.5 -76t24.5 -102v-89q0 -45 -17.5 -85t-47.5 -70t-70 -47.5t-85 -17.5h-143q-24 0 -49 5t-45 12q-14 -17 -37 -17h-27z
M161 -53q19 -7 40 -12.5t38 -5.5h148q41 0 67 28q28 27 28 67v89q0 19 -7 36t-21 30q-13 14 -30 21t-37 7h-226v-260zM161 332h189q17 2 32 8.5t27 19.5q28 27 28 66v80q0 39 -28 67q-27 27 -66 27h-182v-268z" />
    <glyph glyph-name="C" unicode="C" horiz-adv-x="762" 
d="M676 -80q-21 -20 -44.5 -40.5t-52.5 -37.5t-65 -27.5t-83 -10.5q-84 0 -157.5 36t-128.5 98.5t-87 146.5t-32 180t32 179.5t87 146t128.5 98.5t157.5 36q60 0 114.5 -18t96.5 -52t66.5 -81.5t24.5 -107.5v-52q0 -21 -14.5 -35t-34.5 -14h-41q-20 0 -34.5 14t-14.5 35v52
q0 16 -2.5 32.5t-10.5 32.5q-17 41 -57 55t-93 14t-103 -24t-90 -69q-19 -23 -35 -50t-28 -56q-11 -32 -17.5 -67t-6.5 -69q0 -35 6.5 -69t17.5 -68q24 -60 63 -105q40 -46 89.5 -70t103.5 -24q38 0 71 13.5t60 33.5t46 42.5t30 40.5q5 8 18.5 18t27.5 10t24 -13t10 -48v-29
q-2 -12 -6 -25q-4 -11 -12.5 -24.5t-23.5 -27.5z" />
    <glyph glyph-name="D" unicode="D" horiz-adv-x="759" 
d="M311 725q84 0 157.5 -36t128.5 -98.5t87 -146t32 -179.5t-32 -180t-87 -146.5t-128.5 -98.5t-157.5 -36h-216q-21 0 -35 14t-14 35v823q0 21 14 35t35 14h216zM567 128q11 34 17.5 68t6.5 69t-6.5 69t-17.5 67q-24 59 -63 106q-40 46 -89.5 69.5t-103.5 23.5h-140v-671
h140q54 0 103.5 24t89.5 70q39 45 63 105z" />
    <glyph glyph-name="E" unicode="E" horiz-adv-x="587" 
d="M76 -196q-20 0 -34 14t-14 35v823q0 21 14 35t34 14h29h4h9h4h383q20 0 34.5 -14t14.5 -35v-27q0 -20 -14.5 -34.5t-34.5 -14.5h-352v-671h352q20 0 34.5 -14t14.5 -35v-27q0 -21 -14.5 -35t-34.5 -14h-383q-1 0 -2 0.5t-2 0.5h-4q-2 0 -3 -0.5t-2 -0.5h-33zM453 327
q20 0 34.5 -14t14.5 -35v-27q0 -20 -14.5 -34.5t-34.5 -14.5h-224q-20 0 -34.5 14.5t-14.5 34.5v27q0 21 14.5 35t34.5 14h224z" />
    <glyph glyph-name="F" unicode="F" horiz-adv-x="587" 
d="M81 -196q-20 0 -34 14t-14 35v823q0 21 14 35t34 14h29h4h9h4h383q20 0 34.5 -14t14.5 -35v-27q0 -20 -14.5 -34.5t-34.5 -14.5h-352v-273h300q20 0 34.5 -14t14.5 -35v-27q0 -20 -14.5 -34.5t-34.5 -14.5h-300v-349q0 -21 -14 -35t-34 -14h-29v0z" />
    <glyph glyph-name="G" unicode="G" horiz-adv-x="770" 
d="M430 -196q-84 0 -157.5 36t-128 98.5t-86.5 146.5t-32 180t32 179.5t86.5 146t128 98.5t157.5 36q47 0 83 -10.5t65 -27t52.5 -37t44.5 -40.5h-1q16 -14 25 -27.5t13 -24.5q4 -13 5 -26v-29q0 -35 -10 -47.5t-24 -12.5q-13 0 -26.5 10.5t-18.5 18.5v-1q-11 18 -30 40.5
t-46 42t-60.5 33t-71.5 13.5q-54 0 -103 -23.5t-89 -69.5q-20 -23 -36 -49.5t-27 -56.5q-24 -66 -24 -136t24 -137q11 -30 27 -56t36 -49q40 -46 89 -70t103 -24q55 0 100.5 14.5t63.5 55.5q14 34 14 65v114h-148q-20 0 -34 14.5t-14 34.5v28q0 20 14 34.5t34 14.5h223
q21 0 35 -14.5t14 -34.5v-210q0 -5 -0.5 -8.5t-1.5 -6.5v1q-6 -53 -32.5 -95t-67.5 -71.5t-92.5 -45t-107.5 -15.5z" />
    <glyph glyph-name="H" unicode="H" horiz-adv-x="700" 
d="M80 -196q-20 0 -34 14t-14 35v823q0 21 14 35t34 14h27q21 0 35 -14t14 -35v-823q0 -21 -14 -35t-35 -14h-27zM611 725q21 0 35 -14t14 -35v-823q0 -21 -14 -35t-35 -14h-27q-21 0 -35 14t-14 35v349h-302q-21 0 -35 14.5t-14 34.5v27q0 21 14 35t35 14h302v349
q0 21 14 35t35 14h27z" />
    <glyph glyph-name="I" unicode="I" horiz-adv-x="269" 
d="M146 725q21 0 35 -14t14 -35v-823q0 -21 -14 -35t-35 -14h-27q-20 0 -34.5 14t-14.5 35v823q0 21 14.5 35t34.5 14h27v0z" />
    <glyph glyph-name="J" unicode="J" horiz-adv-x="284" 
d="M183 725q20 0 34.5 -14t14.5 -35v-823q0 -51 -11 -88t-29 -64t-41 -47t-47 -38q-16 -11 -31 -11q-17 0 -32 10.5t-23 25.5t-7.5 31t14.5 26q30 23 46.5 44t24.5 36q9 18 10 33v865q0 21 14.5 35t34.5 14h28v0z" />
    <glyph glyph-name="K" unicode="K" horiz-adv-x="678" 
d="M629 -125q6 -5 9.5 -15t3.5 -20q0 -14 -8 -24.5t-26 -10.5h-39q-17 0 -34 2t-30 16l-339 339v-307q0 -21 -14 -35t-35 -14h-28q-20 0 -34.5 14t-14.5 35v823q0 21 14.5 35t34.5 14h28q21 0 35 -14t14 -35v-307l339 339q13 13 30.5 15t36.5 2h36q18 0 26 -10.5t8 -24.5
q0 -22 -13 -35l-385 -385l-6 -5z" />
    <glyph glyph-name="L" unicode="L" horiz-adv-x="615" 
d="M526 -71q20 0 34 -14t14 -35v-27q0 -21 -14 -35t-34 -14h-373q-6 0 -14 2q-8 -2 -13 -2h-29q-20 0 -34 14t-14 35v823q0 21 14 35t34 14h29q20 0 34 -14t14 -35v-747h352v0z" />
    <glyph glyph-name="M" unicode="M" horiz-adv-x="1005" 
d="M917 725q20 0 34 -14t14 -35v-823q0 -21 -14 -35t-34 -14h-29q-20 0 -34 14t-14 35v671l-307 -306q-12 -15 -34 -15q-21 0 -34 15l-304 304v-669q0 -21 -14.5 -35t-34.5 -14h-28q-20 0 -34.5 14t-14.5 35v823q0 21 14.5 35t34.5 14h28q19 0 33 -12l7 -6l347 -347l347 347
q3 3 7 5.5t8 4.5h-1q11 8 28 8h29v0z" />
    <glyph glyph-name="N" unicode="N" horiz-adv-x="820" 
d="M719 725q20 0 34 -14t14 -35v-823q0 -21 -14 -35t-34 -14h-29q-13 0 -24 6.5t-17 17.5l-5 7v-1q-60 83 -119 163t-117 159.5t-116.5 159t-118.5 162.5v-625q0 -21 -14 -35t-34 -14h-29q-20 0 -34 14t-14 35v823q0 21 14 35t34 14h29q14 0 26 -8t18 -21v1l473 -648v627
q0 21 14 35t34 14h29v0z" />
    <glyph glyph-name="O" unicode="O" horiz-adv-x="777" 
d="M381 725q70 0 132 -26.5t108.5 -73t73.5 -108.5t27 -133v-239q0 -71 -27 -133t-73.5 -108t-108.5 -73t-132 -27t-132 27t-108.5 73t-73.5 108t-27 133v239q0 71 27 133t73.5 108.5t108.5 73t132 26.5zM597 384q0 23 -4.5 43.5t-12.5 40.5q-8 19 -19.5 36.5t-27.5 32.5
q-14 15 -31.5 27t-36.5 20v-1q-43 17 -84 17t-83 -17v1q-38 -16 -69 -47q-30 -30 -47 -69q-16 -39 -16 -84v-239q0 -45 16 -83q8 -20 20 -36.5t27 -32.5q30 -30 69 -48v1q42 -17 83 -17t84 17v-1q19 9 36 20.5t32 27.5q16 16 27.5 32.5t19.5 36.5q17 40 17 83v239z" />
    <glyph glyph-name="P" unicode="P" horiz-adv-x="663" 
d="M401 725q46 0 86 -17.5t70 -47t47 -69.5t17 -85v-158q0 -45 -17 -85t-47 -70t-70 -47.5t-86 -17.5h-165q-21 0 -35 14.5t-14 34.5v28q0 20 14 34.5t35 14.5h165q40 0 67 27q28 28 28 67v158q0 39 -28 67q-27 27 -67 27h-230v-747q0 -21 -14 -35t-34 -14h-29q-20 0 -34 14
t-14 35v823q0 21 14 35t34 14h307v0z" />
    <glyph glyph-name="Q" unicode="Q" horiz-adv-x="772" 
d="M732 -71q20 0 34.5 -14t14.5 -35v-27q0 -21 -14.5 -35t-34.5 -14h-117q-45 0 -85 17.5t-70 47.5t-47.5 70t-17.5 85v99q0 20 14.5 34t34.5 14h28q20 0 34.5 -14t14.5 -34v-99q0 -20 6 -35l5 5q13 14 26 32.5t21 35.5q7 19 11.5 40.5t4.5 42.5v239q0 23 -4 43.5t-12 40.5
q-8 19 -20 36.5t-28 32.5q-29 30 -69 45q-41 18 -82 18q-23 0 -43.5 -4.5t-40.5 -12.5q-38 -14 -69 -46q-31 -30 -47 -69q-8 -20 -12.5 -40.5t-4.5 -43.5v-239q0 -21 4.5 -42.5t12.5 -40.5q8 -17 20.5 -36t26.5 -33q15 -16 32.5 -27.5t36.5 -20.5q30 -13 71 -16h13
q20 0 34 -14t14 -35v-27q0 -21 -14.5 -35t-34.5 -14l-13 1q-68 3 -128 30.5t-104.5 73.5t-70 106.5t-25.5 129.5v239q0 71 27 133t73.5 108.5t108.5 73t133 26.5q70 0 132 -26.5t108 -73t73 -108.5t27 -133v-239q0 -62 -21 -116.5t-57 -99.5h90v0z" />
    <glyph glyph-name="R" unicode="R" horiz-adv-x="658" 
d="M391 725q45 0 85 -17.5t70 -47t47.5 -69.5t17.5 -85v-158q0 -66 -33.5 -118t-89.5 -78l109 -300q6 -20 -3 -33.5t-29 -13.5h-44q-19 0 -35.5 12.5t-23.5 30.5l-102 280h-134q-21 0 -35 14.5t-14 34.5v28q0 20 14 34.5t35 14.5h165q38 0 67 27q28 28 28 67v158
q0 39 -28 67q-30 28 -67 28h-230v-748q0 -21 -14 -35t-34 -14h-28q-20 0 -34 14t-14 35v823q0 21 14 35t34 14h306v0z" />
    <glyph glyph-name="S" unicode="S" horiz-adv-x="641" 
d="M543 277q74 -68 74 -213q0 -88 -45 -149q-19 -25 -44 -44t-55 -33q-23 -9 -45 -15t-40.5 -9t-31.5 -4.5t-16 -1.5h-4q-9 0 -33 1t-53 6q-106 18 -163 74q-54 54 -56 134v26q0 20 14 34.5t35 14.5h27q21 0 35 -14.5t14 -34.5v-25q0 -27 19 -46q14 -14 39 -24t57 -16
q27 -5 47 -5.5t21 -0.5t9 0.5t20 2.5t26.5 6t29.5 11q35 17 51.5 44t16.5 68q0 92 -34 122q-14 14 -37 20.5t-53 11.5q-5 0 -10 1t-10 1t-11 0.5t-11 1.5q-18 1 -40.5 3.5t-46 7t-47 11t-43.5 15.5q-55 29 -86.5 80t-31.5 120q0 26 3.5 49.5t8.5 43.5q8 25 21.5 49t30.5 41
q38 41 99 62q62 20 142 20q48 0 85 -10t64.5 -26t46 -35.5t30.5 -37.5q12 -20 19 -40t10.5 -36t4.5 -26.5t1 -13.5v-52q0 -20 -14 -34.5t-34 -14.5h-27q-21 0 -35 14.5t-14 34.5v53q0 2 -3 17.5t-16 33.5q-33 48 -118 48q-109 0 -150 -43q-30 -30 -30 -97q0 -32 11.5 -52
t34 -32.5t56 -19t77.5 -9.5q13 -1 27 -2t25 -3q40 -6 80.5 -19t75.5 -45z" />
    <glyph glyph-name="T" unicode="T" horiz-adv-x="772" 
d="M684 725q21 0 35 -14t14 -35v-27q0 -20 -14 -34t-35 -14h-243v-748q0 -21 -14 -35t-34 -14h-27q-21 0 -35.5 14t-14.5 35v748h-243q-20 0 -34 14t-14 34v27q0 21 14 35t34 14h611v0z" />
    <glyph glyph-name="U" unicode="U" horiz-adv-x="752" 
d="M666 725q20 0 34 -14t14 -35v-531q0 -70 -26.5 -132t-73 -108.5t-108.5 -73.5t-132 -27t-132 27t-108.5 73.5t-73.5 108.5t-27 132v531q0 21 14.5 35t34.5 14h28q20 0 34.5 -14t14.5 -35v-531q0 -22 3.5 -42.5t12.5 -40.5q16 -37 46 -69q17 -15 33.5 -27.5t36.5 -20.5v1
q42 -17 83 -17t84 17v-1q19 8 36 20.5t32 27.5q32 31 47 69q17 40 17 83v531q0 21 14 35t34 14h28v0z" />
    <glyph glyph-name="V" unicode="V" horiz-adv-x="792" 
d="M733 726q20 0 29.5 -14t3.5 -34l-292 -829q-6 -18 -23.5 -31t-34.5 -13h-52q-18 0 -35 13t-24 31l-291 829q-7 20 2.5 34t28.5 14h44q18 0 35 -13t24 -31l241 -687l241 687q7 19 24.5 31.5t34.5 12.5h44v0z" />
    <glyph glyph-name="W" unicode="W" horiz-adv-x="1192" 
d="M1127 726q20 0 30 -14t5 -34l-241 -829q-5 -16 -16 -27q-10 -17 -32 -17h-52q-22 0 -32 17q-10 10 -17 27l-185 639l-185 -639q-7 -17 -17 -27q-10 -17 -31 -17h-52q-23 0 -31 16q-4 5 -10 13t-8 15l-240 829q-5 20 4.5 34t29.5 14h44q19 0 35 -12.5t22 -31.5l179 -619
l180 619q6 19 22.5 31.5t34.5 12.5h47q18 0 34.5 -12.5t22.5 -31.5l179 -619l179 619q6 19 22.5 31.5t34.5 12.5h44v0z" />
    <glyph glyph-name="X" unicode="X" horiz-adv-x="700" 
d="M638 726q20 0 26 -15t-5 -35q-60 -103 -121.5 -205t-122.5 -205q62 -104 123 -206t121 -205q11 -20 5 -35t-26 -15h-65q-17 0 -25.5 10t-16.5 24l-4 8l-180 303l-180 -303v1l-5 -8q-8 -14 -16.5 -24.5t-25.5 -10.5h-65q-20 0 -26.5 14.5t5.5 35.5l245 411l-245 410
q-12 21 -5.5 35.5t26.5 14.5h65q17 0 25.5 -10t16.5 -25l5 -8v1l180 -303l180 303q1 2 1.5 2.5t1.5 2.5q9 17 17.5 27t25.5 10h65v0z" />
    <glyph glyph-name="Y" unicode="Y" horiz-adv-x="775" 
d="M717 726q10 0 17 -6.5t10 -16t1 -21t-10 -20.5h1l-288 -459v1q-1 -2 -2 -2t-2 -2v-346q0 -21 -14 -35t-34 -14h-29q-20 0 -34 14t-14 35v346l-3 3l-289 459h1q-8 9 -10 20.5t1 21t10.5 16t17.5 6.5h56q17 0 26.5 -9t20.5 -23l8 -10l223 -372l225 372l8 10q10 14 20 23
t27 9h56v0z" />
    <glyph glyph-name="Z" unicode="Z" horiz-adv-x="700" 
d="M619 -70q20 0 34 -14t14 -35v-27q0 -21 -14 -35t-34 -14h-509q-2 -1 -2.5 -0.5t-1.5 0.5h-41q-9 0 -18 6.5t-14.5 16.5t-6.5 21.5t4 21.5l432 730h-388q-20 0 -34 14.5t-14 34.5v27q0 21 14 35t34 14h550q21 0 27 -14.5t-5 -35.5l-444 -746h417v0z" />
    <glyph glyph-name="bracketleft" unicode="[" horiz-adv-x="387" 
d="M291 696h-97v-734h97q18 0 30.5 -12.5t12.5 -30.5v-28q0 -17 -12.5 -29.5t-30.5 -12.5h-168q-17 0 -28.5 11t-13.5 28v878q0 20 14 31.5t28 11.5h168q18 0 30.5 -12.5t12.5 -30.5v-28q0 -17 -12.5 -29.5t-30.5 -12.5z" />
    <glyph glyph-name="backslash" unicode="\" horiz-adv-x="1253" 
d="M66 411h63l-80 276q-5 17 3 28.5t25 11.5h45q17 0 31.5 -11.5t19.5 -28.5l79 -276h221l80 276q5 17 20 28.5t31 11.5h48q17 0 31.5 -11.5t19.5 -28.5l79 -276h221l80 276q5 17 19.5 28.5t31.5 11.5h45q17 0 25 -11.5t3 -28.5l-80 -276h54q17 0 29.5 -12.5t12.5 -29.5v-28
q0 -18 -12.5 -30.5t-29.5 -12.5h-87l-132 -457q-4 -14 -16 -26q-9 -14 -26 -14h-54q-17 0 -26 14q-12 12 -16 26l-133 457h-127l-132 -457q-4 -14 -16 -26q-9 -14 -26 -14h-53q-19 0 -26 14q-12 11 -17 26l-133 457h-95q-18 0 -30.5 12.5t-12.5 30.5v28q0 17 12.5 29.5
t30.5 12.5zM893 29l77 269h-155zM363 29l77 269h-155zM597 411h62l-31 107z" />
    <glyph glyph-name="bracketright" unicode="]" horiz-adv-x="362" 
d="M90 696q-18 0 -30.5 12.5t-12.5 29.5v28q0 18 12.5 30.5t30.5 12.5h168q14 0 28 -11.5t14 -31.5v-878q-2 -17 -13.5 -28t-28.5 -11h-168q-18 0 -30.5 12.5t-12.5 29.5v28q0 18 12.5 30.5t30.5 12.5h97v734h-97z" />
    <glyph glyph-name="asciicircum" unicode="^" horiz-adv-x="559" 
d="M82 387l-24 14q-16 9 -20.5 26t4.5 32l183 325q8 14 23 16.5t29 2.5t29.5 -2.5t23.5 -16.5l183 -325q9 -15 4.5 -32t-20.5 -26l-24 -14q-15 -8 -32 -3.5t-26 18.5l-138 248l-137 -248q-9 -14 -26 -18.5t-32 3.5z" />
    <glyph glyph-name="underscore" unicode="_" horiz-adv-x="603" 
d="M82 61h445q17 0 29.5 -12.5t12.5 -29.5v-28q0 -18 -12.5 -30.5t-29.5 -12.5h-445q-18 0 -30.5 12.5t-12.5 30.5v28q0 17 12.5 29.5t30.5 12.5z" />
    <glyph glyph-name="grave" unicode="`" horiz-adv-x="256" 
d="M48 745q0 24 17 41t41 17h38q26 0 43 -17t17 -41v-45q0 -26 -17 -43t-43 -17h-15v-60q-12 0 -26 14t-26.5 33.5t-20.5 39.5t-8 33v45z" />
    <glyph glyph-name="a" unicode="a" horiz-adv-x="592" 
d="M346 434q40 0 76.5 -15.5t64.5 -43.5t43.5 -64t14.5 -77v-181v-7t-1 -6v-13q0 -45 -16.5 -85t-48.5 -71q-31 -32 -71.5 -49t-85.5 -17h-60q-45 0 -85.5 17t-72.5 49q-32 31 -48.5 71t-16.5 85t16.5 85.5t48.5 71.5q32 32 72.5 48.5t85.5 16.5h60q29 0 55.5 -6t51.5 -20
v14q-1 34 -25 57.5t-58 23.5h-159q-20 0 -34 14t-14 34v19q0 20 14 34.5t34 14.5h159zM322 -79q22 0 41 8.5t33.5 23t23 33.5t8.5 41t-8.5 41.5t-23 33.5t-33.5 22.5t-41 8.5h-60q-22 0 -41.5 -8.5t-34 -22.5t-23 -33.5t-8.5 -41.5t8.5 -41t23 -33.5t34 -23t41.5 -8.5h60z
" />
    <glyph glyph-name="b" unicode="b" horiz-adv-x="605" 
d="M490 369q29 -31 46 -70t19 -81v-191q0 -45 -17 -85t-48 -71q-32 -32 -72.5 -49t-85.5 -17h-60q-45 0 -85.5 17t-71.5 49q-32 31 -48.5 71t-16.5 85v636q0 21 14 35t34 14h19q20 0 34.5 -14t14.5 -35v-255q23 13 50.5 19.5t55.5 6.5h60q45 0 85.5 -16.5t72.5 -48.5z
M332 -79q22 0 41.5 8.5t34 23t23 33.5t8.5 41v188q-1 21 -10 40t-23.5 33t-33.5 22t-40 8h-60q-45 0 -74.5 -30t-31.5 -73v-188q0 -22 8.5 -41t22.5 -33.5t33.5 -23t41.5 -8.5h60z" />
    <glyph glyph-name="c" unicode="c" horiz-adv-x="481" 
d="M395 434q20 0 34 -14.5t14 -34.5v-19q0 -20 -14 -34t-34 -14h-159q-35 0 -59 -24.5t-24 -59.5v-229q0 -18 6.5 -33t17.5 -26.5t26.5 -18t32.5 -6.5h159q20 0 34 -14t14 -34v-20q0 -20 -14 -34t-34 -14h-159q-83 0 -140 59q-29 28 -44 64t-15 77v229q0 41 15 77t44 64
q28 28 63.5 43.5t76.5 15.5h159v0z" />
    <glyph glyph-name="d" unicode="d" horiz-adv-x="582" 
d="M489 712q20 0 34 -14t14 -35v-636q0 -45 -16.5 -85t-48.5 -71q-32 -32 -72 -49t-85 -17h-60q-45 0 -85.5 17t-72.5 49q-32 31 -48.5 71t-16.5 85v191q2 42 18.5 81t46.5 70q32 32 72.5 48.5t85.5 16.5h60q28 0 55.5 -6.5t50.5 -19.5v255q0 21 14.5 35t34.5 14h19z
M315 -79q22 0 41.5 8.5t33.5 23t22.5 33.5t8.5 41v188q-2 43 -31.5 73t-74.5 30h-60q-44 0 -74.5 -30t-32.5 -73v-188q0 -22 8.5 -41t23 -33.5t34 -23t41.5 -8.5h60z" />
    <glyph glyph-name="e" unicode="e" horiz-adv-x="570" 
d="M351 433q35 -3 66 -17.5t56 -40.5q29 -28 43.5 -64t14.5 -77v-20q0 -40 -14.5 -76.5t-43.5 -64.5q-25 -26 -57 -41t-67 -17h-142q-20 0 -33.5 13.5t-13.5 33.5v20q0 20 13.5 34t33.5 14h125q17 0 32 6.5t26.5 18t18 26.5t6.5 33v20q0 35 -24 59.5t-59 24.5h-104
q-35 0 -59 -24.5t-24 -59.5v-229q0 -18 6.5 -33t17.5 -26.5t26.5 -18t32.5 -6.5h159q20 0 34 -14t14 -34v-20q0 -20 -14 -34t-34 -14h-159q-41 0 -77 15t-64 44q-28 28 -43 64t-15 77v229q0 41 15 77t43 64t64 43.5t77 15.5h113q8 0 11 -1h-1z" />
    <glyph glyph-name="f" unicode="f" horiz-adv-x="369" 
d="M400 644q0 -20 -14 -34t-34 -14h-90q-45 0 -75.5 -30.5t-30.5 -75.5v-56h116q21 0 35 -14.5t14 -34.5v-19q0 -20 -14 -34t-35 -14h-116v-465q0 -20 -14.5 -34t-34.5 -14h-18q-21 0 -35 14t-14 34v637q0 45 16.5 85t48.5 72q65 65 157 65h90q20 0 34 -14t14 -35v-19v0z
" />
    <glyph glyph-name="g" unicode="g" horiz-adv-x="572" 
d="M467 369q32 -32 48.5 -72.5t16.5 -84.5v-470q0 -40 -15 -76.5t-43 -64.5q-25 -25 -56.5 -39.5t-66.5 -17.5q-3 -1 -10 -1h-133q-20 0 -34.5 13.5t-14.5 33.5v20q0 20 14.5 34.5t34.5 14.5h125q34 0 58.5 24t24.5 59v90q-24 -14 -51.5 -20.5t-55.5 -6.5h-60
q-45 0 -85.5 17t-71.5 49q-30 30 -47 68.5t-18 81.5v191q0 44 17 84.5t48 72.5t71.5 48.5t85.5 16.5h60q45 0 85.5 -16.5t72.5 -48.5zM416 212q0 22 -8.5 41t-22.5 33.5t-34 23t-42 8.5h-60q-22 0 -41 -8.5t-33.5 -23t-23 -33.5t-8.5 -41v-189q2 -42 32 -72t74 -30h60
q45 0 75 30t32 72v189z" />
    <glyph glyph-name="h" unicode="h" horiz-adv-x="577" 
d="M540 -147q0 -20 -14 -34t-35 -14h-19q-20 0 -34 14t-14 34v362q-1 21 -10 40t-23 33t-33 22t-41 8h-60q-44 0 -74 -30t-32 -73v-362q0 -20 -14.5 -34t-34.5 -14h-19q-20 0 -34 14t-14 34v810q0 21 14 35t34 14h19q20 0 34.5 -14t14.5 -35v-255q23 13 50.5 19.5t55.5 6.5
h60q45 0 85.5 -16.5t72.5 -48.5q30 -31 46.5 -70t18.5 -81v-365z" />
    <glyph glyph-name="i" unicode="i" horiz-adv-x="220" 
d="M171 -147q0 -20 -14.5 -34t-34.5 -14h-19q-20 0 -34 14t-14 34v540q0 20 14 34.5t34 14.5h19q20 0 34.5 -14.5t14.5 -34.5v-540zM75 568q-20 0 -34 14t-14 34v19q0 20 14 34.5t34 14.5h75q21 0 35 -14.5t14 -34.5v-19q0 -20 -14 -34t-35 -14h-75z" />
    <glyph glyph-name="j" unicode="j" horiz-adv-x="349" 
d="M229 442q20 0 33.5 -14.5t13.5 -34.5v-612q-6 -73 -58 -123q-25 -25 -57 -40.5t-67 -17.5q-3 -1 -7 -1h-67q-20 0 -34 14t-14 34v19q0 21 14 35t34 14h58q35 0 58.5 24.5t23.5 59.5v594q0 20 14.5 34.5t34.5 14.5h20zM257 684q20 0 33.5 -14.5t13.5 -34.5v-19
q0 -20 -13.5 -34t-33.5 -14h-76q-20 0 -34.5 14t-14.5 34v19q0 20 14.5 34.5t34.5 14.5h76z" />
    <glyph glyph-name="k" unicode="k" horiz-adv-x="567" 
d="M512 442q23 0 29 -16.5t-17 -37.5l-275 -264q69 -67 137.5 -132.5t137.5 -131.5q23 -23 17 -38.5t-29 -15.5h-58q-20 0 -36 13t-35 31l-211 203q-6 -5 -11 -9t-10 -6v-185q0 -20 -14.5 -34t-34.5 -14h-18q-20 0 -34.5 14t-14.5 34v810q0 21 14.5 35t34.5 14h18
q20 0 34.5 -14t14.5 -35v-489q5 5 8.5 9t8.5 9q51 49 107.5 103t107.5 103q19 17 35 30.5t36 13.5h58v0z" />
    <glyph glyph-name="l" unicode="l" horiz-adv-x="359" 
d="M291 -79q21 0 35 -14t14 -34v-20q0 -20 -14 -34t-35 -14h-65q-6 0 -9 1q-36 2 -67 17t-56 41q-25 25 -39.5 57t-17.5 66q-1 3 -1 9v667q0 21 14 35t34 14h20q20 0 33.5 -14t13.5 -35v-658q0 -35 24.5 -59.5t59.5 -24.5h56v0z" />
    <glyph glyph-name="m" unicode="m" horiz-adv-x="962" 
d="M922 -147q0 -20 -14 -34t-35 -14h-19q-20 0 -34 14t-14 34v362q-2 43 -32 73t-75 30h-60q-45 0 -74.5 -30t-31.5 -73v-362q0 -20 -14.5 -34t-34.5 -14h-19q-20 0 -34 14t-14 34v362q-2 43 -32.5 73t-74.5 30h-60q-45 0 -74.5 -30t-31.5 -73v-362q0 -20 -14.5 -34
t-34.5 -14h-19q-20 0 -34 14t-14 34v540q0 20 14 34.5t34 14.5h19q17 0 29.5 -10t17.5 -25q24 13 51.5 20t56.5 7h60q45 0 85.5 -16.5t72.5 -48.5l6 -9l8 9q31 32 71.5 48.5t85.5 16.5h60q45 0 85.5 -16.5t72.5 -48.5q30 -31 46.5 -70t18.5 -81v-365z" />
    <glyph glyph-name="n" unicode="n" horiz-adv-x="587" 
d="M545 -147q0 -20 -14.5 -34t-34.5 -14h-19q-20 0 -34 14t-14 34v362q-2 43 -32.5 73t-74.5 30h-60q-45 0 -74.5 -30t-31.5 -73v-362q0 -20 -14.5 -34t-34.5 -14h-19q-20 0 -34 14t-14 34v540q0 20 14 34.5t34 14.5h19q17 0 29.5 -10t17.5 -25q24 13 51.5 20t56.5 7h60
q45 0 85.5 -16.5t72.5 -48.5q30 -31 46.5 -70t18.5 -81v-365z" />
    <glyph glyph-name="o" unicode="o" horiz-adv-x="565" 
d="M472 369q31 -31 47.5 -70.5t17.5 -83.5v-188q0 -45 -16.5 -85t-48.5 -71q-32 -32 -72 -49t-85 -17h-61q-45 0 -85 17t-72 49q-32 31 -48.5 71t-16.5 85v191q2 42 18.5 81t46.5 70q32 32 72 48.5t85 16.5h61q45 0 85 -16.5t72 -48.5zM315 -79q22 0 41.5 8.5t33.5 23
t22.5 33.5t8.5 41v188q-2 43 -31.5 73t-74.5 30h-61q-21 0 -40 -8t-33.5 -22t-23 -33t-9.5 -40v-188q0 -22 8.5 -41t23 -33.5t33.5 -23t41 -8.5h61z" />
    <glyph glyph-name="p" unicode="p" horiz-adv-x="565" 
d="M313 434q45 0 85 -16.5t72 -48.5t48.5 -72.5t16.5 -84.5v-191q-2 -43 -18 -81.5t-47 -68.5q-32 -32 -72 -49t-85 -17h-61q-29 0 -55 6t-51 21v-257q0 -20 -14 -34t-35 -14h-19q-20 0 -34 14t-14 34v637q0 44 17 84.5t48 72.5q32 32 72 48.5t85 16.5h61zM419 212
q0 22 -8.5 41t-22.5 33.5t-33.5 23t-41.5 8.5h-61q-22 0 -41 -8.5t-33.5 -23t-23 -33.5t-8.5 -41v-189q2 -42 32 -72t74 -30h61q44 0 74 30t32 72v189z" />
    <glyph glyph-name="q" unicode="q" horiz-adv-x="570" 
d="M467 369q32 -32 48.5 -72.5t16.5 -84.5v-637q0 -20 -14 -34t-34 -14h-19q-20 0 -34.5 14t-14.5 34v257q-23 -14 -50.5 -20.5t-55.5 -6.5h-60q-45 0 -85.5 17t-72.5 49q-30 30 -46.5 68.5t-18.5 81.5v191q0 44 17 84.5t48 72.5q32 32 72.5 48.5t85.5 16.5h60
q45 0 85.5 -16.5t71.5 -48.5zM416 212q0 22 -8.5 41t-22.5 33.5t-33.5 23t-41.5 8.5h-60q-22 0 -41.5 -8.5t-34 -23t-23 -33.5t-8.5 -41v-189q2 -42 32.5 -72t74.5 -30h60q45 0 74.5 30t31.5 72v189z" />
    <glyph glyph-name="r" unicode="r" horiz-adv-x="418" 
d="M346 434q21 0 35 -14.5t14 -34.5v-19q0 -20 -14 -34t-35 -14h-94q-44 0 -74 -30t-32 -73v-362q0 -20 -14 -34t-34 -14h-19q-20 0 -34.5 14t-14.5 34v540q0 20 14.5 34.5t34.5 14.5h19q17 0 29.5 -10t16.5 -25q24 13 52 20t56 7h94v0z" />
    <glyph glyph-name="s" unicode="s" horiz-adv-x="471" 
d="M388 139q53 -50 53 -151q0 -62 -32 -106q-28 -35 -70 -55q-34 -15 -60.5 -18t-34.5 -3q-6 0 -22.5 0.5t-35.5 4.5q-35 6 -64.5 19.5t-49.5 32.5q-36 36 -42 83v33q0 20 14 34t34 14h19q20 0 33.5 -14t13.5 -34v-16q0 -12 7 -18q16 -16 54 -22q16 -3 27.5 -3.5t12.5 -0.5
q2 0 17.5 2t30.5 10q35 17 35 57q0 51 -17 68q-8 7 -20 10.5t-29 5.5l-26 3q-26 2 -58 6.5t-62 18.5q-44 24 -63 58q-23 37 -23 87q0 36 9 65q12 39 38 65q14 15 31.5 26.5t38.5 18.5q40 14 96 14q34 0 60 -7.5t45.5 -18.5t33 -25.5t21.5 -27.5q13 -19 18 -38t7 -30v-50
q0 -20 -13.5 -33.5t-33.5 -13.5h-18q-20 0 -33.5 13.5t-13.5 33.5v34q0 2 -2 9t-7 16q-19 24 -64 24q-63 0 -84 -23q-15 -15 -15 -52q0 -29 18 -40q10 -7 30 -10.5t52 -6.5q2 0 4.5 -0.5t5.5 -0.5q7 0 13 -0.5t12 -1.5q28 -4 56 -13.5t53 -32.5z" />
    <glyph glyph-name="t" unicode="t" horiz-adv-x="367" 
d="M296 -79q21 0 35 -14t14 -34v-20q0 -20 -14 -34t-35 -14h-65q-6 0 -9 1q-35 2 -66.5 17t-56.5 41q-26 25 -40.5 57t-16.5 66q-1 3 -1 9v519q0 20 14 33.5t34 13.5h19q20 0 34 -13.5t14 -33.5v-81h127q20 0 34 -14.5t14 -34.5v-19q0 -20 -14 -34t-34 -14h-127v-313
q0 -35 24.5 -59.5t59.5 -24.5h56v0z" />
    <glyph glyph-name="u" unicode="u" horiz-adv-x="592" 
d="M498 434q20 0 34.5 -14.5t14.5 -34.5v-532q0 -20 -14.5 -34t-34.5 -14h-19q-17 0 -29.5 9.5t-16.5 25.5q-50 -27 -109 -27h-60q-45 0 -85.5 17t-72.5 48q-30 30 -46.5 69t-17.5 82v356q0 20 14 34.5t34 14.5h19q20 0 34.5 -14.5t14.5 -34.5v-354q2 -42 31.5 -72t74.5 -30
h60q21 0 40 8t33.5 22t23.5 32.5t10 39.5v354q0 20 14 34.5t34 14.5h19v0z" />
    <glyph glyph-name="v" unicode="v" horiz-adv-x="524" 
d="M460 434q20 0 31 -15t5 -36l-162 -532q-5 -19 -18 -32.5t-33 -13.5h-47q-21 0 -33 13.5t-18 32.5l-161 532q-6 21 4.5 36t30.5 15h29q20 0 33 -14t19 -33q31 -103 60 -197.5t59 -197.5l121 395q6 19 18.5 33t32.5 14h29v0z" />
    <glyph glyph-name="w" unicode="w" horiz-adv-x="886" 
d="M821 434q21 0 31.5 -15t4.5 -36l-161 -532q-6 -19 -18.5 -32.5t-32.5 -13.5h-48q-21 0 -32.5 13.5t-17.5 32.5l-112 368q-28 -94 -56 -184t-56 -184q-6 -19 -18 -32.5t-32 -13.5h-48q-20 0 -32.5 13.5t-18.5 32.5l-161 532q-6 21 4.5 36t31.5 15h29q19 0 32 -14t19 -33
q30 -103 59 -197.5t60 -197.5l121 395q6 19 18.5 33t31.5 14h31q20 0 32.5 -14t18.5 -33q31 -103 60 -197.5t60 -197.5l120 395q6 19 19 33t32 14h29v0z" />
    <glyph glyph-name="x" unicode="x" horiz-adv-x="486" 
d="M458 -143q11 -20 10 -36t-23 -16h-54q-20 0 -30 12.5t-21 29.5l-2 6l1 -4l-98 168l-100 -168l-2 -4q-10 -16 -19.5 -28t-29.5 -12h-54q-22 0 -22.5 16t10.5 36q38 64 77.5 131.5t77.5 132.5l-154 260q-14 23 -7 38t30 15h43q20 0 30.5 -13.5t21.5 -31.5
q25 -42 48.5 -82.5t49.5 -82.5q24 41 48.5 83t48.5 82q11 18 21.5 31.5t30.5 13.5h43q23 0 30 -15t-6 -38l-155 -260z" />
    <glyph glyph-name="y" unicode="y" horiz-adv-x="592" 
d="M528 434q21 0 30.5 -15t1.5 -36q-30 -84 -64.5 -178t-70 -190.5t-70 -191t-65.5 -178.5q-7 -18 -15.5 -32.5t-28.5 -14.5h-53q-22 0 -26.5 15t2.5 36l66 177q-4 6 -6 11t-4 11q0 1 -0.5 2t-0.5 2v-1l-196 532q-7 21 2 36t31 15h44q20 0 28 -13.5t16 -33.5l146 -398
l146 398q6 18 14.5 32.5t29.5 14.5h43v0z" />
    <glyph glyph-name="z" unicode="z" horiz-adv-x="524" 
d="M444 -79q20 0 34 -14t14 -34v-20q0 -20 -14 -34t-34 -14h-399q-21 0 -28.5 20.5t6.5 42.5q73 111 149 224.5t150 225.5h-244q-20 0 -33.5 14t-13.5 34v19q0 20 13.5 34.5t33.5 14.5h371q9 0 16.5 -7t12 -17.5t4.5 -22t-5 -20.5l-295 -446h262v0z" />
    <glyph glyph-name="braceleft" unicode="{" horiz-adv-x="465" 
d="M271 577q-30 -32 -30 -73v-119q0 -40 -7 -64t-16 -37t-18.5 -17t-14.5 -4q4 0 13.5 -4t19 -16.5t16.5 -36.5t7 -65v-126q0 -43 30 -73q31 -31 73 -31h41q17 0 29.5 -12.5t12.5 -29.5v-28q0 -18 -12.5 -30.5t-29.5 -12.5h-41q-45 0 -84.5 17t-69 46.5t-46.5 69t-17 84.5
v119q0 2 0.5 3.5t0.5 3.5h-1q0 18 -5 32q-5 12 -16.5 22.5t-34.5 10.5q-17 0 -29.5 12.5t-12.5 30.5v28q0 18 12.5 30.5t29.5 12.5q20 0 31.5 8t17 18.5t6.5 20.5t1 15v122q0 45 17 84t46.5 68.5t69 46.5t84.5 17h41q17 0 29.5 -12t12.5 -30v-28q0 -18 -12.5 -30.5
t-29.5 -12.5h-41q-41 0 -73 -30z" />
    <glyph glyph-name="bar" unicode="|" horiz-adv-x="289" 
d="M202 726v-845q0 -17 -12.5 -29.5t-29.5 -12.5h-28q-18 0 -30.5 12.5t-12.5 29.5v845q0 18 12.5 30.5t30.5 12.5h28q17 0 29.5 -12.5t12.5 -30.5z" />
    <glyph glyph-name="braceright" unicode="}" horiz-adv-x="471" 
d="M198 577q-32 30 -73 30h-41q-17 0 -29.5 12.5t-12.5 30.5v28q0 18 12.5 30t29.5 12h41q45 0 84.5 -17t69 -46.5t46.5 -68.5t17 -84v-122q0 -5 1 -15t6.5 -20.5t17 -18.5t31.5 -8q17 0 29.5 -12.5t12.5 -30.5v-28q0 -18 -12.5 -30.5t-29.5 -12.5q-23 0 -34.5 -10.5
t-16.5 -22.5q-5 -14 -5 -32h-1q0 -2 0.5 -3.5t0.5 -3.5v-119q0 -45 -17 -84.5t-46.5 -69t-69 -46.5t-84.5 -17h-41q-17 0 -29.5 12.5t-12.5 30.5v28q0 17 12.5 29.5t29.5 12.5h41q42 0 73 31q30 30 30 73v126q0 40 7 63.5t16 36.5t18 17t14 5q-4 0 -13 4t-18.5 16.5
t-16.5 36.5t-7 65v119q0 41 -30 73z" />
    <glyph glyph-name="asciitilde" unicode="~" horiz-adv-x="904" 
d="M856 422q19 -14 27 -32t-6 -37q-20 -26 -48.5 -52t-56.5 -43q-56 -31 -117 -40q-23 -3 -45 -3q-41 0 -77 10q-63 15 -115 55q-35 26 -75.5 35t-81 3t-77 -27t-61.5 -55q-8 -11 -18 -15.5t-23 -4.5q-19 0 -34 12q-19 14 -27 32t6 37q20 26 48.5 52t56.5 43q53 31 116 40
q32 5 62.5 3t60.5 -10q32 -8 60.5 -21.5t54.5 -33.5q33 -25 72.5 -35t81.5 -4q41 5 81 31t65 59q14 19 32.5 17t37.5 -16z" />
    <glyph glyph-name="exclamdown" unicode="&#xa1;" horiz-adv-x="700" 
d="M315 635q0 14 10 24t24 10t24.5 -10t10.5 -24t-10.5 -24.5t-24.5 -10.5t-24 10.5t-10 24.5zM379 -53q0 -14 -14 -14h-31q-14 0 -14 14l10 537q0 14 14 14h11q14 0 14 -14z" />
    <glyph glyph-name="cent" unicode="&#xa2;" horiz-adv-x="700" 
d="M236 27q-36 21 -62.5 52t-44.5 69.5t-27 82.5t-9 91q0 64 16.5 123.5t50 104.5t85 72t120.5 27q39 0 74 -10.5t64 -28.5l43 94l26 -10l-46 -99q35 -28 56 -64t24 -74h-36q-3 32 -18 60t-39 49l-241 -523q41 -19 93 -19q45 0 80 17t60.5 45.5t41 66t20.5 77.5h38
q-5 -50 -23 -93.5t-48.5 -75t-73 -49.5t-94.5 -18q-30 0 -57 5.5t-50 15.5l-47 -103l-23 11zM130 322q0 -34 6 -72t20 -74.5t37 -68t56 -52.5l242 528q-26 17 -58 27t-67 10q-69 0 -114.5 -29.5t-72.5 -73.5t-38 -96.5t-11 -98.5z" />
    <glyph glyph-name="cent" unicode="&#xffe0;" horiz-adv-x="700" 
d="M236 27q-36 21 -62.5 52t-44.5 69.5t-27 82.5t-9 91q0 64 16.5 123.5t50 104.5t85 72t120.5 27q39 0 74 -10.5t64 -28.5l43 94l26 -10l-46 -99q35 -28 56 -64t24 -74h-36q-3 32 -18 60t-39 49l-241 -523q41 -19 93 -19q45 0 80 17t60.5 45.5t41 66t20.5 77.5h38
q-5 -50 -23 -93.5t-48.5 -75t-73 -49.5t-94.5 -18q-30 0 -57 5.5t-50 15.5l-47 -103l-23 11zM130 322q0 -34 6 -72t20 -74.5t37 -68t56 -52.5l242 528q-26 17 -58 27t-67 10q-69 0 -114.5 -29.5t-72.5 -73.5t-38 -96.5t-11 -98.5z" />
    <glyph glyph-name="sterling" unicode="&#xa3;" horiz-adv-x="700" 
d="M623 109q-8 -35 -19 -62.5t-27.5 -46.5t-39.5 -28.5t-56 -9.5t-79.5 31t-98.5 73q-3 -20 -13 -40t-26.5 -36t-38.5 -25.5t-49 -9.5q-45 0 -72 25.5t-27 71.5q0 45 31.5 71t79.5 26q21 0 40 -5t39 -16q0 16 -1.5 36t-4.5 41t-7 40.5t-8 35.5h-151v36h140l-13 39
q-7 21 -12.5 43.5t-9 45t-3.5 42.5q0 85 53 132.5t144 47.5q37 0 69 -12.5t55.5 -36.5t37 -59.5t13.5 -82.5h-38q0 33 -8.5 62t-25.5 50.5t-44 34t-64 12.5q-29 0 -56.5 -8.5t-49 -26.5t-35 -47t-13.5 -69q0 -37 12.5 -78t28.5 -89h307v-36h-296q11 -48 16.5 -93.5
t2.5 -81.5q20 -15 43 -34t46.5 -36.5t45.5 -29t40 -11.5q17 0 33.5 3t31 15.5t26 37.5t19.5 68zM267 85q-19 14 -38.5 23.5t-47.5 9.5q-26 0 -48.5 -19t-22.5 -48t18 -46.5t48 -17.5q18 0 34.5 4.5t29 16t20 30t7.5 47.5z" />
    <glyph glyph-name="sterling" unicode="&#xffe1;" horiz-adv-x="700" 
d="M623 109q-8 -35 -19 -62.5t-27.5 -46.5t-39.5 -28.5t-56 -9.5t-79.5 31t-98.5 73q-3 -20 -13 -40t-26.5 -36t-38.5 -25.5t-49 -9.5q-45 0 -72 25.5t-27 71.5q0 45 31.5 71t79.5 26q21 0 40 -5t39 -16q0 16 -1.5 36t-4.5 41t-7 40.5t-8 35.5h-151v36h140l-13 39
q-7 21 -12.5 43.5t-9 45t-3.5 42.5q0 85 53 132.5t144 47.5q37 0 69 -12.5t55.5 -36.5t37 -59.5t13.5 -82.5h-38q0 33 -8.5 62t-25.5 50.5t-44 34t-64 12.5q-29 0 -56.5 -8.5t-49 -26.5t-35 -47t-13.5 -69q0 -37 12.5 -78t28.5 -89h307v-36h-296q11 -48 16.5 -93.5
t2.5 -81.5q20 -15 43 -34t46.5 -36.5t45.5 -29t40 -11.5q17 0 33.5 3t31 15.5t26 37.5t19.5 68zM267 85q-19 14 -38.5 23.5t-47.5 9.5q-26 0 -48.5 -19t-22.5 -48t18 -46.5t48 -17.5q18 0 34.5 4.5t29 16t20 30t7.5 47.5z" />
    <glyph glyph-name="currency" unicode="&#xa4;" horiz-adv-x="700" 
d="M-25 -16l120 106q-37 42 -55 96t-18 114q0 57 16.5 108.5t50.5 94.5l-109 96l20 19l106 -97q47 51 108 75.5t130 24.5q72 0 135 -29t109 -79l118 103l20 -18l-120 -106q31 -41 45.5 -89.5t14.5 -103.5q0 -56 -16 -107t-50 -93l118 -107l-16 -18l-120 104
q-45 -46 -106 -73.5t-132 -27.5q-69 0 -127.5 25.5t-103.5 68.5l-121 -108zM344 592q-61 0 -114.5 -22.5t-93 -61.5t-62 -92.5t-22.5 -115.5q0 -59 22 -112.5t61 -94t92.5 -64t116.5 -23.5q62 0 115.5 23.5t93 64t62 93.5t22.5 112q0 61 -23 114.5t-63 93.5t-93 62.5
t-114 22.5z" />
    <glyph glyph-name="yen" unicode="&#xa5;" horiz-adv-x="700" 
d="M619 219h-247v-258h-44v258h-247v28h245l-77 131h-168v28h151l-154 257h46l152 -257h147l153 257h46l-154 -257h151v-28h-168l-77 -131h245v-28zM294 378l56 -96l56 96h-112z" />
    <glyph glyph-name="yen" unicode="&#xffe5;" horiz-adv-x="700" 
d="M619 219h-247v-258h-44v258h-247v28h245l-77 131h-168v28h151l-154 257h46l152 -257h147l153 257h46l-154 -257h151v-28h-168l-77 -131h245v-28zM294 378l56 -96l56 96h-112z" />
    <glyph glyph-name="section" unicode="&#xa7;" horiz-adv-x="700" 
d="M420 318q-38 50 -68 71t-62 21q-23 0 -32.5 -14t-9.5 -34.5t9 -43t24 -40.5q36 -47 67 -68t51 -21q28 0 39.5 14.5t11.5 34.5t-9 42.5t-21 37.5zM488 254q0 -42 -20 -64t-58 -21q29 -32 42 -65.5t13 -72.5q0 -63 -33.5 -99.5t-88.5 -36.5q-52 0 -86.5 28.5t-34.5 76.5h46
q0 -18 6.5 -32t17 -23t24 -13.5t26.5 -4.5q29 0 49 20t20 63q0 35 -12 72.5t-42 64.5q-24 22 -49.5 45.5t-47 47.5t-35 49.5t-13.5 51.5q0 49 23.5 72t69.5 16q-32 29 -51.5 69.5t-19.5 83.5q0 66 31.5 96.5t85.5 30.5t84 -29t30 -71h-45q0 32 -19.5 53t-53.5 21
q-30 0 -49.5 -20t-19.5 -58q0 -42 15.5 -78.5t53.5 -72.5q23 -22 48 -46t45.5 -49t34 -51.5t13.5 -53.5z" />
    <glyph glyph-name="dieresis" unicode="&#xa8;" horiz-adv-x="700" 
d="M170 657q0 19 13.5 33t31.5 14q19 0 33 -14t14 -33t-14 -32t-33 -13q-18 0 -31.5 13t-13.5 32zM438 657q0 19 13.5 33t31.5 14q19 0 33 -14t14 -33t-14 -32t-33 -13q-18 0 -31.5 13t-13.5 32z" />
    <glyph glyph-name="copyright" unicode="&#xa9;" horiz-adv-x="700" 
d="M556 216q-5 -40 -23 -76t-45.5 -63t-63.5 -43t-76 -16q-58 0 -101.5 22.5t-72.5 60t-43.5 87.5t-14.5 106q0 55 14 105t43 88t72.5 60.5t102.5 22.5q39 0 74.5 -12t63 -34.5t45 -53.5t21.5 -70h-40q-14 61 -55 98.5t-109 37.5q-49 0 -85 -21t-59 -55.5t-34.5 -78
t-11.5 -87.5q0 -43 11.5 -86t34.5 -77.5t59 -56t85 -21.5q29 0 58 13.5t52.5 36t39.5 52t19 61.5h39zM707 298q0 77 -26.5 142.5t-74 113t-113 74t-143.5 26.5q-77 0 -142 -26.5t-112 -74t-74 -113t-27 -142.5t27 -142.5t74 -113t112 -74t142 -26.5q78 0 143.5 26.5t113 74
t74 113t26.5 142.5zM747 298q0 -86 -30 -158.5t-83 -125t-126 -82t-158 -29.5t-157.5 29.5t-125.5 82t-83 125t-30 158.5t30 158.5t83 125t125.5 82t157.5 29.5t158 -29.5t126 -82t83 -125t30 -158.5z" />
    <glyph glyph-name="ordfeminine" unicode="&#xaa;" horiz-adv-x="700" 
d="M499 394q-3 0 -8 -0.5t-10 -0.5q-32 0 -42 19q-10 18 -6 50q-7 -33 -39 -55q-32 -23 -93 -23q-47 0 -77 20t-30 66q0 31 14 50t38.5 30t57 17.5t70.5 14.5q31 5 45 15.5t14 32.5q0 40 -27 56.5t-72 16.5q-39 0 -66 -21t-29 -59h-31q4 49 40 74t93 25q25 0 47 -4t38.5 -15
t26 -29.5t9.5 -47.5v-184q0 -31 31 -31h6v-17zM433 592q-5 -11 -19 -18.5t-29 -9.5q-40 -8 -70 -14.5t-50 -16.5t-30 -24.5t-10 -37.5q0 -68 83 -68q28 0 51.5 9t39.5 25t25 38t9 47v70zM179 295v30h341v-30h-341z" />
    <glyph glyph-name="guillemotleft" unicode="&#xab;" horiz-adv-x="700" 
d="M487 -11q-8 -13 -15 -25l-480 317v43l473 328q5 -6 9 -13t9 -13l-466 -324zM708 -12q-4 -6 -8 -12.5t-7 -11.5l-480 317v43l473 328q5 -6 9 -13t9 -13l-466 -324z" />
    <glyph glyph-name="guillemotleft" unicode="&#x226a;" horiz-adv-x="700" 
d="M487 -11q-8 -13 -15 -25l-480 317v43l473 328q5 -6 9 -13t9 -13l-466 -324zM708 -12q-4 -6 -8 -12.5t-7 -11.5l-480 317v43l473 328q5 -6 9 -13t9 -13l-466 -324z" />
    <glyph glyph-name="logicalnot" unicode="&#xac;" horiz-adv-x="700" 
d="M781 -160h-28v271h-834v28h862v-299z" />
    <glyph glyph-name="logicalnot" unicode="&#xffe2;" horiz-adv-x="700" 
d="M781 -160h-28v271h-834v28h862v-299z" />
    <glyph glyph-name="uni00AD" unicode="&#xad;" horiz-adv-x="700" 
d="M204 294v36h292v-36h-292z" />
    <glyph glyph-name="uni00AD" unicode="&#x2013;" horiz-adv-x="700" 
d="M204 294v36h292v-36h-292z" />
    <glyph glyph-name="degree" unicode="&#xb0;" horiz-adv-x="700" 
d="M350 507q-22 0 -41.5 8.5t-34 23t-23 34t-8.5 41.5t8.5 41.5t23 34t34 23t41.5 8.5t41.5 -8.5t34 -23t23 -34t8.5 -41.5t-8.5 -41.5t-23 -34t-34 -23t-41.5 -8.5zM431 614q0 35 -23 58.5t-58 23.5t-58 -23.5t-23 -58.5t23 -58.5t58 -23.5t58 23.5t23 58.5z" />
    <glyph glyph-name="plusminus" unicode="&#xb1;" horiz-adv-x="700" 
d="M120 367q-14 0 -14 14v14q0 14 14 14h209v216q0 14 14 14h14q14 0 14 -14v-216h208q14 0 14 -14v-14q0 -14 -14 -14h-208v-217q0 -14 -14 -14h-14q-14 0 -14 14v217h-209zM120 10q-14 0 -14 14v14q0 14 14 14h459q14 0 14 -14v-14q0 -14 -14 -14h-459z" />
    <glyph glyph-name="uni00B2" unicode="&#xb2;" horiz-adv-x="700" 
d="M426 667q0 -30 -16.5 -49.5t-41.5 -36.5q-26 -18 -40.5 -30.5t-19.5 -28.5h115v-28h-150q5 41 28 64.5t57 46.5q21 14 30.5 28t9.5 34q0 41 -44 41q-23 0 -35 -16.5t-12 -41.5h-29q0 35 21.5 59t56.5 24q32 0 51 -17.5t19 -48.5z" />
    <glyph glyph-name="uni00B3" unicode="&#xb3;" horiz-adv-x="700" 
d="M431 563q0 -32 -23 -51.5t-58 -19.5q-33 0 -57 20.5t-23 58.5h29q-1 -29 15 -41.5t36 -12.5q23 0 38 13t15 33q0 23 -13.5 33t-35.5 10h-17v27h17q17 0 29 10.5t12 29.5q0 17 -12 26t-32 9q-45 0 -48 -52h-28q0 32 21.5 54.5t53.5 22.5t52.5 -16t20.5 -44
q0 -20 -10.5 -35t-30.5 -18q20 -4 34 -19q15 -15 15 -38z" />
    <glyph glyph-name="acute" unicode="&#xb4;" horiz-adv-x="700" 
d="M424 729l-136 -215h-12l90 215h58z" />
    <glyph glyph-name="paragraph" unicode="&#xb6;" horiz-adv-x="700" 
d="M370 338h-50q-36 0 -70.5 10t-61.5 32t-43.5 56.5t-16.5 82.5q0 36 9.5 70.5t32.5 62.5t61.5 45t97.5 17h243v-824h-22v803h-156v-803h-24v448z" />
    <glyph glyph-name="periodcentered" unicode="&#xb7;" horiz-adv-x="700" 
d="M310 331q0 17 11.5 29t27.5 12q17 0 29 -12t12 -29t-12 -28t-29 -11q-16 0 -27.5 11t-11.5 28z" />
    <glyph glyph-name="periodcentered" unicode="&#x30fb;" horiz-adv-x="700" 
d="M310 331q0 17 11.5 29t27.5 12q17 0 29 -12t12 -29t-12 -28t-29 -11q-16 0 -27.5 11t-11.5 28z" />
    <glyph glyph-name="cedilla" unicode="&#xb8;" horiz-adv-x="700" 
d="M447 -121q0 -39 -30.5 -58t-82.5 -19q-23 0 -46 8.5t-36 17.5l12 25q14 -9 31 -14t42 -5q13 0 26.5 1.5t24 6t17.5 12.5t7 22q0 15 -7 23.5t-18 12.5t-25 3.5t-28 -2.5t-22.5 -3.5t-15.5 -4.5l-7 4l40 103h32l-30 -77q11 5 22 8.5t28 3.5q29 0 47.5 -20.5t18.5 -47.5z
" />
    <glyph glyph-name="uni00B9" unicode="&#xb9;" horiz-adv-x="700" 
d="M360 496v172h-49v21q24 2 37 11t16 30h24v-234h-28z" />
    <glyph glyph-name="ordmasculine" unicode="&#xba;" horiz-adv-x="700" 
d="M470 540q0 32 -9 59t-25.5 47t-39 31.5t-50.5 11.5q-27 0 -50 -11.5t-39 -31.5t-25 -47t-9 -59t9 -59t25 -47t39 -31.5t50 -11.5q28 0 50.5 11.5t39 31.5t25.5 47t9 59zM179 295v30h341v-30h-341zM494 540q0 -35 -10.5 -66t-29.5 -54t-46.5 -36.5t-61.5 -13.5t-61 13.5
t-46.5 36.5t-30 54t-10.5 66t10.5 66t30 54t46.5 36.5t61 13.5t61.5 -13.5t46.5 -36.5t29.5 -54t10.5 -66z" />
    <glyph glyph-name="guillemotright" unicode="&#xbb;" horiz-adv-x="700" 
d="M683 302l-466 324l18 26l473 -328v-43l-480 -317l-14 25zM462 302l-466 324l18 26l473 -328v-43l-480 -317l-14 25z" />
    <glyph glyph-name="guillemotright" unicode="&#x226b;" horiz-adv-x="700" 
d="M683 302l-466 324l18 26l473 -328v-43l-480 -317l-14 25zM462 302l-466 324l18 26l473 -328v-43l-480 -317l-14 25z" />
    <glyph glyph-name="onequarter" unicode="&#xbc;" horiz-adv-x="700" 
d="M530 184l-110 -155h110v155zM574 -13v-90h-44v90h-162v42l165 229h41v-229h59v-42h-59zM92 9l-26 24l538 562l27 -24zM161 347v248h-71v34q19 1 32.5 4.5t22.5 12t14.5 23.5t8.5 38h36v-360h-43z" />
    <glyph glyph-name="onehalf" unicode="&#xbd;" horiz-adv-x="700" 
d="M393 -106q1 33 11 55.5t26.5 40.5t38 32.5t44.5 30.5q14 9 25.5 18.5t22.5 20.5q14 14 21 27.5t7 33.5q0 30 -20.5 46.5t-49.5 16.5q-39 0 -56 -26.5t-17 -68.5h-43q-2 60 27 97t89 37q48 0 80.5 -25.5t32.5 -76.5q0 -28 -11 -49.5t-28 -39t-38 -31.5t-41 -28
q-20 -13 -41 -30t-29 -40h191v-41h-242zM91 9l-27 24l538 562l28 -24zM165 347v248h-72v34q19 1 32.5 4.5t22.5 12t14.5 23.5t8.5 38h37v-360h-43z" />
    <glyph glyph-name="threequarters" unicode="&#xbe;" horiz-adv-x="700" 
d="M533 182l-110 -155h110v155zM577 -15v-90h-44v90h-162v42l165 229h41v-229h59v-42h-59zM108 9l-26 24l538 562l27 -24zM300 454q0 -27 -10 -47.5t-27 -34.5t-39 -21.5t-46 -7.5q-55 0 -90.5 32.5t-30.5 95.5h43q-2 -42 18.5 -66.5t58.5 -24.5q32 0 56 19t24 52
q0 32 -21 49t-53 17h-32v40h32q22 0 42 13.5t20 42.5t-19.5 43.5t-48.5 14.5q-35 0 -53.5 -22.5t-16.5 -64.5h-42q0 57 29 91.5t83 34.5q21 0 40.5 -5.5t35 -17.5t25 -29.5t9.5 -41.5q0 -25 -10.5 -45t-31.5 -31q26 -11 40.5 -33.5t14.5 -52.5z" />
    <glyph glyph-name="questiondown" unicode="&#xbf;" horiz-adv-x="700" 
d="M169 118q0 60 28 107q16 28 64 79q23 24 40 44.5t27 37.5q14 23 19.5 56t5.5 60q0 11 1.5 13t11.5 2h21q10 0 11.5 -1.5t1.5 -12.5q0 -32 -7 -68.5t-21 -61.5q-9 -16 -24 -36t-38 -43q-23 -24 -41 -44t-28 -37q-23 -40 -23 -95q0 -30 10 -57.5t30 -47.5t50 -32t70 -10
q26 1 59.5 6t75.5 19q16 4 16 -9l1 -21q0 -14 -13 -17q-40 -10 -75.5 -15.5t-67.5 -5.5q-45 0 -82.5 12t-64.5 36t-42.5 59.5t-15.5 82.5zM411 635q0 -14 -10 -24.5t-24 -10.5t-24.5 10.5t-10.5 24.5t10.5 24t24.5 10t24 -10t10 -24z" />
    <glyph glyph-name="Eth" unicode="&#xd0;" horiz-adv-x="700" 
d="M639 317q0 172 -78.5 250t-240.5 78h-147v-278h137v-30h-137v-348h147q81 0 141 19t99.5 59t59 102t19.5 148zM675 317q0 -87 -22 -153.5t-63 -111.5t-100 -68t-133 -23h-219v376h-113v30h113v306h219q74 0 133 -22.5t100 -67.5t63 -111.5t22 -154.5z" />
    <glyph glyph-name="multiply" unicode="&#xd7;" horiz-adv-x="700" 
d="M545 532q9 9 19 0l10 -10q9 -9 0 -20l-195 -195l195 -195q10 -10 0 -20l-10 -9q-10 -11 -19 0l-196 194l-195 -194q-10 -11 -19 0l-10 9q-10 10 0 20l195 195l-195 195q-9 11 0 20l10 10q9 9 19 0l195 -196z" />
    <glyph glyph-name="Oslash" unicode="&#xd8;" horiz-adv-x="700" 
d="M512 601q-33 29 -74.5 44t-87.5 15q-62 0 -114 -26t-90 -71.5t-59 -108.5t-21 -137q0 -92 30 -165.5t85 -119.5zM634 317q0 87 -28 157.5t-78 117.5l-331 -570q32 -23 69.5 -35.5t83.5 -12.5q60 0 112 26t90.5 72t60 108.5t21.5 136.5zM669 317q0 -91 -25 -160t-68 -116
t-101.5 -71t-124.5 -24q-49 0 -91.5 12.5t-78.5 34.5l-76 -128l-13 11l74 128q-64 47 -99 124.5t-35 188.5q0 90 24 159t67 116.5t101.5 71.5t126.5 24q104 0 180 -56l61 104l16 -9l-62 -104q57 -48 90.5 -124t33.5 -182z" />
    <glyph glyph-name="Thorn" unicode="&#xde;" horiz-adv-x="700" 
d="M484 316q0 59 -24.5 101.5t-62.5 70.5t-86 41t-94 13v-452q45 -1 92 12.5t86 41t63.5 70.5t24.5 102h1zM518 316q0 -63 -25.5 -110.5t-67.5 -79t-96 -47.5t-111 -15v-103h-36v712h35v-105q57 0 111 -15.5t96 -47.5t68 -79t26 -110z" />
    <glyph glyph-name="germandbls" unicode="&#xdf;" horiz-adv-x="700" 
d="M544 494q0 80 -41.5 115.5t-130.5 35.5h-260v-300h260q45 0 77.5 13t53.5 34.5t31 48t10 53.5zM624 132q0 -70 -22 -113.5t-57.5 -68t-79.5 -33t-88 -8.5q-46 0 -85 9t-67.5 29t-45 52t-17.5 78h38q1 -40 17 -65.5t41 -40.5t57 -20.5t66 -5.5q37 0 73.5 6.5t66 26.5
t48 58.5t18.5 101.5q0 35 -15.5 67.5t-44 57.5t-68 40t-87.5 15h-261v-356h-35v710h296q43 0 80.5 -7.5t65.5 -27t44.5 -53t16.5 -85.5q0 -60 -34.5 -105t-99.5 -55q39 -2 71.5 -21.5t56.5 -48.5t37.5 -65t13.5 -72z" />
    <glyph glyph-name="eth" unicode="&#xf0;" horiz-adv-x="700" 
d="M584 223q0 -59 -15 -109.5t-44.5 -87.5t-73 -58t-101.5 -21t-102 22t-73.5 59.5t-44.5 87t-15 105.5q0 55 15 105t44.5 87.5t73.5 59.5t102 22q46 0 84.5 -14t69.5 -37q-17 48 -43.5 83t-55.5 67q-16 -15 -33 -33t-33 -33l-14 14q7 6 13 12t13 12l-2 -1q9 9 19.5 20
t20.5 20q-15 14 -34.5 26t-39.5 26q3 5 6 12t6 12q23 -13 44 -26t41 -29l55 55l7 -7q4 -4 6 -7l-53 -53q81 -80 119 -173t38 -218zM555 221q0 52 -15 98t-42.5 80t-65 53.5t-82.5 19.5q-46 0 -83.5 -19.5t-64.5 -53.5t-42 -80t-15 -98q0 -53 14.5 -98.5t41.5 -79.5t65 -53.5
t84 -19.5q45 0 83 19.5t65 53.5t42 79.5t15 98.5z" />
    <glyph glyph-name="divide" unicode="&#xf7;" horiz-adv-x="700" 
d="M635 306q0 -11 -1.5 -12.5t-12.5 -1.5h-543q-11 0 -12.5 1.5t-1.5 12.5v8q0 11 1.5 12.5t12.5 1.5h543q11 0 12.5 -1.5t1.5 -12.5v-8zM348 557q17 0 29 -11.5t12 -27.5q0 -17 -12 -29t-29 -12t-28 12t-11 29q0 16 11 27.5t28 11.5zM348 145q17 0 29 -11.5t12 -27.5
q0 -17 -12 -29t-29 -12t-28 12t-11 29q0 16 11 27.5t28 11.5z" />
    <glyph glyph-name="oslash" unicode="&#xf8;" horiz-adv-x="700" 
d="M439 445q-23 11 -43 16.5t-46 5.5q-46 0 -83.5 -19t-64.5 -53t-42 -79.5t-15 -97.5q0 -68 23 -122.5t66 -88.5zM555 218q0 71 -24 125t-67 88l-205 -440q44 -22 91 -22q45 0 83 19t65 53t42 79t15 98zM585 218q0 -56 -16 -105t-46 -86.5t-73.5 -59t-99.5 -21.5
q-27 0 -52.5 5.5t-48.5 16.5l-37 -79l-28 12l39 82q-54 37 -81 98.5t-27 136.5q0 55 16 104.5t46 87t73.5 59t99.5 21.5q59 0 99 -22l32 69l28 -12l-34 -71q54 -36 82 -97.5t28 -138.5z" />
    <glyph glyph-name="thorn" unicode="&#xfe;" horiz-adv-x="700" 
d="M527 218q0 52 -15 97.5t-42.5 79t-65 52.5t-82.5 19q-90 0 -150 -71v-353q28 -38 64.5 -55t83.5 -17q46 0 83.5 19t65 52.5t42.5 78.5t16 98zM557 218q0 -56 -16 -105t-46 -86t-73.5 -58.5t-99.5 -21.5q-42 0 -80.5 11t-67.5 43v-138h-32v809h30v-235q26 26 66 39t82 13
q56 0 100 -21.5t74.5 -58.5t46.5 -86.5t16 -104.5z" />
    <glyph glyph-name="dcroat" unicode="&#x111;" horiz-adv-x="700" 
d="M501 220q0 40 -11.5 84.5t-36.5 81t-65 60.5t-97 24q-52 0 -88 -24t-58.5 -60.5t-33 -81t-10.5 -84.5q0 -41 10.5 -85t33 -81t58.5 -61t88 -24q61 0 101.5 24t64.5 61t34 81t10 85zM531 557v-596h-30v137q-9 -37 -28.5 -65t-47.5 -47.5t-61 -29.5t-69 -10q-59 0 -101 23
t-69.5 61t-40.5 87.5t-13 102.5q0 48 13 96.5t40 87.5t69.5 64t102.5 25q32 0 63.5 -10t58.5 -29.5t48.5 -47t34.5 -61.5v212h-101v27h101v89h30v-89h97v-27h-97z" />
    <glyph glyph-name="Hbar" unicode="&#x126;" horiz-adv-x="700" 
d="M584 508h-469v-157h469v157zM620 508v-547h-36v363h-469v-363h-36v547h-45v30h45v135h36v-135h469v135h36v-135h45v-30h-45z" />
    <glyph glyph-name="hbar" unicode="&#x127;" horiz-adv-x="700" 
d="M567 -39v334q0 36 -8.5 68t-27.5 55.5t-48 37.5t-71 14q-39 0 -73.5 -15.5t-60 -42.5t-40.5 -62.5t-15 -75.5v-313h-31v595h-90v26h89v91h30v-91h197v-26h-197v-200q8 30 28 55t46.5 43.5t56.5 28.5t59 10q51 0 86.5 -14.5t57.5 -40t32 -60.5t10 -76v-341h-30z" />
    <glyph glyph-name="dotlessi" unicode="&#x131;" horiz-adv-x="700" 
d="M334 -39v515h32v-515h-32z" />
    <glyph glyph-name="IJ" unicode="&#x132;" horiz-adv-x="700" 
d="M99 -39v712h35v-712h-35zM600 175q0 -121 -48.5 -175.5t-145.5 -54.5q-107 0 -152.5 62.5t-42.5 171.5h37q-4 -103 39 -154t130 -51q71 0 109.5 49t38.5 149v501h35v-498z" />
    <glyph glyph-name="ij" unicode="&#x133;" horiz-adv-x="700" 
d="M245 -39v515h30v-515h-30zM454 -87q0 -50 -18 -81t-67 -31q-11 0 -17.5 0.5t-7.5 -0.5v20q-2 2 3 2.5t11 -0.5q38 -1 52 18t14 64v571h30v-563zM244 593v80h32v-80h-32zM423 593v80h32v-80h-32z" />
    <glyph glyph-name="kgreenlandic" unicode="&#x138;" horiz-adv-x="700" 
d="M521 -39l-224 307l-131 -116v-191h-30v514h30v-285l322 285h51l-216 -187l241 -327h-43z" />
    <glyph glyph-name="Ldot" unicode="&#x13f;" horiz-adv-x="700" 
d="M128 -39v712h36v-684h408v-28h-444zM378 314v80h81v-80h-81z" />
    <glyph glyph-name="ldot" unicode="&#x140;" horiz-adv-x="700" 
d="M235 -39v712h30v-712h-30zM390 318v75h75v-75h-75z" />
    <glyph glyph-name="Lslash" unicode="&#x141;" horiz-adv-x="700" 
d="M210 -39v308l-135 -137l-29 29l164 166v346h36v-311l172 174l28 -29l-200 -202v-316h408v-28h-444z" />
    <glyph glyph-name="lslash" unicode="&#x142;" horiz-adv-x="700" 
d="M366 345v-384h-30v354l-94 -95l-22 21l115 115v317h30v-287l93 92l21 -20z" />
    <glyph glyph-name="napostrophe" unicode="&#x149;" horiz-adv-x="700" 
d="M168 510q0 -21 -7 -41.5t-19.5 -37t-28.5 -27.5t-34 -15v28q29 11 46 35.5t17 62.5h-63v95h88v-100h1zM590 -39v332q0 81 -37.5 127.5t-118.5 46.5q-39 0 -73.5 -16t-60 -43t-40 -63.5t-14.5 -77.5v-306h-32v514h31v-120q7 30 27 54.5t46 42.5t57 28t61 10q51 0 86 -14.5
t57 -39.5t31.5 -59t9.5 -74v-342h-30z" />
    <glyph glyph-name="Eng" unicode="&#x14a;" horiz-adv-x="700" 
d="M621 -29q0 -34 -7.5 -64.5t-26 -54t-48.5 -37.5t-75 -14q-82 0 -119 40.5t-37 116.5h43q0 -34 8.5 -57t23.5 -37.5t36 -20.5t45 -6q53 0 83 33.5t30 84.5l-463 666v-660h-36v712h50l457 -661v661h36v-702z" />
    <glyph glyph-name="eng" unicode="&#x14b;" horiz-adv-x="700" 
d="M540 -70q0 -51 -38 -84t-109 -33q-20 0 -43.5 6t-43.5 21.5t-35 41.5t-19 67h35q3 -60 34 -83.5t79 -23.5q19 0 38 3.5t35 13.5t26 27t10 44v363q0 81 -31.5 127.5t-112.5 46.5q-39 0 -71 -16t-55.5 -43t-36 -63.5t-12.5 -77.5v-306h-31v514h31v-120q7 30 25 54.5
t42 42.5t53 28t59 10q51 0 84 -14.5t52.5 -39.5t27 -59t7.5 -74v-373z" />
    <glyph glyph-name="Tbar" unicode="&#x166;" horiz-adv-x="700" 
d="M366 645v-320h150v-30h-150v-334h-35v334h-156v30h156v320h-245v28h527v-28h-247z" />
    <glyph glyph-name="tbar" unicode="&#x167;" horiz-adv-x="700" 
d="M462 -46q-8 1 -19 0t-25 -1q-57 0 -76 22.5t-19 79.5v241h-84v27h84v105h-86v34h85v168h33v-168h94v-34h-94v-105h91v-27h-91v-242q0 -44 14 -61t52 -16q14 2 25 2t16 -1v-24z" />
    <glyph glyph-name="caron" unicode="&#x2c7;" horiz-adv-x="700" 
d="M350 590l-204 103l17 29l187 -92l187 92l17 -29z" />
    <glyph glyph-name="uni02D0" unicode="&#x2d0;" horiz-adv-x="700" 
d="M276 103l74 75l75 -75h-149zM350 423l-75 76h150z" />
    <glyph glyph-name="uni02D0" unicode="&#x2236;" horiz-adv-x="700" 
d="M276 103l74 75l75 -75h-149zM350 423l-75 76h150z" />
    <glyph glyph-name="breve" unicode="&#x2d8;" horiz-adv-x="700" 
d="M558 700q-39 -60 -89 -85t-119 -25t-119 26t-89 84l30 19q34 -49 76 -71.5t102 -22.5t102.5 22.5t75.5 71.5z" />
    <glyph glyph-name="dotaccent" unicode="&#x2d9;" horiz-adv-x="700" 
d="M409 617q0 -26 -16.5 -42t-42.5 -16t-42.5 16t-16.5 42t16.5 42.5t42.5 16.5t42.5 -16.5t16.5 -42.5z" />
    <glyph glyph-name="ring" unicode="&#x2da;" horiz-adv-x="700" 
d="M350 512q-22 0 -41.5 8.5t-34 23t-23 34t-8.5 41.5t8.5 41.5t23 34t34 23t41.5 8.5t41.5 -8.5t34 -23t23 -34t8.5 -41.5t-8.5 -41.5t-23 -34t-34 -23t-41.5 -8.5zM431 619q0 35 -23 58.5t-58 23.5t-58 -23.5t-23 -58.5t23 -58.5t58 -23.5t58 23.5t23 58.5z" />
    <glyph glyph-name="ogonek" unicode="&#x2db;" horiz-adv-x="700" 
d="M434 -122q-21 -29 -44.5 -48.5t-54.5 -19.5q-35 0 -52 21t-17 49q0 23 18 49t53 51l16 -16q-22 -21 -39 -41.5t-17 -46.5q0 -14 9.5 -25t23.5 -11q31 0 51.5 18t34.5 34z" />
    <glyph glyph-name="tilde" unicode="&#x2dc;" horiz-adv-x="700" 
d="M598 672q-35 -31 -71.5 -46t-81.5 -15q-29 0 -53.5 8.5t-52.5 27.5q-23 14 -42 20.5t-45 6.5q-42 0 -73 -9.5t-63 -35.5l-14 14q33 31 72.5 49t76.5 18q29 0 53.5 -8.5t46.5 -22.5q23 -14 46 -23t47 -9q38 0 71.5 8t66.5 31z" />
    <glyph glyph-name="hungarumlaut" unicode="&#x2dd;" horiz-adv-x="700" 
d="M338 729l-136 -215h-12l90 215h58zM509 729l-136 -215h-12l90 215h58z" />
    <glyph glyph-name="Alpha" unicode="&#x391;" horiz-adv-x="700" 
d="M193 220l-103 -263h-28l277 717h25l273 -717h-28l-103 263h-313zM498 248l-99 258q-14 34 -26 67.5t-22 55.5q-10 -23 -22 -57.5t-25 -66.5l-98 -257h292z" />
    <glyph glyph-name="Beta" unicode="&#x392;" horiz-adv-x="700" 
d="M619 161q0 -52 -18 -89.5t-50 -62t-76.5 -36.5t-97.5 -12h-296v712h296q43 0 82 -7.5t69 -27t47.5 -53t17.5 -85.5q0 -30 -10 -57t-29 -48.5t-45 -36t-58 -19.5q38 -3 69 -17t53 -38t34 -55.5t12 -67.5zM583 153q0 84 -54.5 125t-151.5 41h-260v-330h260q40 0 77.5 8.5
t66 28t45.5 51t17 76.5zM557 495q0 75 -45.5 112.5t-134.5 37.5h-260v-300h260q45 0 78.5 13.5t56 34.5t34 48t11.5 54z" />
    <glyph glyph-name="Gamma" unicode="&#x393;" horiz-adv-x="700" 
d="M150 645v-684h-35v712h470v-28h-435z" />
    <glyph glyph-name="uni0394" unicode="&#x394;" horiz-adv-x="700" 
d="M350 635l-241 -645h482zM63 -39l268 712h38l268 -712h-574z" />
    <glyph glyph-name="Epsilon" unicode="&#x395;" horiz-adv-x="700" 
d="M114 -39v712h464v-28h-428v-300h404v-27h-404v-329h435v-28h-471z" />
    <glyph glyph-name="Zeta" unicode="&#x396;" horiz-adv-x="700" 
d="M83 -39v40l495 644h-464v28h496v-41l-501 -643h507v-28h-533z" />
    <glyph glyph-name="Eta" unicode="&#x397;" horiz-adv-x="700" 
d="M584 -39v363h-469v-363h-36v712h36v-322h469v322h36v-712h-36z" />
    <glyph glyph-name="Theta" unicode="&#x398;" horiz-adv-x="700" 
d="M146 302v36h402v-36h-402zM632 317q0 74 -21.5 136.5t-59 108t-89.5 71t-112 25.5q-62 0 -113.5 -25.5t-89 -71t-58.5 -108t-21 -136.5t20.5 -136.5t58 -108t89 -71t114.5 -25.5q60 0 112 25.5t89.5 71.5t59 108t21.5 136zM669 317q0 -91 -25 -160t-68 -116t-101.5 -71
t-124.5 -24q-68 0 -126.5 24.5t-101.5 71.5t-67 116.5t-24 158.5q0 90 24 159t67 116.5t101.5 71.5t126.5 24q66 0 124.5 -24t101.5 -71.5t68 -116.5t25 -159z" />
    <glyph glyph-name="Iota" unicode="&#x399;" horiz-adv-x="700" 
d="M331 -39v712h37v-712h-37z" />
    <glyph glyph-name="Kappa" unicode="&#x39a;" horiz-adv-x="700" 
d="M572 -39l-305 398l-153 -150v-248h-34v712h35v-418l432 418h49l-299 -287l322 -425h-47z" />
    <glyph glyph-name="Lambda" unicode="&#x39b;" horiz-adv-x="700" 
d="M618 -39l-268 704l-268 -704h-38l280 712h52l280 -712h-38z" />
    <glyph glyph-name="Mu" unicode="&#x39c;" horiz-adv-x="700" 
d="M648 -39v686l-275 -686h-46l-275 686v-686h-37v712h66l269 -672l269 672h66v-712h-37z" />
    <glyph glyph-name="Nu" unicode="&#x39d;" horiz-adv-x="700" 
d="M571 -39l-457 660v-660h-36v712h50l457 -661v661h36v-712h-50z" />
    <glyph glyph-name="Xi" unicode="&#x39e;" horiz-adv-x="700" 
d="M62 -39v28h576v-28h-576zM172 316v28h356v-28h-356zM67 645v28h566v-28h-566z" />
    <glyph glyph-name="Omicron" unicode="&#x39f;" horiz-adv-x="700" 
d="M634 317q0 74 -21.5 137t-60 108.5t-90.5 71.5t-112 26q-62 0 -114 -26t-90 -71.5t-59 -108.5t-21 -137t21 -137t58.5 -109t89.5 -71.5t115 -25.5q60 0 112 26t90.5 72t60 108.5t21.5 136.5zM669 317q0 -91 -25 -160t-68 -116t-101.5 -71t-124.5 -24q-68 0 -126.5 24.5
t-101.5 71.5t-67 116.5t-24 158.5q0 90 24 159t67 116.5t101.5 71.5t126.5 24q66 0 124.5 -24t101.5 -71.5t68 -116.5t25 -159z" />
    <glyph glyph-name="Pi" unicode="&#x3a0;" horiz-adv-x="700" 
d="M561 -39v684h-423v-684h-35v712h494v-712h-36z" />
    <glyph glyph-name="Rho" unicode="&#x3a1;" horiz-adv-x="700" 
d="M568 475q0 83 -46.5 126.5t-121.5 43.5h-268v-341h268q37 0 68 11t53 33t34.5 53.5t12.5 73.5zM604 475q0 -44 -14 -80t-39 -62.5t-60 -41t-77 -14.5h-282v-316h-36v712h318q41 0 75.5 -15t60 -41t40 -62.5t14.5 -79.5z" />
    <glyph glyph-name="Sigma" unicode="&#x3a3;" horiz-adv-x="700" 
d="M94 -39v40l264 333l-264 306v33h495v-29h-454l248 -288v-42l-260 -324h482v-29h-511z" />
    <glyph glyph-name="Tau" unicode="&#x3a4;" horiz-adv-x="700" 
d="M366 645v-684h-35v684h-245v28h527v-28h-247z" />
    <glyph glyph-name="Upsilon" unicode="&#x3a5;" horiz-adv-x="700" 
d="M367 260v-299h-35v300l-274 412h42l250 -378l250 378h42z" />
    <glyph glyph-name="Phi" unicode="&#x3a6;" horiz-adv-x="700" 
d="M331 538q-53 -2 -102.5 -17t-87.5 -42.5t-61 -66.5t-23 -90q0 -52 23 -92.5t61 -68.5t87.5 -43.5t102.5 -17.5v438zM643 322q0 51 -23 90t-61 66.5t-87.5 42.5t-102.5 17v-438q53 2 102.5 17.5t87.5 43.5t61 68.5t23 92.5zM675 322q0 -56 -24.5 -100.5t-66 -76t-97 -49
t-118.5 -20.5v-115h-38v115q-63 3 -118.5 20.5t-97.5 49t-66 76t-24 100.5t24 99.5t65 73.5t97 47t120 20v111h38v-111q63 -3 119 -20t97.5 -47t65.5 -73.5t24 -99.5z" />
    <glyph glyph-name="Chi" unicode="&#x3a7;" horiz-adv-x="700" 
d="M72 -39l256 355l-256 357h43l235 -326l235 326h43l-256 -357l256 -355h-44l-234 325l-234 -325h-44z" />
    <glyph glyph-name="Psi" unicode="&#x3a8;" horiz-adv-x="700" 
d="M678 633q-12 0 -24.5 -6.5t-23 -19.5t-17 -32t-6.5 -43v-179q0 -50 -22 -85t-56.5 -57t-76.5 -31t-83 -7v-212h-38v212q-41 -2 -83 7t-76.5 31t-56.5 57t-22 85v179q0 24 -6.5 43t-17 32t-23 19.5t-24.5 6.5l5 28q16 0 34.5 -9.5t34 -26t25.5 -38t10 -45.5v-189
q0 -42 18 -71.5t47 -47.5t64.5 -25.5t70.5 -5.5v470h38v-470q35 -2 70.5 5.5t64.5 25.5t47 47.5t18 71.5v189q0 24 10 45.5t25.5 38t34 26t34.5 9.5z" />
    <glyph glyph-name="uni03A9" unicode="&#x3a9;" horiz-adv-x="700" 
d="M632 412q0 -104 -46 -173t-148 -91v-158h143v143h47v-172h-234v210q46 13 83.5 33t63 48.5t39.5 67.5t14 92q0 51 -19.5 94t-53 73.5t-78 47.5t-93.5 17q-50 0 -94 -17t-77.5 -47.5t-53 -73.5t-19.5 -94q0 -53 14 -92t40 -67.5t63 -48.5t83 -33v-210h-234v172h47v-143
h143v158q-102 22 -148 91t-46 173q0 59 22.5 108.5t61 85.5t90 56t108.5 20t108.5 -20t90 -56t61 -85.5t22.5 -108.5z" />
    <glyph glyph-name="alpha" unicode="&#x3b1;" horiz-adv-x="700" 
d="M432 221q0 111 -35 176t-99 65q-29 0 -53.5 -16.5t-42.5 -48t-28 -76t-10 -100.5q0 -53 9 -98t26.5 -78t42 -51.5t56.5 -18.5q29 0 53.5 17.5t42.5 50t28 77.5t10 101zM573 19q-5 -43 -18 -56t-42 -13t-49 29t-31 85q-15 -60 -52 -88.5t-82 -28.5q-44 0 -76.5 19
t-53.5 55t-31.5 86.5t-10.5 113.5q0 128 48 198.5t127 70.5q36 0 65.5 -17.5t50.5 -47.5t32.5 -70t11.5 -85l51 211h34l-82 -327q5 -39 11 -72t12.5 -56.5t14 -36.5t14.5 -12q11 1 15.5 17t7.5 38z" />
    <glyph glyph-name="beta" unicode="&#x3b2;" horiz-adv-x="700" 
d="M508 157q0 40 -12 70.5t-30 51.5t-40.5 32t-43.5 11q-16 0 -40 -2.5t-40 -3.5v34q18 -1 40 -2.5t39 -1.5q45 0 72.5 37.5t27.5 114.5q0 30 -9.5 57.5t-27.5 48.5t-45.5 33.5t-63.5 12.5q-70 0 -107.5 -30t-37.5 -104v-471q32 -35 67.5 -50t88.5 -15q37 0 67 15t51 39.5
t32.5 56.5t11.5 66zM545 159q0 -36 -13 -73.5t-37 -68t-59 -50t-79 -19.5q-48 0 -93 12t-74 42v-182h-35v695q0 40 13 70.5t37 51.5t57 32t73 11t74 -14.5t58.5 -39.5t38 -58.5t13.5 -70.5q0 -59 -19 -97t-54 -65q13 -6 30 -21t32.5 -37.5t26 -52.5t10.5 -65z" />
    <glyph glyph-name="gamma" unicode="&#x3b3;" horiz-adv-x="700" 
d="M473 -40q0 16 -8 34.5t-23.5 43.5t-38.5 58.5t-53 80.5q-30 -46 -53 -80t-38.5 -59t-23.5 -43.5t-8 -34.5q0 -32 11.5 -54t29.5 -36t39.5 -20t42.5 -6t42.5 6.5t39.5 20.5t29.5 36t11.5 53zM565 471q-49 -69 -97 -135.5t-97 -135.5q29 -41 56 -81q13 -19 28 -39.5
t27.5 -41t20.5 -40t8 -35.5q0 -38 -14 -65.5t-36.5 -45.5t-51.5 -26.5t-59 -8.5t-59 8.5t-51.5 26.5t-36.5 45.5t-14 65.5q0 18 8.5 37.5t21 39t27.5 39.5t28 40q14 21 27.5 41t27.5 40q-49 69 -97 135.5t-97 135.5h47q43 -62 84.5 -122t83.5 -122q43 62 84.5 122t83.5 122
h47z" />
    <glyph glyph-name="delta" unicode="&#x3b4;" horiz-adv-x="700" 
d="M510 180q0 38 -8 74t-27 64t-50.5 45t-79.5 17q-47 0 -78 -17t-50.5 -44.5t-27.5 -63.5t-8 -75q0 -43 10.5 -79.5t31.5 -63t51.5 -41.5t70.5 -15q84 0 124.5 53.5t40.5 145.5zM555 180q0 -51 -14 -93t-41 -73t-66 -48t-89 -17t-87.5 17.5t-62.5 48.5t-38 73.5t-13 91.5
q0 53 15 98t41 77t61.5 49t76.5 15q-26 15 -48.5 31.5t-39 35t-26 40t-9.5 47.5q0 25 12.5 44.5t32.5 33.5t45 21.5t51 7.5q27 0 53 -9t47 -25t33.5 -38.5t12.5 -48.5h-40q0 50 -29 67.5t-81 17.5q-42 0 -71 -19.5t-29 -55.5q0 -23 23.5 -49t53 -49t57.5 -39.5t37 -20.5
q33 -17 57.5 -38t41 -48.5t25 -63t8.5 -81.5z" />
    <glyph glyph-name="epsilon" unicode="&#x3b5;" horiz-adv-x="700" 
d="M544 95q-17 -77 -70 -112t-126 -35q-36 0 -70.5 9t-61.5 28.5t-44 49t-17 70.5q0 23 8 45.5t22 40.5t32.5 29.5t40.5 12.5q-40 12 -62 42t-22 75q0 33 16.5 59.5t43 45t58.5 28t64 9.5q68 0 116.5 -30.5t61.5 -94.5h-38q-14 47 -46.5 68.5t-93.5 21.5q-29 0 -55 -5.5
t-45.5 -17.5t-31.5 -31.5t-12 -47.5q0 -39 16.5 -61t42.5 -32t58 -12t63 -2v-31q-39 0 -74.5 -4.5t-63 -16.5t-43.5 -33t-16 -53q0 -33 13.5 -57t35.5 -39.5t48.5 -23.5t53.5 -8q64 0 104 29t56 84h38z" />
    <glyph glyph-name="zeta" unicode="&#x3b6;" horiz-adv-x="700" 
d="M531 -84q0 -55 -31.5 -79.5t-82.5 -24.5q-29 0 -63 9t-51 18l9 26q23 -12 48 -18.5t56 -6.5q37 0 58.5 19t21.5 59q0 21 -7.5 35.5t-25.5 24t-47 15t-71 10.5q-36 3 -69.5 15t-56.5 33q-10 9 -19 24.5t-16 32.5t-11 34.5t-4 29.5q0 60 26.5 128t66.5 133t85.5 121
t84.5 91h-246v26h264l13 -39q-35 -36 -79.5 -89.5t-84.5 -115.5t-67.5 -127.5t-27.5 -126.5q0 -26 11 -56t31 -48q25 -22 57 -29.5t83 -12.5q75 -8 110 -35t35 -76z" />
    <glyph glyph-name="eta" unicode="&#x3b7;" horiz-adv-x="700" 
d="M558 -103q-8 -12 -14 -18.5t-12.5 -9t-15.5 -2.5h-21q-23 0 -36.5 5.5t-20.5 15.5t-9.5 24t-2.5 31v362q0 79 -28 119.5t-82 40.5q-30 0 -55.5 -12t-44 -34t-29 -54t-10.5 -72v-331h-36v512h36v-111q4 22 14.5 45t27.5 41t40.5 29t55.5 11q79 0 113 -43.5t34 -131.5v-366
q0 -29 4.5 -41.5t21.5 -12.5q13 0 21.5 10.5t13.5 24.5z" />
    <glyph glyph-name="theta" unicode="&#x3b8;" horiz-adv-x="700" 
d="M184 305q2 -70 12.5 -130t31 -103.5t50.5 -68.5t72 -25q43 0 73 24.5t49.5 68t30 103.5t14.5 131h-333zM517 335q-4 69 -14.5 128t-30.5 102t-50 67t-72 24t-71.5 -24t-49.5 -67t-30.5 -102t-14.5 -128h333zM555 317q0 -86 -10.5 -154.5t-35 -116.5t-63.5 -73.5
t-96 -25.5t-96 25.5t-63 73.5t-35 116.5t-11 154.5t11 154.5t35 116.5t63 73.5t96 25.5t96 -25.5t63.5 -73.5t35 -116.5t10.5 -154.5z" />
    <glyph glyph-name="iota" unicode="&#x3b9;" horiz-adv-x="700" 
d="M452 44q0 -45 -24 -70.5t-78 -25.5q-51 0 -76.5 24t-25.5 78v430h35v-430q0 -39 14.5 -57t53.5 -18q41 0 53 20.5t12 48.5h36z" />
    <glyph glyph-name="kappa" unicode="&#x3ba;" horiz-adv-x="700" 
d="M500 -38l-191 310l-121 -112v-198h-34v518h34v-283l299 283h52l-202 -185l209 -333h-46z" />
    <glyph glyph-name="lambda" unicode="&#x3bb;" horiz-adv-x="700" 
d="M560 5q-5 -40 -28.5 -60.5t-60.5 -20.5q-26 0 -42 8.5t-26.5 25.5t-18 41t-16.5 56l-67 256l-117 -349h-44l142 420l-51 192q-5 22 -12.5 37t-16.5 27q-14 15 -29 19t-26 4v30q14 0 38.5 -6.5t38.5 -18.5q14 -14 27 -34t18 -41l141 -538q12 -45 23.5 -71t32.5 -27
q26 0 37.5 9t13.5 41h43z" />
    <glyph glyph-name="uni03BC" unicode="&#x3bc;" horiz-adv-x="700" 
d="M502 -38v129q-6 -32 -18 -58.5t-33 -45.5t-52 -29t-75 -10q-40 0 -70 9t-56 25v-171h-35v669h35v-352q0 -37 7.5 -66t24.5 -49t44 -30.5t67 -10.5q37 0 67 17t51 46t32 66.5t11 79.5v299h35v-518h-35z" />
    <glyph glyph-name="nu" unicode="&#x3bd;" horiz-adv-x="700" 
d="M395 -38h-49l-135 442q-9 35 -30 43q-14 6 -43 6v27q26 0 43.5 -2.5t28.5 -9.5q15 -8 21 -21t12 -32l127 -438l159 503h32z" />
    <glyph glyph-name="xi" unicode="&#x3be;" horiz-adv-x="700" 
d="M516 -75q0 -24 -9 -44.5t-24.5 -35.5t-36.5 -24t-44 -9q-51 0 -83 24l9 35q5 -7 27.5 -15.5t46.5 -8.5q35 0 58 22.5t23 57.5q0 36 -32 51.5t-102 21.5q-73 4 -119 45t-46 118q0 87 48 141t129 82q-22 12 -38.5 23t-28 23.5t-17.5 28.5t-6 39q0 22 12 43.5t29.5 41t36 35
t30.5 25.5h-174v27h221l5 -26q1 -6 -18.5 -23t-43.5 -39.5t-44.5 -47.5t-20.5 -46q0 -19 14 -34t31 -25.5t32.5 -17.5t18.5 -11v-30q-28 -14 -60 -31.5t-59.5 -41.5t-45.5 -56t-18 -74q0 -66 35 -99t99 -41q79 -7 122 -34t43 -70z" />
    <glyph glyph-name="omicron" unicode="&#x3bf;" horiz-adv-x="700" 
d="M521 218q0 53 -12.5 98t-35 78t-54 51.5t-69.5 18.5q-39 0 -70.5 -18.5t-54 -51.5t-34.5 -78t-12 -98t12 -98t34.5 -78t54 -51.5t70.5 -18.5q38 0 69.5 18.5t54 51.5t35 78t12.5 98zM554 218q0 -56 -13 -105.5t-38.5 -86.5t-63.5 -58t-89 -21t-89.5 21t-64 58t-38 86.5
t-12.5 105.5t12.5 105.5t38 86t64 58t89.5 21.5t89 -21.5t63.5 -58t38.5 -86t13 -105.5z" />
    <glyph glyph-name="pi" unicode="&#x3c0;" horiz-adv-x="700" 
d="M562 33q-6 -45 -25 -65t-64 -20q-39 0 -57 21t-18 70v415h-106v-391q0 -26 -6 -48.5t-17 -36.5q-14 -16 -41.5 -22t-63.5 -6v33q24 0 43 2.5t30 13.5q8 10 12.5 25.5t4.5 35.5v394h-116v26h416v-26h-116v-414q0 -37 8 -48.5t30 -11.5q12 0 19 2t11 8.5t6.5 19t5.5 33.5z
" />
    <glyph glyph-name="rho" unicode="&#x3c1;" horiz-adv-x="700" 
d="M521 218q0 53 -12.5 98t-35 78t-54 51.5t-69.5 18.5q-39 0 -70.5 -18.5t-54 -51.5t-34.5 -78t-12 -98t12 -98t34.5 -78t54 -51.5t70.5 -18.5q38 0 69.5 18.5t54 51.5t35 78t12.5 98zM554 218q0 -56 -13 -105.5t-38.5 -86.5t-63.5 -58t-89 -21q-58 0 -102 25t-69 70v-241
h-33v418q0 56 12.5 105t38 86t64 58t89.5 21t89 -21.5t63.5 -58t38.5 -86t13 -105.5z" />
    <glyph glyph-name="sigma" unicode="&#x3c3;" horiz-adv-x="700" 
d="M515 218q0 53 -12.5 98t-35 78t-54.5 51.5t-70 18.5q-39 0 -70.5 -18.5t-54 -51.5t-34.5 -78t-12 -98t12 -98t34.5 -78t54 -51.5t70.5 -18.5q38 0 70 18.5t54.5 51.5t35 78t12.5 98zM559 466q-14 4 -31 7.5t-34.5 5t-33.5 1t-27 -3.5q57 -35 85.5 -101t28.5 -157
q0 -56 -12.5 -105.5t-38 -86.5t-64 -58t-89.5 -21t-89 21t-63.5 58t-38 86.5t-12.5 105.5q0 49 12.5 93t34.5 79t52 60t65 36q26 8 60.5 12.5t70.5 5.5t68.5 -1.5t55.5 -8.5v-28z" />
    <glyph glyph-name="tau" unicode="&#x3c4;" horiz-adv-x="700" 
d="M329 454v-404q0 -36 16 -48t36 -12q23 0 35.5 11.5t17.5 45.5l27 -7q-7 -42 -26 -60.5t-59 -18.5q-34 0 -58.5 20.5t-24.5 66.5v406h-151v26h416v-26h-229z" />
    <glyph glyph-name="upsilon" unicode="&#x3c5;" horiz-adv-x="700" 
d="M534 149q0 -98 -49 -149t-146 -51q-35 0 -66.5 8t-55.5 25.5t-38 46t-14 70.5v381h36v-381q0 -67 37.5 -93.5t96.5 -26.5q87 0 124 40t37 126q0 39 -4.5 84t-12.5 90t-19.5 86.5t-25.5 72.5l38 10q14 -32 25.5 -75t19.5 -88.5t12.5 -91.5t4.5 -84z" />
    <glyph glyph-name="phi" unicode="&#x3c6;" horiz-adv-x="700" 
d="M333 465q-35 -5 -63.5 -25t-49 -52t-32 -75.5t-11.5 -94.5t11.5 -94.5t32 -75.5t49 -52.5t63.5 -24.5v494zM523 218q0 51 -11 94t-31.5 75.5t-49.5 52.5t-64 25v-494q35 5 64 25t49.5 52.5t31.5 75.5t11 94zM559 218q0 -55 -12.5 -102.5t-37 -83.5t-60.5 -58t-82 -26
v-142h-34v141q-46 4 -82 27t-60.5 59t-37 83.5t-12.5 101.5t12.5 101.5t37 83.5t60.5 58.5t82 27.5v183h34v-184q46 -4 82 -26.5t60.5 -58.5t37 -83.5t12.5 -101.5z" />
    <glyph glyph-name="chi" unicode="&#x3c7;" horiz-adv-x="700" 
d="M376 165l67 -252q5 -16 9 -26.5t10 -17t14.5 -9.5t21.5 -3h64v-22h-50q-45 0 -67.5 18.5t-30.5 45.5l-64 228l-172 -292h-42l202 340l-60 227q-8 25 -20.5 40.5t-33.5 15.5h-65v22h55q45 0 65.5 -13.5t28.5 -48.5l56 -205l157 267h42z" />
    <glyph glyph-name="psi" unicode="&#x3c8;" horiz-adv-x="700" 
d="M568 463q-20 -40 -28.5 -92t-8.5 -115v-158q0 -36 -13 -60t-35.5 -38t-52 -20t-62.5 -6v-168h-37v168q-33 0 -62.5 6t-52 20t-35.5 38t-13 60v158q0 65 -9.5 115t-27.5 92l35 8q17 -38 26 -94.5t9 -124.5v-154q0 -48 30 -73t100 -25v480h37v-480q71 0 100 25t29 73v154
q0 68 9.5 124.5t26.5 94.5z" />
    <glyph glyph-name="omega" unicode="&#x3c9;" horiz-adv-x="700" 
d="M565 175q0 -50 -4.5 -92t-17.5 -72.5t-36.5 -47.5t-61.5 -17q-66 0 -95 85q-27 -85 -96 -85q-36 0 -59 16.5t-36.5 46.5t-19 72.5t-5.5 93.5q0 39 3.5 78t13.5 77.5t27.5 74.5t46.5 69l24 -24q-28 -34 -44 -67t-24.5 -67t-10.5 -68.5t-2 -70.5q0 -110 22.5 -156t62.5 -46
t60 30t20 80v240h33v-240q0 -50 20.5 -80t59.5 -30q40 0 62.5 46t22.5 156q0 36 -2.5 70.5t-10.5 68.5t-24 67t-43 67l24 24q28 -33 45.5 -69t27.5 -74.5t13.5 -77.5t3.5 -78z" />
    <glyph glyph-name="afii10023" unicode="&#x401;" horiz-adv-x="700" 
d="M114 -39v712h464v-28h-428v-300h404v-27h-404v-329h435v-28h-471zM217 723v69h67v-69h-67zM393 723v69h67v-69h-67z" />
    <glyph glyph-name="afii10017" unicode="&#x410;" horiz-adv-x="700" 
d="M350 650l-165 -420h330zM618 -39l-91 242h-354l-91 -242h-38l280 712h52l280 -712h-38z" />
    <glyph glyph-name="afii10018" unicode="&#x411;" horiz-adv-x="700" 
d="M583 153q0 84 -54.5 125t-151.5 41h-261v-330h261q40 0 77.5 8.5t66 28t45.5 51t17 76.5zM618 161q0 -52 -17.5 -89.5t-49.5 -62t-76.5 -36.5t-97.5 -12h-296v712h462v-28h-427v-300h261q53 0 97.5 -11.5t76.5 -35t49.5 -58t17.5 -79.5z" />
    <glyph glyph-name="afii10019" unicode="&#x412;" horiz-adv-x="700" 
d="M619 161q0 -52 -18 -89.5t-50 -62t-76 -36t-97 -11.5h-298v710h296q42 0 81.5 -7.5t69.5 -27t48 -53t18 -85.5q0 -30 -10 -57t-28.5 -48t-45.5 -35.5t-59 -19.5q38 -3 69 -17t53.5 -38t34.5 -55.5t12 -67.5zM584 152q0 84 -55 125t-151 41h-263v-329h261q40 0 77.5 8.5
t66.5 28t46.5 50.5t17.5 76zM558 494q0 76 -46 113.5t-134 37.5h-263v-300h261q45 0 78.5 13t56.5 34.5t34.5 48t12.5 53.5z" />
    <glyph glyph-name="afii10020" unicode="&#x413;" horiz-adv-x="700" 
d="M153 645v-684h-36v712h466v-28h-430z" />
    <glyph glyph-name="afii10021" unicode="&#x414;" horiz-adv-x="700" 
d="M569 644h-338v-251q0 -59 -5.5 -116t-18.5 -109.5t-35 -98t-54 -79.5h451v654zM681 -169q-11 57 -35.5 93.5t-71.5 36.5h-422q-37 0 -59 -8.5t-35.5 -25t-22.5 -41t-19 -55.5h-14l15 126q55 28 90.5 72.5t56.5 100.5t29 123t8 140v280h406v-653q0 -10 8.5 -25t20.5 -29
t25.5 -24t23.5 -10l12 -101h-16z" />
    <glyph glyph-name="afii10022" unicode="&#x415;" horiz-adv-x="700" 
d="M114 -37v711h465v-27h-429v-300h405v-28h-405v-329h436v-27h-472z" />
    <glyph glyph-name="afii10024" unicode="&#x416;" horiz-adv-x="700" 
d="M732 -54q-138 0 -212 94t-75 274h-77v-353h-35v353h-76q-1 -182 -74.5 -275t-213.5 -93v28q61 0 108 26t78 72t47 109t16 136q0 74 -15.5 137t-47 108.5t-78 71.5t-108.5 26v28q134 0 207.5 -88.5t79.5 -257.5h76v331h35v-331h78q4 169 80 257.5t207 88.5v-28
q-62 0 -108.5 -26t-77.5 -71.5t-47 -108.5t-16 -137q0 -73 16 -136t47 -109t77.5 -72t108.5 -26v-28z" />
    <glyph glyph-name="afii10025" unicode="&#x417;" horiz-adv-x="700" 
d="M583 160q0 -54 -21 -93.5t-54.5 -65t-76.5 -37.5t-87 -12q-51 0 -93 16t-72 47t-46 75t-14 101h29q0 -48 15 -88t41 -68.5t61.5 -44.5t77.5 -16t80.5 12.5t67 36.5t45.5 58.5t17 78.5q0 40 -16 70.5t-42.5 51.5t-61.5 31.5t-73 10.5h-51v29h51q29 0 59 9.5t54 28.5
t39.5 45.5t15.5 61.5q0 74 -46 118.5t-137 44.5q-42 0 -74.5 -17t-55.5 -46t-36 -67t-15 -80h-29q-2 45 11 87t40 74.5t66.5 52t91.5 19.5q106 0 159.5 -51t53.5 -135q0 -32 -11.5 -58.5t-29.5 -46t-41.5 -32.5t-47.5 -19q33 -5 61.5 -19t49.5 -37.5t33 -55t12 -70.5z" />
    <glyph glyph-name="afii10026" unicode="&#x418;" horiz-adv-x="700" 
d="M585 -39v606l-471 -549v-57h-36v712h36v-607l471 550v57h36v-712h-36z" />
    <glyph glyph-name="afii10027" unicode="&#x419;" horiz-adv-x="700" 
d="M585 -39v606l-471 -549v-57h-36v712h36v-607l471 550v57h36v-712h-36zM483 788q-21 -44 -52.5 -68t-86.5 -24t-86.5 24t-52.5 68l17 9q17 -34 44 -58t78 -24t78 24t44 58z" />
    <glyph glyph-name="afii10028" unicode="&#x41a;" horiz-adv-x="700" 
d="M572 -39l-305 398l-153 -150v-248h-34v712h35v-418l432 418h49l-299 -287l322 -425h-47z" />
    <glyph glyph-name="afii10029" unicode="&#x41b;" horiz-adv-x="700" 
d="M579 -39v683h-314v-251q0 -75 -4.5 -142.5t-21.5 -125t-49.5 -103t-89.5 -77.5l-18 22q52 31 82.5 73.5t46 95.5t19.5 117t4 140v280h383v-712h-38z" />
    <glyph glyph-name="afii10030" unicode="&#x41c;" horiz-adv-x="700" 
d="M632 -39v686l-259 -686h-46l-259 686v-686h-37v712h66l253 -672l253 672h66v-712h-37z" />
    <glyph glyph-name="afii10031" unicode="&#x41d;" horiz-adv-x="700" 
d="M552 -39v363h-405v-363h-36v712h36v-322h405v322h36v-712h-36z" />
    <glyph glyph-name="afii10032" unicode="&#x41e;" horiz-adv-x="700" 
d="M618 317q0 74 -19 137t-54.5 108.5t-85 71.5t-109.5 26q-62 0 -111.5 -26t-84.5 -71.5t-53.5 -108.5t-18.5 -137t18 -137t52.5 -109t84.5 -71.5t113 -25.5q60 0 109.5 26t85 72t54.5 108.5t19 136.5zM653 317q0 -91 -22.5 -160t-62.5 -116t-96 -71t-122 -24
q-68 0 -124 24.5t-96 71.5t-61.5 116.5t-21.5 158.5q0 90 21.5 159t61.5 116.5t96 71.5t124 24q66 0 122 -24t96 -71.5t62.5 -116.5t22.5 -159z" />
    <glyph glyph-name="afii10033" unicode="&#x41f;" horiz-adv-x="700" 
d="M564 -39v684h-428v-684h-35v712h498v-712h-35z" />
    <glyph glyph-name="afii10034" unicode="&#x420;" horiz-adv-x="700" 
d="M544 475q0 83 -46.5 126.5t-121.5 43.5h-220v-341h220q37 0 68 11t53 33t34.5 53.5t12.5 73.5zM580 475q0 -44 -14 -80t-39 -62.5t-60 -41t-77 -14.5h-234v-316h-36v712h270q41 0 75.5 -15t60 -41t40 -62.5t14.5 -79.5z" />
    <glyph glyph-name="afii10035" unicode="&#x421;" horiz-adv-x="700" 
d="M644 228q-5 -62 -26 -113.5t-56 -89t-83.5 -58.5t-109.5 -21q-79 0 -138 29.5t-98 80.5t-58 118.5t-19 142.5q0 76 18.5 143.5t56.5 118t97 80t139 29.5q47 0 92 -15t81.5 -44t61.5 -72t32 -98h-36q-11 46 -33.5 83t-53 63t-67 40t-75.5 14q-77 0 -130 -31t-86 -80.5
t-47.5 -110.5t-14.5 -120q0 -58 14.5 -118.5t47.5 -110t85.5 -81.5t128.5 -32q54 0 96.5 20.5t73 55.5t48.5 81t22 96h37z" />
    <glyph glyph-name="afii10036" unicode="&#x422;" horiz-adv-x="700" 
d="M366 645v-684h-35v684h-237v28h511v-28h-239z" />
    <glyph glyph-name="afii10037" unicode="&#x423;" horiz-adv-x="700" 
d="M331 36q-14 -34 -37 -57t-66 -23q-20 0 -28 1q-7 1 -8 1v26q8 0 15.5 -0.5t14.5 -0.5q16 0 29 2.5t23.5 11t19.5 23.5t18 40l33 88l-216 525h33l195 -485l179 485h34z" />
    <glyph glyph-name="afii10038" unicode="&#x424;" horiz-adv-x="700" 
d="M333 557q-56 -3 -102.5 -21.5t-80 -50t-52 -74t-18.5 -93.5t18 -93.5t51 -74t79.5 -50.5t103.5 -22zM619 318q0 52 -18.5 94.5t-52.5 74t-81.5 50t-105.5 21.5v-480q57 3 104.5 21.5t81.5 50t52.5 74t18.5 94.5h1zM649 318q0 -55 -22 -102t-60 -81.5t-91 -55.5t-114 -23
v-95h-29v95q-61 3 -113 24.5t-89.5 56.5t-59 81t-21.5 100q0 53 21 99.5t58.5 81.5t89.5 56.5t113 25.5v92h29v-93q62 -2 114.5 -23t91 -55.5t60.5 -81.5t22 -102z" />
    <glyph glyph-name="afii10039" unicode="&#x425;" horiz-adv-x="700" 
d="M72 -39l256 355l-256 357h43l235 -326l235 326h43l-256 -357l256 -355h-44l-234 325l-234 -325h-44z" />
    <glyph glyph-name="afii10040" unicode="&#x426;" horiz-adv-x="700" 
d="M615 -169q-11 57 -35.5 93.5t-71.5 36.5h-439v712h35v-684h402v684h35v-653q0 -10 8 -25t20 -29t25.5 -24t25.5 -10l11 -101h-16z" />
    <glyph glyph-name="afii10041" unicode="&#x427;" horiz-adv-x="700" 
d="M521 -39v308q-8 -30 -27.5 -53.5t-45.5 -39t-56 -24t-59 -8.5q-51 0 -86.5 14.5t-57.5 40t-31.5 60.5t-9.5 76v338h31v-331q0 -36 8.5 -68t27 -55.5t47.5 -37.5t70 -14q40 0 74 15.5t59.5 42.5t40 62.5t14.5 75.5v310h32v-712h-31z" />
    <glyph glyph-name="afii10042" unicode="&#x428;" horiz-adv-x="700" 
d="M45 -39v712h37v-684h248v684h37v-684h252v684h36v-712h-610z" />
    <glyph glyph-name="afii10043" unicode="&#x429;" horiz-adv-x="700" 
d="M686 -169q-12 57 -36.5 93.5t-70.5 36.5h-580v712h38v-684h247v684h37v-684h252v684h37v-653q0 -16 8 -32t19.5 -28.5t25.5 -20t26 -7.5l13 -101h-16z" />
    <glyph glyph-name="afii10044" unicode="&#x42a;" horiz-adv-x="700" 
d="M644 152q0 84 -55 125t-151 41h-222v-329h222q40 0 77.5 8.5t66 28t45.5 50.5t17 76zM679 161q0 -52 -18 -89.5t-50 -62t-76 -36t-97 -11.5h-258v683h-160v27h196v-327h222q53 0 97.5 -11.5t76.5 -35t49.5 -58t17.5 -79.5z" />
    <glyph glyph-name="afii10045" unicode="&#x42b;" horiz-adv-x="700" 
d="M485 153q0 84 -54.5 125t-151.5 41h-199v-330h198q40 0 77.5 8.5t66 28t46 51t17.5 76.5zM520 161q0 -52 -17.5 -89.5t-49.5 -62t-76.5 -36.5t-97.5 -12h-235v712h36v-328h198q53 0 97.5 -11.5t76.5 -35t50 -58t18 -79.5zM619 -39v712h37v-712h-37z" />
    <glyph glyph-name="afii10046" unicode="&#x42c;" horiz-adv-x="700" 
d="M585 153q0 84 -54.5 125t-151.5 41h-265v-330h264q40 0 77.5 8.5t66 28t46 51t17.5 76.5zM621 161q0 -52 -18 -89.5t-50 -62t-76.5 -36.5t-97.5 -12h-301v712h36v-328h264q53 0 97.5 -11.5t77 -35t50.5 -58t18 -79.5z" />
    <glyph glyph-name="afii10047" unicode="&#x42d;" horiz-adv-x="700" 
d="M651 317q0 -75 -18.5 -142.5t-57 -118.5t-96.5 -80.5t-137 -29.5q-123 0 -201 62.5t-92 187.5h36q5 -50 25.5 -91t53.5 -70t78 -44.5t99 -15.5q75 0 126.5 30t83.5 78t47.5 108t17.5 119h-399v31h398q-3 58 -18 115t-46.5 102t-81.5 73t-123 28q-39 0 -78.5 -9.5
t-74 -29.5t-60 -52t-36.5 -77h-38q10 54 38.5 91.5t68 61t86 34t92.5 10.5q81 0 139 -29.5t95.5 -80t55 -118t17.5 -143.5z" />
    <glyph glyph-name="afii10048" unicode="&#x42e;" horiz-adv-x="700" 
d="M709 317q0 -91 -19 -160t-53 -116t-81 -71t-103 -24q-57 0 -104 24t-80.5 70.5t-52 114t-19.5 155.5h-175v-348h-31v710h31v-331h175q3 84 22 148.5t52.5 109t79.5 67t102 22.5t103 -24t81 -71.5t53 -116.5t19 -159zM679 317q0 74 -16 137t-46 108.5t-71.5 71.5t-92.5 26
q-52 0 -94 -26t-71 -71.5t-45 -108.5t-16 -137t15 -137t44 -109t71 -71.5t96 -25.5q51 0 92.5 26t71.5 72t46 108.5t16 136.5z" />
    <glyph glyph-name="afii10049" unicode="&#x42f;" horiz-adv-x="700" 
d="M580 647h-286q-43 0 -74.5 -13t-52.5 -35.5t-31 -53t-10 -66.5q0 -35 14.5 -64.5t37.5 -50.5t53 -33t62 -12h287v328zM580 -39v331h-290q-53 0 -83.5 -20.5t-45.5 -52.5t-19.5 -72t-5.5 -79q-1 -11 -1.5 -26t-1.5 -30.5t-3 -29t-6 -21.5h-41q7 9 11 31t6 49t3 54t2 44
q0 25 6 52t21.5 50t43.5 40.5t72 23.5q-79 11 -118 61.5t-39 126.5q0 45 16.5 78.5t44 56.5t63 34.5t73.5 11.5h328v-713h-36z" />
    <glyph glyph-name="afii10065" unicode="&#x430;" horiz-adv-x="700" 
d="M582 -37q-4 -1 -9.5 -1.5t-16.5 -0.5q-25 0 -40 8.5t-22.5 23.5t-8.5 37q-1 20 2 43q-13 -53 -62 -89q-51 -38 -141 -38q-32 0 -62.5 7t-53.5 22.5t-37 40t-14 58.5q0 58 25 89.5t66 48.5t92.5 25t105.5 18q49 9 68 26t19 49q0 36 -12.5 61.5t-34.5 41.5t-52 23.5
t-64 7.5q-30 0 -57.5 -8.5t-49 -26t-35.5 -45t-17 -65.5h-32q3 43 19 75t42.5 53.5t62 32t77.5 10.5q35 0 68 -7t58.5 -25t41 -50t15.5 -83v-288q0 -24 12 -38.5t37 -13.5q3 1 5.5 0.5t4.5 1.5v-24zM493 271q-6 -14 -24 -23.5t-41 -14.5q-63 -11 -114.5 -21t-88 -25.5
t-57 -41t-20.5 -67.5q0 -56 39 -83t105 -27q40 0 76 14t63.5 40.5t44 64t16.5 85.5z" />
    <glyph glyph-name="afii10066" unicode="&#x431;" horiz-adv-x="700" 
d="M555 218q0 52 -15 97.5t-42 79.5t-65 53t-83 19q-46 0 -83.5 -19t-64.5 -53t-42 -79.5t-15 -97.5q0 -53 15 -98t42 -79t65 -53t83 -19t83 19t65 53t42 79t15 98zM585 218q0 -56 -15.5 -105t-45.5 -86.5t-74 -59t-100 -21.5t-100 21t-74 58t-45.5 86.5t-15.5 106.5
q0 61 11.5 117.5t32.5 104t51.5 83.5t68.5 56q39 14 68.5 26t53 24.5t43 25.5t38.5 28l15 -14q-40 -38 -82.5 -61.5t-96.5 -41.5q-38 -13 -72 -44t-51 -71q34 20 73 29.5t82 9.5q56 0 99.5 -21.5t73.5 -59t46 -87t16 -104.5z" />
    <glyph glyph-name="afii10067" unicode="&#x432;" horiz-adv-x="700" 
d="M582 105q0 -42 -12 -70t-37.5 -44.5t-64.5 -23t-92 -6.5h-259v514h258q45 0 79 -4.5t56.5 -17.5t34 -36.5t11.5 -61.5q0 -23 -6 -44t-20 -37t-37 -27q-22 -10 -53 -11q28 -2 53 -10q27 -8 46.5 -24.5t31 -41t11.5 -55.5zM551 103q0 28 -8.5 50t-29 37t-54 22.5t-83.5 7.5
h-228v-232h227q82 0 129 27t47 88zM525 349q0 22 -5.5 40t-21.5 31t-45.5 20.5t-76.5 7.5h-228v-202h227q47 0 76.5 8t45.5 22.5t21.5 33t5.5 39.5h1z" />
    <glyph glyph-name="afii10068" unicode="&#x433;" horiz-adv-x="700" 
d="M181 451v-490h-31v514h400v-24h-369z" />
    <glyph glyph-name="afii10069" unicode="&#x434;" horiz-adv-x="700" 
d="M560 451h-340v-42q0 -56 -3.5 -119t-14 -121.5t-30 -107.5t-51.5 -77h439v467zM666 -170q-12 57 -36.5 93.5t-70.5 36.5h-391q-36 0 -58 -8.5t-36 -25t-23 -41t-20 -55.5h-12l15 124q56 25 88.5 72t49 107.5t21 131t4.5 142.5v68h394v-457q0 -40 23 -64t56 -24l11 -100
h-15z" />
    <glyph glyph-name="afii10070" unicode="&#x435;" horiz-adv-x="700" 
d="M159 212q0 -50 12.5 -94t37 -76.5t60 -51.5t82.5 -19q43 0 75.5 14t55 36.5t35.5 51t18 56.5h34q-20 -85 -75.5 -133.5t-143.5 -48.5q-52 0 -93.5 19.5t-70 54.5t-43.5 85t-15 112q0 49 12 97.5t39 87t69 62.5t102 24q55 0 96 -21.5t69 -59t42 -88t14 -108.5h-412z
M542 237q1 40 -12.5 81t-39 73.5t-62 53t-79.5 20.5t-77.5 -19.5t-59.5 -52t-39 -73.5t-16 -83h385z" />
    <glyph glyph-name="afii10072" unicode="&#x436;" horiz-adv-x="700" 
d="M681 -54q-59 0 -104.5 21t-77 57t-49 84t-19.5 102h-62v-249h-38v249h-63q-2 -54 -19.5 -102t-49 -84t-77 -57t-103.5 -21v23q47 0 86 19t67.5 53t44 79t15.5 98q0 52 -15.5 97.5t-43 79.5t-67 53t-87.5 19v23q55 0 99 -19.5t76 -53.5t50.5 -79.5t23.5 -97.5h62v235h38
v-235h63q4 52 22.5 97.5t50.5 79.5t76.5 53.5t100.5 19.5v-23q-47 0 -86 -19t-67.5 -53t-44.5 -79.5t-16 -97.5q0 -53 15.5 -98t43.5 -79t67.5 -53t87.5 -19v-23z" />
    <glyph glyph-name="afii10073" unicode="&#x437;" horiz-adv-x="700" 
d="M580 105q0 -44 -21 -74t-54.5 -48.5t-75.5 -26.5t-84 -8q-39 0 -79 7t-73 26.5t-53 53.5t-18 89h28q0 -49 17.5 -79t45 -46.5t62 -22.5t69.5 -6q36 0 73 6t66 21.5t47.5 41.5t18.5 66q0 30 -15.5 50.5t-42 33t-61 18t-71.5 5.5h-49v31h49q32 0 62 8.5t52.5 22.5t36 33.5
t13.5 42.5q0 35 -17 57.5t-43 35t-57 17.5t-60 5q-21 0 -51 -8t-58 -25.5t-48.5 -45.5t-21.5 -68h-29q0 40 18.5 71.5t47.5 53t66 33t75 11.5q39 0 76.5 -7.5t66.5 -24t47 -43.5t18 -67q0 -25 -6.5 -45.5t-22.5 -35.5t-42 -25q-24 -9 -60 -10q32 -3 60 -9q30 -6 52 -20
t34 -37t12 -58z" />
    <glyph glyph-name="afii10074" unicode="&#x438;" horiz-adv-x="700" 
d="M532 -39v413l-365 -349v-64h-33v514h33v-413l365 349v64h33v-514h-33z" />
    <glyph glyph-name="afii10075" unicode="&#x439;" horiz-adv-x="700" 
d="M532 -39v413l-365 -349v-64h-33v514h33v-413l365 349v64h33v-514h-33zM483 626q-21 -43 -52.5 -67t-86.5 -24t-86.5 24t-52.5 67l17 10q17 -34 44 -58t78 -24t78 24t44 58z" />
    <glyph glyph-name="afii10076" unicode="&#x43a;" horiz-adv-x="700" 
d="M521 -39l-224 307l-131 -116v-191h-30v514h30v-285l322 285h51l-216 -187l241 -327h-43z" />
    <glyph glyph-name="afii10077" unicode="&#x43b;" horiz-adv-x="700" 
d="M575 -39v489h-325v-70q0 -82 -3 -147.5t-17 -118.5t-42.5 -95.5t-79.5 -79.5l-16 18q42 29 68 64.5t40 85t18.5 116t4.5 157.5v95h384v-514h-32z" />
    <glyph glyph-name="afii10078" unicode="&#x43c;" horiz-adv-x="700" 
d="M627 -39v496l-254 -496h-46l-254 496v-496h-31v514h59l249 -487l249 487h59v-514h-31z" />
    <glyph glyph-name="afii10079" unicode="&#x43d;" horiz-adv-x="700" 
d="M551 -39v251h-403v-251h-33v514h33v-237h403v237h33v-514h-33z" />
    <glyph glyph-name="afii10080" unicode="&#x43e;" horiz-adv-x="700" 
d="M555 218q0 52 -15 97.5t-42 79.5t-65 53t-83 19q-46 0 -83.5 -19t-64.5 -53t-42 -79.5t-15 -97.5q0 -53 15 -98t42 -79t65 -53t83 -19t83 19t65 53t42 79t15 98zM585 218q0 -56 -16 -105t-46 -86.5t-73.5 -59t-99.5 -21.5t-99.5 21.5t-73.5 59t-46 86.5t-16 105
q0 55 16 104.5t46 87t73.5 59t99.5 21.5t99.5 -21.5t73.5 -59t46 -87t16 -104.5z" />
    <glyph glyph-name="afii10081" unicode="&#x43f;" horiz-adv-x="700" 
d="M544 -39v489h-388v-489h-33v514h454v-514h-33z" />
    <glyph glyph-name="afii10082" unicode="&#x440;" horiz-adv-x="700" 
d="M549 218q0 49 -14 94t-39.5 79.5t-60 55t-75.5 20.5q-49 0 -87.5 -20t-65.5 -54t-41.5 -79.5t-14.5 -95.5q0 -43 11.5 -87.5t37 -80.5t65 -58.5t95.5 -22.5q41 0 75.5 21t60 55.5t39.5 79.5t14 93zM580 218q0 -63 -15.5 -113t-44.5 -85.5t-70.5 -54.5t-94.5 -19
q-38 0 -71.5 12t-60.5 32t-45.5 47.5t-26.5 57.5v-294h-31v674h31v-136q7 32 24.5 59.5t44 48t60.5 32t75 11.5q51 0 92.5 -20t71 -56t45.5 -86t16 -110z" />
    <glyph glyph-name="afii10083" unicode="&#x441;" horiz-adv-x="700" 
d="M568 134q-16 -84 -66 -136t-139 -52q-60 0 -103.5 21.5t-72 58t-42.5 86t-14 106.5q0 54 15 103.5t44 87t72.5 59.5t100.5 22q40 0 74.5 -13.5t60.5 -37t43.5 -56.5t23.5 -72h-31q-6 33 -21 61t-37.5 49t-51.5 33t-62 12q-51 0 -89 -20.5t-62.5 -55t-37 -79t-12.5 -93.5
q0 -52 14 -97.5t40 -79t63.5 -52.5t85.5 -19q32 0 61 12.5t52 34.5t39 52t22 65h30z" />
    <glyph glyph-name="afii10084" unicode="&#x442;" horiz-adv-x="700" 
d="M366 450v-489h-34v489h-220v25h475v-25h-221z" />
    <glyph glyph-name="afii10085" unicode="&#x443;" horiz-adv-x="700" 
d="M343 -119q-14 -37 -37.5 -58.5t-65.5 -21.5q-20 0 -28 0.5t-9 0.5v26h30q17 0 29.5 3t22.5 11t19 23t19 39l21 46l-215 525h33l195 -509l184 509h29z" />
    <glyph glyph-name="afii10086" unicode="&#x444;" horiz-adv-x="700" 
d="M649 218q0 -56 -16 -105t-46 -86.5t-73.5 -59t-99.5 -21.5q-10 0 -22 2.5t-23 4.5v-141h-30v143q-14 -3 -27 -6t-26 -3q-56 0 -99.5 21.5t-73.5 59t-46 86.5t-16 105q0 55 16 104.5t46 87t73.5 59t99.5 21.5q13 0 26 -3t27 -6v192h30v-190q11 2 23 4.5t22 2.5
q56 0 99.5 -21.5t73.5 -59t46 -87t16 -104.5zM339 458q-30 6 -53 6q-45 0 -82.5 -19t-64.5 -52t-41.5 -78t-14.5 -97q0 -53 14.5 -98t41.5 -78t64.5 -51.5t82.5 -18.5q23 0 53 6v480zM617 218q0 52 -14.5 97t-41.5 78t-64.5 52t-82.5 19q-8 0 -19 -0.5t-26 -3.5v-485l24 -2
q12 -1 21 -1q45 0 82.5 18.5t64.5 51.5t41.5 78t14.5 98z" />
    <glyph glyph-name="afii10087" unicode="&#x445;" horiz-adv-x="700" 
d="M536 -39l-185 249l-187 -249h-39l204 269l-190 245h44l166 -223l163 223h44l-186 -245l205 -269h-39z" />
    <glyph glyph-name="afii10088" unicode="&#x446;" horiz-adv-x="700" 
d="M597 -169q-12 57 -38 93.5t-73 36.5h-395v514h33v-489h363v489h32v-456q0 -40 23 -64t56 -24l11 -100h-12z" />
    <glyph glyph-name="afii10089" unicode="&#x447;" horiz-adv-x="700" 
d="M513 -39v260q-5 -28 -22.5 -52.5t-43 -42.5t-56 -28.5t-60.5 -10.5q-47 0 -80 13.5t-53.5 37.5t-29.5 58t-9 76v203h28v-193q0 -37 8.5 -68t26.5 -53.5t46 -35.5t67 -13t71.5 14.5t56 40t36.5 60.5t13 76v172h29v-514h-28z" />
    <glyph glyph-name="afii10090" unicode="&#x448;" horiz-adv-x="700" 
d="M55 -39v514h32v-489h247v489h33v-489h246v489h32v-514h-590z" />
    <glyph glyph-name="afii10091" unicode="&#x449;" horiz-adv-x="700" 
d="M675 -169q-11 57 -35.5 93.5t-71.5 36.5h-558v514h33v-489h247v489h32v-489h246v489h33v-456q0 -40 23 -64t55 -24l11 -100h-15z" />
    <glyph glyph-name="afii10092" unicode="&#x44a;" horiz-adv-x="700" 
d="M598 103q0 28 -7 49.5t-25.5 36.5t-50.5 22.5t-82 7.5h-204v-230h203q82 0 123.5 26t41.5 88h1zM629 105q0 -40 -10.5 -67t-34 -44t-61 -24.5t-90.5 -7.5h-233v485h-130v27h159v-229h203q105 0 151 -32t46 -108z" />
    <glyph glyph-name="afii10093" unicode="&#x44b;" horiz-adv-x="700" 
d="M455 103q0 28 -7 49.5t-25.5 36.5t-50.5 22.5t-82 7.5h-167v-230h168q83 0 124 26t41 88h-1zM486 105q0 -40 -10.5 -67t-34 -44t-61 -24.5t-90.5 -7.5h-198v512h31v-229h168q104 0 150 -31.5t46 -108.5h-1zM577 -38v512h31v-512h-31z" />
    <glyph glyph-name="afii10094" unicode="&#x44c;" horiz-adv-x="700" 
d="M533 103q0 28 -6.5 49.5t-24 36.5t-49 22.5t-82.5 7.5h-204v-230h202q83 0 122.5 26t39.5 88h2zM564 105q0 -40 -10 -67t-33 -44t-60 -24.5t-90 -7.5h-235v512h31v-229h202q101 0 148 -32.5t47 -107.5z" />
    <glyph glyph-name="afii10095" unicode="&#x44d;" horiz-adv-x="700" 
d="M570 218q0 -57 -13.5 -106.5t-41 -86t-71 -58t-103.5 -21.5q-89 0 -142 47.5t-69 132.5h31q5 -35 22 -64t41.5 -49.5t54.5 -31.5t61 -11q47 0 83.5 18t61.5 49.5t38.5 75t15.5 94.5h-298v33h298q-2 45 -16 85.5t-38.5 72t-60.5 50t-82 18.5q-33 0 -62.5 -10.5t-53 -30
t-39 -46.5t-21.5 -60h-33q6 38 24 69.5t45.5 54t63 35t75.5 12.5q58 0 101 -22t71.5 -59.5t42.5 -87t14 -103.5z" />
    <glyph glyph-name="afii10096" unicode="&#x44e;" horiz-adv-x="700" 
d="M627 218q0 52 -12.5 97t-37.5 78.5t-61 52.5t-83 19t-83.5 -19t-61 -52.5t-37.5 -78.5t-13 -97t12.5 -97t37.5 -78.5t61 -52.5t83 -19t83 19t61 52.5t37.5 78.5t12.5 97h1zM658 218q0 -56 -12 -105t-39 -86.5t-70 -59t-104 -21.5q-57 0 -98.5 20t-69 55.5t-41 83
t-15.5 103.5h-132v-247h-35v514h34v-239h131q3 53 17.5 99.5t42.5 81t68.5 54t96.5 19.5q61 0 104 -21.5t70 -59t39.5 -87t12.5 -104.5z" />
    <glyph glyph-name="afii10097" unicode="&#x44f;" horiz-adv-x="700" 
d="M537 -39v236h-215q-66 0 -98 -28.5t-35 -96.5q-1 -12 -3 -27t-4 -30.5t-5 -30t-6 -23.5h-41q6 17 11 32t8 30.5t5 32t4 36.5q9 114 111 120q-56 3 -91 36t-35 93q0 39 12.5 64.5t36 41t55.5 22t71 6.5h251v-514h-32zM537 450h-215q-72 0 -110.5 -25.5t-38.5 -88.5
q0 -60 38 -86t110 -26h216v226z" />
    <glyph glyph-name="afii10071" unicode="&#x451;" horiz-adv-x="700" 
d="M159 212q0 -50 12.5 -94t37 -76.5t60 -51.5t82.5 -19q43 0 75.5 14t55 36.5t35.5 51t18 56.5h34q-20 -85 -75.5 -133.5t-143.5 -48.5q-52 0 -93.5 19.5t-70 54.5t-43.5 85t-15 112q0 49 12 97.5t39 87t69 62.5t102 24q55 0 96 -21.5t69 -59t42 -88t14 -108.5h-412z
M542 237q1 40 -12.5 81t-39 73.5t-62 53t-79.5 20.5t-77.5 -19.5t-59.5 -52t-39 -73.5t-16 -83h385zM217 572v68h66v-68h-66zM393 572v68h66v-68h-66z" />
    <glyph glyph-name="uni2010" unicode="&#x2010;" horiz-adv-x="700" 
d="M155 297v30h390v-30h-390z" />
    <glyph glyph-name="emdash" unicode="&#x2014;" horiz-adv-x="700" 
d="M-80 294v36h860v-36h-860z" />
    <glyph glyph-name="emdash" unicode="&#x2015;" horiz-adv-x="700" 
d="M-80 294v36h860v-36h-860z" />
    <glyph glyph-name="uni2016" unicode="&#x2016;" horiz-adv-x="700" 
d="M283 -180h-42v960h42v-960zM458 -180h-42v960h42v-960z" />
    <glyph glyph-name="quoteleft" unicode="&#x2018;" horiz-adv-x="700" 
d="M273 680q0 13 8 33t20.5 39.5t26.5 33.5t26 14v-60h15q26 0 43 -17t17 -43v-45q0 -24 -17 -41t-43 -17h-38q-24 0 -41 17t-17 41v45z" />
    <glyph glyph-name="quoteright" unicode="&#x2019;" horiz-adv-x="700" 
d="M429 697q0 -13 -8 -33t-20.5 -39.5t-26.5 -33.5t-26 -14v60h-15q-26 0 -43 17t-17 43v45q0 24 17 41t43 17h38q24 0 41 -17t17 -41v-45z" />
    <glyph glyph-name="quotedblleft" unicode="&#x201c;" horiz-adv-x="700" 
d="M173 610q0 13 8 33t20.5 39.5t26.5 33.5t26 14v-60h15q26 0 43 -17t17 -43v-45q0 -24 -17 -41t-43 -17h-38q-24 0 -41 17t-17 41v45zM363 610q0 13 8 33t20.5 39.5t26.5 33.5t26 14v-60h15q26 0 43 -17t17 -43v-45q0 -24 -17 -41t-43 -17h-38q-24 0 -41 17t-17 41v45z
" />
    <glyph glyph-name="quotedblright" unicode="&#x201d;" horiz-adv-x="700" 
d="M519 627q0 -13 -8 -33t-20.5 -39.5t-26.5 -33.5t-26 -14v60h-15q-26 0 -43 17t-17 43v45q0 24 17 41t43 17h38q24 0 41 -17t17 -41v-45zM329 627q0 -13 -8 -33t-20.5 -39.5t-26.5 -33.5t-26 -14v60h-15q-26 0 -43 17t-17 43v45q0 24 17 41t43 17h38q24 0 41 -17t17 -41
v-45z" />
    <glyph glyph-name="dagger" unicode="&#x2020;" horiz-adv-x="700" 
d="M337 387h-203v25h203v228h27v-228h202v-25h-202v-399h-27v399z" />
    <glyph glyph-name="daggerdbl" unicode="&#x2021;" horiz-adv-x="700" 
d="M364 321v-333h-27v333h-203v25h203v138h-203v25h203v131h27v-131h202v-25h-202v-138h202v-25h-202z" />
    <glyph glyph-name="twodotenleader" unicode="&#x2025;" horiz-adv-x="700" 
d="M84 331q0 17 11.5 29t27.5 12q17 0 29 -12t12 -29t-12 -28t-29 -11q-16 0 -27.5 11t-11.5 28zM535 331q0 17 11.5 29t27.5 12q17 0 29 -12t12 -29t-12 -28t-29 -11q-16 0 -27.5 11t-11.5 28z" />
    <glyph glyph-name="ellipsis" unicode="&#x2026;" horiz-adv-x="700" 
d="M9 331q0 17 11.5 29t27.5 12q17 0 29 -12t12 -29t-12 -28t-29 -11q-16 0 -27.5 11t-11.5 28zM309 331q0 17 11.5 29t27.5 12q17 0 29 -12t12 -29t-12 -28t-29 -11q-16 0 -27.5 11t-11.5 28zM611 331q0 17 11.5 29t27.5 12q17 0 29 -12t12 -29t-12 -28t-29 -11
q-16 0 -27.5 11t-11.5 28z" />
    <glyph glyph-name="ellipsis" unicode="&#x22ef;" horiz-adv-x="700" 
d="M9 331q0 17 11.5 29t27.5 12q17 0 29 -12t12 -29t-12 -28t-29 -11q-16 0 -27.5 11t-11.5 28zM309 331q0 17 11.5 29t27.5 12q17 0 29 -12t12 -29t-12 -28t-29 -11q-16 0 -27.5 11t-11.5 28zM611 331q0 17 11.5 29t27.5 12q17 0 29 -12t12 -29t-12 -28t-29 -11
q-16 0 -27.5 11t-11.5 28z" />
    <glyph glyph-name="perthousand" unicode="&#x2030;" horiz-adv-x="700" 
d="M451 142q0 33 -5 61.5t-15.5 50.5t-26.5 34.5t-38 12.5q-21 0 -36.5 -12.5t-25.5 -34.5t-15 -50.5t-5 -61.5t5 -61.5t15 -50.5t25.5 -34.5t36.5 -12.5q22 0 38 12.5t26.5 34.5t15.5 50.5t5 61.5zM141 479q0 33 -5 61.5t-15 50.5t-25.5 34.5t-37.5 12.5q-21 0 -37 -12.5
t-26 -34.5t-15 -50.5t-5 -61.5t5 -61.5t15 -50.5t26 -34.5t37 -12.5q22 0 37.5 12.5t25.5 34.5t15 50.5t5 61.5zM726 142q0 33 -5 61.5t-15 50.5t-25.5 34.5t-36.5 12.5t-37 -12.5t-26.5 -34.5t-15.5 -50.5t-5 -61.5t5 -61.5t15.5 -50.5t26.5 -34.5t37 -12.5t36.5 12.5
t25.5 34.5t15 50.5t5 61.5zM485 142q0 -85 -28.5 -136t-90.5 -51q-61 0 -88.5 51t-27.5 136t27.5 136t88.5 51q64 0 91.5 -51t27.5 -136zM176 479q0 -85 -29 -136t-89 -51q-62 0 -90 51t-28 136t28 136t90 51t90 -51t28 -136zM761 142q0 -85 -28.5 -136t-88.5 -51
q-62 0 -90.5 51t-28.5 136t28.5 136t90.5 51t89.5 -51t27.5 -136zM-25 -76q112 192 221.5 383t221.5 385h36q-110 -194 -220 -385t-220 -383h-39z" />
    <glyph glyph-name="minute" unicode="&#x2032;" horiz-adv-x="700" 
d="M280 494h-12l105 235h58z" />
    <glyph glyph-name="second" unicode="&#x2033;" horiz-adv-x="700" 
d="M208 494h-12l105 235h58zM353 494h-12l105 235h58z" />
    <glyph glyph-name="uni203B" unicode="&#x203b;" horiz-adv-x="700" 
d="M60 28l270 270l-270 271l20 20l270 -271l271 271l20 -20l-271 -271l271 -270l-20 -20l-271 270l-270 -270zM401 552q0 -20 -15.5 -33.5t-35.5 -13.5t-35.5 13.5t-15.5 33.5q0 23 15.5 37t35.5 14t35.5 -14t15.5 -37zM401 35q0 -20 -15.5 -33.5t-35.5 -13.5t-35.5 13.5
t-15.5 33.5q0 23 15.5 37t35.5 14t35.5 -14t15.5 -37zM141 297q0 -20 -15.5 -33.5t-35.5 -13.5t-35.5 13.5t-15.5 33.5q0 23 15.5 37t35.5 14t35.5 -14t15.5 -37zM661 297q0 -20 -15.5 -33.5t-35.5 -13.5t-35.5 13.5t-15.5 33.5q0 23 15.5 37t35.5 14t35.5 -14t15.5 -37z
" />
    <glyph glyph-name="uni203E" unicode="&#x203e;" horiz-adv-x="700" 
d="M-100 743v19h900v-19h-900z" />
    <glyph glyph-name="uni203E" unicode="&#xffe3;" horiz-adv-x="700" 
d="M-100 743v19h900v-19h-900z" />
    <glyph glyph-name="uni2074" unicode="&#x2074;" horiz-adv-x="700" 
d="M373 692l-78 -116h78v116zM401 549v-53h-28v53h-103v27l104 154h27v-154h29v-27h-29z" />
    <glyph glyph-name="uni207F" unicode="&#x207f;" horiz-adv-x="700" 
d="M399 496v152q0 23 -11.5 36.5t-33.5 13.5q-26 0 -40.5 -16t-14.5 -42v-144h-27v222h27v-31q5 14 21 25.5t36 11.5q33 0 52 -18t19 -47v-163h-28z" />
    <glyph glyph-name="uni2081" unicode="&#x2081;" horiz-adv-x="700" 
d="M360 -114v172h-49v21q24 2 37 11t16 30h24v-234h-28z" />
    <glyph glyph-name="uni2082" unicode="&#x2082;" horiz-adv-x="700" 
d="M426 57q0 -30 -16.5 -49.5t-41.5 -36.5q-26 -18 -40.5 -30.5t-19.5 -28.5h115v-28h-150q5 41 28 64.5t57 46.5q21 14 30.5 28t9.5 34q0 41 -44 41q-23 0 -35 -16.5t-12 -41.5h-29q0 35 21.5 59t56.5 24q32 0 51 -17.5t19 -48.5z" />
    <glyph glyph-name="uni2083" unicode="&#x2083;" horiz-adv-x="700" 
d="M431 -47q0 -32 -23 -51.5t-58 -19.5q-33 0 -57 20.5t-23 58.5h29q-1 -29 15 -41.5t36 -12.5q23 0 38 13t15 33q0 23 -13.5 33t-35.5 10h-17v27h17q17 0 29 10.5t12 29.5q0 17 -12 26t-32 9q-45 0 -48 -52h-28q0 32 21.5 54.5t53.5 22.5t52.5 -16t20.5 -44
q0 -20 -10.5 -35t-30.5 -18q20 -4 34.5 -19t14.5 -38z" />
    <glyph glyph-name="uni2084" unicode="&#x2084;" horiz-adv-x="700" 
d="M373 82l-78 -116h78v116zM401 -61v-53h-28v53h-103v27l104 154h27v-154h29v-27h-29z" />
    <glyph glyph-name="uni20A9" unicode="&#x20a9;" horiz-adv-x="700" 
d="M653 344l-88 -382q-2 -7 -5 -10.5t-9 -3.5h-54q-6 0 -9 3.5t-5 10.5l-78 382h-108l-78 -382q-2 -7 -5 -10.5t-9 -3.5h-54q-6 0 -9 3.5t-5 10.5l-89 382h-116q-11 0 -11 11v11q0 11 11 11h109l-61 262q-4 14 11 14h21q13 0 17 -14l59 -262h172l55 262q4 14 17 14h38
q13 0 17 -14l54 -262h172l60 262q4 14 17 14h21q15 0 11 -14l-61 -262h107q11 0 11 -11v-11q0 -11 -11 -11h-115zM178 -19l75 363h-157zM524 -19l82 363h-158zM303 377h95l-47 233z" />
    <glyph glyph-name="uni2103" unicode="&#x2103;" horiz-adv-x="700" 
d="M670 187q-5 -50 -23 -93.5t-48.5 -75t-73 -49.5t-94.5 -18q-68 0 -119.5 27.5t-85.5 73t-51 104.5t-17 123t16.5 123.5t50 104.5t85 72t120.5 27q42 0 81.5 -13t71 -38t52.5 -60.5t26 -80.5h-37q-17 76 -70 119.5t-123 43.5q-69 0 -114.5 -29.5t-72.5 -73.5t-38 -96.5
t-11 -98.5t11.5 -98.5t38.5 -96.5t72 -73.5t113 -29.5q45 0 80 17t60.5 45.5t41 66t20.5 77.5h38zM118 514q-37 0 -63 26t-26 63t26 63t63 26t63 -26t26 -63t-26 -63t-63 -26zM185 603q0 29 -19 48.5t-48 19.5t-48 -19.5t-19 -48.5t19 -48.5t48 -19.5t48 19.5t19 48.5z" />
    <glyph glyph-name="uni2109" unicode="&#x2109;" horiz-adv-x="700" 
d="M322 599v-270h318v-35h-318v-333h-43v672h396v-34h-353zM114 514q-37 0 -63 26t-26 63t26 63t63 26t63 -26t26 -63t-26 -63t-63 -26zM181 603q0 29 -19 48.5t-48 19.5t-48 -19.5t-19 -48.5t19 -48.5t48 -19.5t48 19.5t19 48.5z" />
    <glyph glyph-name="afii61289" unicode="&#x2113;" horiz-adv-x="700" 
d="M288 131q37 34 72.5 85.5t63 108t44 112t16.5 99.5q0 59 -13 88t-50 29q-18 0 -33.5 -14t-29 -37t-24.5 -53.5t-20 -64.5q-10 -37 -15 -82.5t-7.5 -92.5t-3 -93t-0.5 -85zM485 72q-23 -52 -53 -79t-73 -27q-22 0 -38.5 10.5t-28 27t-18 37t-8.5 41.5q-14 -14 -31 -25.5
t-34 -24.5l-15 23q17 11 37.5 25.5t40.5 30.5q-7 91 -1.5 186t23.5 184q23 96 58.5 149t84.5 53q47 0 65.5 -39t18.5 -99q0 -45 -16.5 -104t-45.5 -120.5t-69 -119.5t-87 -101q-1 -23 5 -42.5t16 -33.5t21.5 -22.5t22.5 -8.5q33 0 59 24.5t44 66.5z" />
    <glyph glyph-name="afii61352" unicode="&#x2116;" horiz-adv-x="700" 
d="M512 -51q-31 0 -59.5 15.5t-50.5 47.5t-35 82t-13 119q0 70 14 120.5t36.5 83t52 47.5t61.5 15q31 0 59 -15.5t50 -48t35 -82.5t13 -119q0 -73 -14.5 -123.5t-37.5 -82t-52 -45.5t-58 -14h-1zM516 -22q40 0 66 24t40 60t19.5 77t5.5 75t-5.5 75t-20 77t-40.5 60t-67 24
t-67 -24t-40 -60t-19 -77t-5 -75q0 -35 5 -76t19.5 -76.5t40 -59.5t67.5 -24h1zM-48 -43v718h42l146 -353q13 -32 31 -75t36.5 -88t35.5 -87.5t28 -72.5h2q-3 94 -2 195.5t1 193.5v287h28v-718h-40l-153 368q-12 28 -27.5 65.5t-32.5 79.5l-33 84q-16 42 -30 79h-2
q0 -78 -1 -180.5t-1 -220.5v-275h-28zM700 -39v108h49v-108h-49z" />
    <glyph glyph-name="uni2121" unicode="&#x2121;" horiz-adv-x="700" 
d="M599 243q0 38 -11 76.5t-30.5 69t-48 50t-62.5 19.5q-33 0 -60 -18.5t-47 -49t-31.5 -69t-12.5 -78.5h303zM178 638v-677h-31v677h-186v35h405v-35h-188zM297 212q-1 -48 10 -90.5t31 -74.5t48 -50.5t63 -18.5q29 0 53.5 13.5t42.5 35.5t30.5 49t17.5 53h28
q-9 -40 -23.5 -73.5t-36 -58t-49.5 -38t-63 -13.5q-42 0 -75 19.5t-56 55.5t-35.5 86t-12.5 111q0 53 11 102t33 87t55.5 60.5t77.5 22.5q48 0 82 -23.5t55.5 -62.5t31.5 -89t10 -103h-329zM713 -39v712h27v-712h-27z" />
    <glyph glyph-name="trademark" unicode="&#x2122;" horiz-adv-x="700" 
d="M129 690v-281h-26v281h-160v25h346v-25h-160zM554 409h-30l-180 281v-281h-24v306h36l183 -286l183 286h36v-306h-24v281z" />
    <glyph glyph-name="Omega" unicode="&#x2126;" horiz-adv-x="700" 
d="M621 412q0 -55 -15.5 -100.5t-41.5 -80t-60 -56.5t-72 -29v-163h141v145h29v-167h-202v202q88 20 137 86.5t49 162.5q0 49 -17 94.5t-47.5 80t-74 55.5t-97.5 21q-48 0 -90.5 -21t-75 -55.5t-51.5 -80t-19 -94.5q0 -96 49 -162.5t137 -86.5v-202h-202v167h29v-145h141
v163q-38 7 -72 29t-60 56.5t-41.5 80t-15.5 100.5q0 57 21 107.5t57.5 88t86 59t106.5 21.5t106.5 -21.5t86 -59t57.5 -88t21 -107.5z" />
    <glyph glyph-name="uni212B" unicode="&#x212b;" horiz-adv-x="700" 
d="M349 454l-117 -282h234zM564 -60l-84 201h-261l-84 -201h-42l226 546h61l226 -546h-42zM348 544q-37 0 -63 26t-26 63t26 63t63 26t63 -26t26 -63t-26 -63t-63 -26zM415 633q0 29 -19 48.5t-48 19.5t-48 -19.5t-19 -48.5t19 -48.5t48 -19.5t48 19.5t19 48.5z" />
    <glyph glyph-name="onethird" unicode="&#x2153;" horiz-adv-x="700" 
d="M639 0q0 -27 -10 -47.5t-27 -34.5t-39 -21.5t-46 -7.5q-55 0 -90.5 32.5t-30.5 95.5h43q-2 -42 18.5 -66.5t58.5 -24.5q32 0 56 19t24 52q0 32 -21 49t-53 17h-32v40h32q22 0 42 13.5t20 42.5t-19.5 43.5t-48.5 14.5q-35 0 -53.5 -22.5t-16.5 -64.5h-42q0 57 29 91.5
t83 34.5q21 0 40.5 -5.5t35 -17.5t25 -29.5t9.5 -41.5q0 -25 -10.5 -45t-31.5 -31q26 -11 40.5 -33.5t14.5 -52.5zM86 9l-26 24l538 562l27 -24zM160 347v248h-71v34q19 1 32.5 4.5t22.5 12t14.5 23.5t8.5 38h36v-360h-43z" />
    <glyph glyph-name="twothirds" unicode="&#x2154;" horiz-adv-x="700" 
d="M654 0q0 -27 -10 -47.5t-27 -34.5t-39 -21.5t-46 -7.5q-55 0 -90.5 32.5t-30.5 95.5h43q-2 -42 18.5 -66.5t58.5 -24.5q32 0 56 19t24 52q0 32 -21 49t-53 17h-32v40h32q22 0 42 13.5t20 42.5t-19.5 43.5t-48.5 14.5q-35 0 -53.5 -22.5t-16.5 -64.5h-42q0 57 29 91.5
t83 34.5q21 0 40.5 -5.5t35 -17.5t25 -29.5t9.5 -41.5q0 -25 -10.5 -45t-31.5 -31q26 -11 40.5 -33.5t14.5 -52.5zM46 348q1 33 11 55.5t26.5 40.5t38 32.5t44.5 30.5q14 9 25.5 18.5t22.5 20.5q14 14 20.5 27.5t6.5 33.5q0 30 -20.5 46.5t-49.5 16.5q-39 0 -56 -26.5
t-17 -68.5h-43q-1 60 28 97t89 37q48 0 80 -25.5t32 -76.5q0 -28 -10.5 -49.5t-27.5 -39t-38 -31.5l-42 -28q-19 -13 -40.5 -30t-28.5 -40h188v-41h-239zM115 9l-26 24l538 562l27 -24z" />
    <glyph glyph-name="oneeighth" unicode="&#x215b;" horiz-adv-x="700" 
d="M600 -3q0 34 -24.5 52t-58.5 18q-33 0 -57 -17.5t-24 -52.5t23 -53t57 -18q35 0 59.5 18t24.5 53zM585 164q0 26 -18.5 40t-49.5 14q-26 0 -47 -14t-21 -40q0 -32 20.5 -45t46.5 -13q28 0 48 13.5t20 44.5h1zM643 -3q0 -27 -10 -48t-27 -35t-40 -21t-49 -7
q-64 0 -95 31.5t-31 79.5q0 29 15.5 54.5t44.5 36.5q-21 11 -33 30.5t-12 45.5q0 24 10 41.5t26 29t35.5 17t38.5 5.5q20 0 40 -5.5t36.5 -17t26.5 -29t10 -41.5q0 -26 -12 -45.5t-33 -30.5q28 -11 43.5 -34.5t15.5 -56.5zM84 9l-27 24l538 562l28 -24zM158 347v248h-72v34
q19 1 32.5 4.5t22.5 12t14.5 23.5t8.5 38h37v-360h-43z" />
    <glyph glyph-name="threeeighths" unicode="&#x215c;" horiz-adv-x="700" 
d="M608 -3q0 34 -24.5 52t-58.5 18q-33 0 -56.5 -17.5t-23.5 -52.5t23 -53t57 -18q35 0 59 18t24 53zM593 164q0 26 -18.5 40t-49.5 14q-26 0 -46.5 -14t-20.5 -40q0 -32 20.5 -45t46.5 -13q28 0 48 13.5t20 44.5zM651 -3q0 -27 -10 -48t-27 -35t-40 -21t-49 -7
q-64 0 -94.5 31.5t-30.5 79.5q0 29 15 54.5t44 36.5q-44 23 -44 76q0 24 10 41.5t26 29t35.5 17t38.5 5.5q20 0 40 -5.5t36 -17t26 -29t10 -41.5q0 -26 -12 -45.5t-32 -30.5q28 -11 43 -34.5t15 -56.5zM92 9l-26 24l538 562l27 -24zM296 454q0 -27 -10 -47.5t-27 -34.5
t-39 -21.5t-46 -7.5q-55 0 -90.5 32.5t-30.5 95.5h43q-2 -42 18.5 -66.5t58.5 -24.5q32 0 56 19t24 52q0 32 -21 49t-53 17h-32v40h32q22 0 42 13.5t20 42.5t-19.5 43.5t-48.5 14.5q-35 0 -53.5 -22.5t-16.5 -64.5h-42q0 57 29 91.5t83 34.5q21 0 40.5 -5.5t35 -17.5
t25 -29.5t9.5 -41.5q0 -25 -10.5 -45t-31.5 -31q26 -11 40.5 -33.5t14.5 -52.5z" />
    <glyph glyph-name="fiveeighths" unicode="&#x215d;" horiz-adv-x="700" 
d="M607 -3q0 34 -24.5 52t-58.5 18q-33 0 -57 -17.5t-24 -52.5t23 -53t57 -18q35 0 59.5 18t24.5 53zM592 164q0 26 -18.5 40t-49.5 14q-26 0 -47 -14t-21 -40q0 -32 20.5 -45t46.5 -13q28 0 48 13.5t20 44.5h1zM650 -3q0 -27 -10 -48t-27 -35t-40 -21t-49 -7
q-64 0 -95 31.5t-31 79.5q0 29 15.5 54.5t44.5 36.5q-21 11 -33 30.5t-12 45.5q0 24 10 41.5t26 29t35.5 17t38.5 5.5q20 0 40 -5.5t36.5 -17t26.5 -29t10 -41.5q0 -26 -12 -45.5t-33 -30.5q28 -11 43.5 -34.5t15.5 -56.5zM91 9l-27 24l538 562l28 -24zM296 463
q0 -26 -10 -48t-27 -38t-40 -25t-48 -9q-50 0 -85 30.5t-37 86.5h46q0 -37 22 -58t54 -21q38 0 60.5 25t22.5 60t-23.5 59.5t-59.5 24.5q-22 0 -41 -9.5t-33 -29.5h-38l35 191h186v-40h-152l-19 -94q29 20 64 20q57 0 90 -35.5t33 -89.5z" />
    <glyph glyph-name="seveneighths" unicode="&#x215e;" horiz-adv-x="700" 
d="M601 -3q0 34 -24.5 52t-58.5 18q-33 0 -57 -17.5t-24 -52.5t23 -53t57 -18q35 0 59.5 18t24.5 53zM586 164q0 26 -18.5 40t-49.5 14q-26 0 -47 -14t-21 -40q0 -32 20.5 -45t46.5 -13q28 0 48 13.5t20 44.5h1zM644 -3q0 -27 -10 -48t-27 -35t-40 -21t-49 -7
q-64 0 -95 31.5t-31 79.5q0 29 15.5 54.5t44.5 36.5q-21 11 -33 30.5t-12 45.5q0 24 10 41.5t26 29t35.5 17t38.5 5.5q20 0 40 -5.5t36.5 -17t26.5 -29t10 -41.5q0 -26 -12 -45.5t-33 -30.5q28 -11 43.5 -34.5t15.5 -56.5zM83 9l-27 24l538 562l28 -24zM311 663
q-18 -18 -41.5 -46.5t-44.5 -68t-36.5 -90t-18.5 -113.5h-48q3 46 12.5 86t26 77.5t41.5 74.5t59 76h-186v43h236v-39z" />
    <glyph glyph-name="uni2160" unicode="&#x2160;" horiz-adv-x="700" 
d="M364 668v-706h-28v706h28z" />
    <glyph glyph-name="uni2161" unicode="&#x2161;" horiz-adv-x="700" 
d="M229 668v-706h-28v706h28zM499 668v-706h-28v706h28z" />
    <glyph glyph-name="uni2162" unicode="&#x2162;" horiz-adv-x="700" 
d="M141 668v-706h-28v706h28zM367 668v-706h-28v706h28zM586 668v-706h-28v706h28z" />
    <glyph glyph-name="uni2163" unicode="&#x2163;" horiz-adv-x="700" 
d="M405 -44l-217 708h28l201 -658h3l214 658h29l-234 -708h-24zM65 668v-706h-28v706h28z" />
    <glyph glyph-name="uni2164" unicode="&#x2164;" horiz-adv-x="700" 
d="M329 -44l-257 708h28l146 -388q29 -81 53.5 -150.5t41.5 -128.5h3q20 59 45.5 129t57.5 150l147 388h33l-274 -708h-24z" />
    <glyph glyph-name="uni2165" unicode="&#x2165;" horiz-adv-x="700" 
d="M260 -44l-217 708h28l201 -653h3l214 653h29l-234 -708h-24zM656 668v-706h-28v706h28z" />
    <glyph glyph-name="uni2166" unicode="&#x2166;" horiz-adv-x="700" 
d="M194 -44l-187 708h28l171 -648h3l184 648h29l-204 -708h-24zM550 668v-706h-28v706h28zM693 668v-706h-28v706h28z" />
    <glyph glyph-name="uni2167" unicode="&#x2167;" horiz-adv-x="700" 
d="M132 -44l-147 708h28l131 -638h3l144 638h29l-164 -708h-24zM438 668v-706h-28v706h28zM579 668v-706h-28v706h28zM716 668v-706h-28v706h28z" />
    <glyph glyph-name="uni2168" unicode="&#x2168;" horiz-adv-x="700" 
d="M42 668v-706h-28v706h28zM656 -41l-226 338h-2l-223 -338h-30l240 363l-232 347h30l216 -320h2l225 320h30l-243 -347l243 -363h-30z" />
    <glyph glyph-name="uni2169" unicode="&#x2169;" horiz-adv-x="700" 
d="M593 -41l-244 337h-2l-241 -337h-32l258 363l-250 351h32l234 -323h2l243 323h32l-261 -351l261 -363h-32z" />
    <glyph glyph-name="uni2170" unicode="&#x2170;" horiz-adv-x="700" 
d="M336 -28v519h28v-519h-28zM336 673h28v-61h-28v61z" />
    <glyph glyph-name="uni2171" unicode="&#x2171;" horiz-adv-x="700" 
d="M204 -38v519h28v-519h-28zM468 -38v519h28v-519h-28zM204 673h28v-61h-28v61zM468 673h28v-61h-28v61z" />
    <glyph glyph-name="uni2172" unicode="&#x2172;" horiz-adv-x="700" 
d="M112 -38v519h28v-519h-28zM340 -38v519h28v-519h-28zM559 -38v519h28v-519h-28zM112 673h28v-61h-28v61zM340 673h28v-61h-28v61zM559 673h28v-61h-28v61z" />
    <glyph glyph-name="uni2173" unicode="&#x2173;" horiz-adv-x="700" 
d="M91 -38v519h28v-519h-28zM249 473l165 -484l161 484h33l-176 -515h-38l-175 515h30zM91 673h28v-61h-28v61z" />
    <glyph glyph-name="uni2174" unicode="&#x2174;" horiz-adv-x="700" 
d="M175 473l175 -484l171 484h33l-186 -515h-38l-185 515h30z" />
    <glyph glyph-name="uni2175" unicode="&#x2175;" horiz-adv-x="700" 
d="M578 -38v519h28v-519h-28zM124 473l165 -484l161 484h33l-176 -515h-38l-175 515h30zM578 673h28v-61h-28v61z" />
    <glyph glyph-name="uni2176" unicode="&#x2176;" horiz-adv-x="700" 
d="M486 -38v519h28v-519h-28zM72 473l145 -484l141 484h33l-156 -515h-38l-155 515h30zM630 -38v519h28v-519h-28zM486 673h28v-61h-28v61zM630 673h28v-61h-28v61z" />
    <glyph glyph-name="uni2177" unicode="&#x2177;" horiz-adv-x="700" 
d="M431 -38v519h28v-519h-28zM27 473l145 -484l141 484h33l-156 -515h-38l-155 515h30zM555 -38v519h28v-519h-28zM676 -38v519h28v-519h-28zM431 673h28v-61h-28v61zM555 673h28v-61h-28v61zM676 673h28v-61h-28v61z" />
    <glyph glyph-name="uni2178" unicode="&#x2178;" horiz-adv-x="700" 
d="M84 -38v519h28v-519h-28zM446 219l175 -258h-33l-159 235l-160 -235h-33l176 258l-166 253h32l151 -230l150 230h32zM78 673h28v-61h-28v61z" />
    <glyph glyph-name="uni2179" unicode="&#x2179;" horiz-adv-x="700" 
d="M367 219l185 -258h-33l-98 138q-19 26 -37.5 54t-33.5 48q-15 -20 -35 -50t-39 -55l-96 -135h-33l186 258l-186 253h32l96 -130q19 -25 39.5 -55t35.5 -50q15 20 34 48t38 54l98 133h32z" />
    <glyph glyph-name="arrowleft" unicode="&#x2190;" horiz-adv-x="700" 
d="M-100 300l181 163l-88 -151h807v-24h-807l88 -151z" />
    <glyph glyph-name="arrowup" unicode="&#x2191;" horiz-adv-x="700" 
d="M513 618l-151 88v-906h-24v906l-151 -88l163 181z" />
    <glyph glyph-name="arrowright" unicode="&#x2192;" horiz-adv-x="700" 
d="M619 137l88 151h-807v24h807l-88 151l181 -163z" />
    <glyph glyph-name="arrowdown" unicode="&#x2193;" horiz-adv-x="700" 
d="M350 -199l-163 181l151 -88v906h24v-906l151 88z" />
    <glyph glyph-name="arrowboth" unicode="&#x2194;" horiz-adv-x="700" 
d="M625 141l83 148h-715l83 -148l-177 159l177 159l-83 -148h715l-83 148l176 -159z" />
    <glyph glyph-name="arrowupdn" unicode="&#x2195;" horiz-adv-x="700" 
d="M509 622l-148 83v-811l148 83l-159 -177l-159 177l148 -83v811l-148 -83l159 176z" />
    <glyph glyph-name="uni2196" unicode="&#x2196;" horiz-adv-x="700" 
d="M768 -188l-791 878l-62 -153v243l241 -27l-162 -45l791 -879z" />
    <glyph glyph-name="uni2197" unicode="&#x2197;" horiz-adv-x="700" 
d="M723 690l-791 -878l-17 17l791 879l-162 45l241 27v-243z" />
    <glyph glyph-name="uni2198" unicode="&#x2198;" horiz-adv-x="700" 
d="M544 -155l162 45l-791 879l17 17l791 -878l62 153v-243z" />
    <glyph glyph-name="uni2199" unicode="&#x2199;" horiz-adv-x="700" 
d="M-6 -110l162 -45l-241 -27v243l62 -153l791 878l17 -17z" />
    <glyph glyph-name="arrowdblright" unicode="&#x21d2;" horiz-adv-x="700" 
d="M550 47l-21 21l125 124h-754v29h782l79 78l-79 78h-782v29h753l-124 123l21 21l250 -251z" />
    <glyph glyph-name="arrowdblboth" unicode="&#x21d4;" horiz-adv-x="700" 
d="M682 377h-663l-79 -78l79 -78h663l79 78zM550 47l-21 21l125 124h-607l125 -124l-21 -21l-250 252l250 251l21 -21l-124 -123h605l-124 123l21 21l250 -251z" />
    <glyph glyph-name="universal" unicode="&#x2200;" horiz-adv-x="700" 
d="M365 -40h-30l-264 714h28l82 -222h337l83 222h28zM350 -1l158 425h-316z" />
    <glyph glyph-name="partialdiff" unicode="&#x2202;" horiz-adv-x="700" 
d="M453 314q-10 3 -23.5 5t-26.5 2q-33 0 -64 -10.5t-55 -29.5t-38.5 -46t-14.5 -60q0 -26 16.5 -40.5t38.5 -14.5q29 0 53 16.5t43 39.5q12 15 22 29.5t18.5 30t16 34.5t13.5 44h1zM513 354q0 -51 -18 -97t-49 -81t-72.5 -55.5t-88.5 -20.5q-40 0 -69 22.5t-29 64.5
q0 40 19.5 70.5t49.5 51t66 30.5t68 10q20 0 37.5 -4t27.5 -9q1 10 0.5 33.5t-8.5 47.5t-26.5 42.5t-54.5 18.5q-38 0 -65.5 -16t-55.5 -45l-22 15q11 13 26 27.5t34 25.5t42 18.5t51 7.5q66 0 101.5 -43.5t35.5 -113.5z" />
    <glyph glyph-name="existential" unicode="&#x2203;" horiz-adv-x="700" 
d="M114 -39v28h435v329h-404v27h404v300h-428v28h464v-712h-471z" />
    <glyph glyph-name="gradient" unicode="&#x2207;" horiz-adv-x="700" 
d="M22 565l327 -523l329 523h-656zM349 -22l-388 618h778z" />
    <glyph glyph-name="element" unicode="&#x2208;" horiz-adv-x="700" 
d="M290 556q-131 0 -193.5 -61.5t-65.5 -170.5h667v-28h-667q3 -110 65.5 -171t193.5 -61h408v-28h-408q-151 0 -220 72.5t-69 201.5t69 201.5t220 72.5h408v-28h-408z" />
    <glyph glyph-name="suchthat" unicode="&#x220b;" horiz-adv-x="700" 
d="M409 556h-408v28h408q151 0 220 -72.5t69 -201.5t-69 -201.5t-220 -72.5h-408v28h408q131 0 193 61t66 171h-667v28h667q-4 109 -66 170.5t-193 61.5z" />
    <glyph glyph-name="product" unicode="&#x220f;" horiz-adv-x="700" 
d="M522 638v-677h-43v677h-258v-677h-43v677h-149v35h642v-35h-149z" />
    <glyph glyph-name="summation" unicode="&#x2211;" horiz-adv-x="700" 
d="M92 -39v32l290 334l-281 304v42h503v-34h-440l284 -315l-288 -329h448v-34h-516z" />
    <glyph glyph-name="radical" unicode="&#x221a;" horiz-adv-x="700" 
d="M350 583l-209 -646l-110 206l-53 -42l-16 21l77 68l96 -178l192 600h412v-29h-389z" />
    <glyph glyph-name="proportional" unicode="&#x221d;" horiz-adv-x="700" 
d="M191 157q40 0 69 11.5t50.5 32t38 49t33.5 63.5q-14 26 -31.5 54t-41 51.5t-52.5 39t-66 15.5q-28 0 -55.5 -12t-49 -33.5t-35 -50t-13.5 -61.5q0 -37 14 -66.5t36.5 -50t49.5 -31.5t53 -11zM674 436q-22 14 -48 24.5t-46 10.5q-30 0 -55 -12t-46 -33t-38 -50t-32 -62
q13 -33 30.5 -61.5t39.5 -49.5t47 -33.5t54 -12.5q20 0 42.5 5.5t42.5 14.5l10 -28q-24 -13 -48 -16.5t-47 -3.5q-30 0 -58 14t-52 35.5t-42.5 48.5t-30.5 53q-14 -24 -32 -50t-41.5 -48.5t-54.5 -37t-71 -14.5q-33 0 -66.5 11.5t-60.5 35t-44 58t-17 81.5q0 44 16.5 78.5
t43 58t60 35.5t67.5 12q38 0 68.5 -14.5t54.5 -36.5t42.5 -48t32.5 -50q16 28 34.5 55t41 48t49.5 33.5t60 12.5q28 0 55.5 -10t53.5 -29z" />
    <glyph glyph-name="infinity" unicode="&#x221e;" horiz-adv-x="700" 
d="M337 313q-12 24 -29 49.5t-39.5 47.5t-51.5 36t-65 14q-66 0 -105 -40t-39 -106t37 -106t106 -40q36 0 65.5 14t52 35.5t39.5 47t29 48.5zM363 313q12 -23 29 -48.5t39.5 -47t52 -35.5t65.5 -14q69 0 106 40t37 106t-39 106t-105 40q-36 0 -65 -14t-51.5 -36t-39.5 -47.5
t-29 -49.5zM350 350q13 24 31 49.5t43 46.5t57 35t73 14q33 0 64.5 -12t56 -35t39 -57t14.5 -77q0 -45 -15 -79t-40 -56.5t-56 -34t-64 -11.5q-41 0 -73 13.5t-56.5 34.5t-42.5 46.5t-31 48.5q-13 -23 -31 -48.5t-42.5 -46.5t-56.5 -34.5t-73 -13.5q-33 0 -64 11.5t-56 34
t-40 56.5t-15 79q0 43 14.5 77t39 57t56 35t64.5 12q41 0 73 -14t57 -35t43 -46.5t31 -49.5z" />
    <glyph glyph-name="angle" unicode="&#x2220;" horiz-adv-x="700" 
d="M653 0h-606v18l484 563l20 -17l-464 -540h566v-24z" />
    <glyph glyph-name="logicaland" unicode="&#x2227;" horiz-adv-x="700" 
d="M340 587h20l295 -570l-24 -12l-281 543l-281 -543l-24 12z" />
    <glyph glyph-name="logicalor" unicode="&#x2228;" horiz-adv-x="700" 
d="M45 573l24 12l281 -543l281 543l24 -12l-295 -570h-20z" />
    <glyph glyph-name="intersection" unicode="&#x2229;" horiz-adv-x="700" 
d="M350 644q-116 0 -181 -64.5t-65 -199.5v-408h-28v408q0 151 72.5 220t201.5 69t201.5 -69t72.5 -220v-408h-28v408q0 135 -65.5 199.5t-180.5 64.5z" />
    <glyph glyph-name="union" unicode="&#x222a;" horiz-adv-x="700" 
d="M350 -29q115 0 180.5 64.5t65.5 199.5v408h28v-408q0 -151 -72.5 -220t-201.5 -69t-201.5 69t-72.5 220v408h28v-408q0 -135 65 -199.5t181 -64.5z" />
    <glyph glyph-name="integral" unicode="&#x222b;" horiz-adv-x="700" 
d="M517 647q-6 17 -21.5 29.5t-36.5 12.5q-15 0 -29.5 -27t-26.5 -77.5t-21 -122.5t-12 -162q-3 -106 -14 -190t-35 -141q-14 -35 -35.5 -57.5t-49.5 -22.5q-30 0 -50.5 14.5t-29.5 33.5l25 13q7 -14 22.5 -26.5t35.5 -12.5q15 0 30 27t27.5 77t21 122.5t10.5 162.5
q2 106 14 190t36 141q14 35 35.5 57.5t49.5 22.5q27 0 49.5 -14.5t31.5 -36.5z" />
    <glyph glyph-name="uni222C" unicode="&#x222c;" horiz-adv-x="700" 
d="M396 647q-6 17 -21.5 29.5t-36.5 12.5q-15 0 -29.5 -27t-26.5 -77.5t-21 -122.5t-12 -162q-3 -106 -14 -190t-35 -141q-14 -35 -35.5 -57.5t-49.5 -22.5q-30 0 -50.5 14.5t-30.5 33.5l26 13q7 -14 22 -26.5t36 -12.5q14 0 29 27t28 77t21.5 122.5t10.5 162.5
q2 106 13.5 190t35.5 141q15 35 36 57.5t49 22.5t50 -15t32 -36zM639 647q-6 17 -21.5 29.5t-36.5 12.5q-15 0 -29.5 -27t-26.5 -77.5t-21 -122.5t-12 -162q-3 -106 -14 -190t-35 -141q-14 -35 -35.5 -57.5t-49.5 -22.5q-30 0 -50.5 14.5t-30.5 33.5l26 13q7 -14 22 -26.5
t36 -12.5q14 0 29 27t28 77t21.5 122.5t10.5 162.5q2 106 13.5 190t35.5 141q14 35 35.5 57.5t49.5 22.5q27 0 49 -15t33 -36z" />
    <glyph glyph-name="uni222E" unicode="&#x222e;" horiz-adv-x="700" 
d="M371 158q-2 -1 -5 -1t-5 -1q-5 -57 -15 -104t-25 -83q-14 -35 -35.5 -57.5t-49.5 -22.5q-30 0 -50.5 14.5t-29.5 33.5l25 13q7 -14 22.5 -26.5t35.5 -12.5q23 0 45.5 64.5t34.5 181.5q-24 3 -45.5 12.5t-38.5 24.5t-27 35.5t-10 46.5q0 30 10 58t28 50.5t43 37.5t54 20h3
q6 58 16 105t26 84q14 35 35.5 57.5t49.5 22.5q27 0 49.5 -14.5t31.5 -36.5l-27 -13q-6 17 -21.5 29.5t-36.5 12.5q-24 0 -45.5 -65t-33.5 -181q24 -3 46.5 -11.5t40.5 -23.5t28.5 -36.5t10.5 -49.5q0 -30 -10 -57.5t-28 -49.5t-42.5 -37.5t-54.5 -19.5zM472 317
q-2 50 -30 71.5t-65 23.5q-2 -26 -4 -54t-3 -58q-2 -59 -6 -110h2q48 8 77.5 43.5t28.5 83.5zM328 300q1 29 2 56t3 53q-23 -5 -41.5 -17.5t-32 -30t-20.5 -38.5t-6 -42q3 -51 28.5 -71.5t60.5 -22.5q5 53 6 113z" />
    <glyph glyph-name="therefore" unicode="&#x2234;" horiz-adv-x="700" 
d="M137 123q0 -17 -11.5 -28.5t-28.5 -11.5t-28.5 11.5t-11.5 28.5t11.5 28.5t28.5 11.5t28.5 -11.5t11.5 -28.5zM643 123q0 -17 -11.5 -28.5t-28.5 -11.5t-28.5 11.5t-11.5 28.5t11.5 28.5t28.5 11.5t28.5 -11.5t11.5 -28.5zM390 548q0 -17 -11.5 -28.5t-28.5 -11.5
t-28.5 11.5t-11.5 28.5t11.5 28.5t28.5 11.5t28.5 -11.5t11.5 -28.5z" />
    <glyph glyph-name="uni2235" unicode="&#x2235;" horiz-adv-x="700" 
d="M137 534q0 -17 -11.5 -28.5t-28.5 -11.5t-28.5 11.5t-11.5 28.5t11.5 28.5t28.5 11.5t28.5 -11.5t11.5 -28.5zM643 534q0 -17 -11.5 -28.5t-28.5 -11.5t-28.5 11.5t-11.5 28.5t11.5 28.5t28.5 11.5t28.5 -11.5t11.5 -28.5zM390 109q0 -17 -11.5 -28.5t-28.5 -11.5
t-28.5 11.5t-11.5 28.5t11.5 28.5t28.5 11.5t28.5 -11.5t11.5 -28.5z" />
    <glyph glyph-name="similar" unicode="&#x223c;" horiz-adv-x="700" 
d="M632 339q-11 -18 -27.5 -35t-37 -30t-42.5 -21t-44 -8q-43 0 -73.5 9t-62.5 26q-26 14 -56 30t-70 16q-37 0 -69 -20t-51 -48l-31 21q11 18 27.5 34t37 28.5t42.5 19.5t44 7q43 0 73.5 -14t62.5 -31t59 -27.5t67 -10.5q37 0 69.5 23t51.5 51z" />
    <glyph glyph-name="similar" unicode="&#xff5e;" horiz-adv-x="700" 
d="M632 339q-11 -18 -27.5 -35t-37 -30t-42.5 -21t-44 -8q-43 0 -73.5 9t-62.5 26q-26 14 -56 30t-70 16q-37 0 -69 -20t-51 -48l-31 21q11 18 27.5 34t37 28.5t42.5 19.5t44 7q43 0 73.5 -14t62.5 -31t59 -27.5t67 -10.5q37 0 69.5 23t51.5 51z" />
    <glyph glyph-name="similar" unicode="&#x301c;" horiz-adv-x="700" 
d="M632 339q-11 -18 -27.5 -35t-37 -30t-42.5 -21t-44 -8q-43 0 -73.5 9t-62.5 26q-26 14 -56 30t-70 16q-37 0 -69 -20t-51 -48l-31 21q11 18 27.5 34t37 28.5t42.5 19.5t44 7q43 0 73.5 -14t62.5 -31t59 -27.5t67 -10.5q37 0 69.5 23t51.5 51z" />
    <glyph glyph-name="uni223D" unicode="&#x223d;" horiz-adv-x="700" 
d="M725 316q0 -38 -13.5 -71.5t-37.5 -59.5t-57 -41t-72 -15q-32 0 -60.5 10.5t-57.5 30.5l19 26q22 -17 48.5 -28t50.5 -11q35 0 62.5 14t47 37t29.5 51t10 57q0 33 -12 61.5t-32.5 49.5t-47.5 33t-56 12q-32 0 -56.5 -10t-44.5 -28.5t-37 -45t-34 -59.5l-8 -15
q-12 -24 -30 -56t-44 -60.5t-61 -48t-82 -19.5q-32 0 -62.5 13t-55.5 37.5t-40 59t-15 76.5q0 40 15 74t39 58.5t55 38t63 13.5t63 -10t57 -26l-16 -24q-23 13 -49.5 21.5t-47.5 8.5q-36 0 -64 -12t-46.5 -33t-28 -49t-9.5 -60q0 -31 11.5 -59.5t32 -50t47 -34t56.5 -12.5
q41 0 73 20.5t56 49.5t41 61t28 56q15 30 32.5 57.5t40.5 48.5t52 34t67 13q40 0 73 -15.5t57 -41t37.5 -58.5t13.5 -69z" />
    <glyph glyph-name="uni2252" unicode="&#x2252;" horiz-adv-x="700" 
d="M208 540q0 -20 -15.5 -33.5t-35.5 -13.5t-35.5 13.5t-15.5 33.5q0 23 15.5 37t35.5 14t35.5 -14t15.5 -37zM594 74q0 -20 -14 -35.5t-37 -15.5q-20 0 -35.5 15.5t-15.5 35.5t15.5 35.5t35.5 15.5q23 0 37 -15.5t14 -35.5zM672 379h-644v28h644v-28zM672 211h-644v28h644
v-28z" />
    <glyph glyph-name="notequal" unicode="&#x2260;" horiz-adv-x="700" 
d="M295 190h-239v36h248l45 172h-293v36h302l52 201l35 -8l-50 -193h248v-36h-258l-44 -172h302v-36h-311l-53 -207l-35 9z" />
    <glyph glyph-name="equivalence" unicode="&#x2261;" horiz-adv-x="700" 
d="M672 462h-644v28h644v-28zM672 297h-644v28h644v-28zM672 132h-644v28h644v-28z" />
    <glyph glyph-name="lessequal" unicode="&#x2264;" horiz-adv-x="700" 
d="M44 -37v31h612v-31h-612zM55 346v30l569 289l15 -26l-542 -278l542 -278l-15 -26z" />
    <glyph glyph-name="greaterequal" unicode="&#x2265;" horiz-adv-x="700" 
d="M44 -37v31h612v-31h-612zM76 57l-15 26l542 278l-542 278l15 26l569 -289v-30z" />
    <glyph glyph-name="propersubset" unicode="&#x2282;" horiz-adv-x="700" 
d="M31 310q0 -116 62 -181t197 -65h408v-28h-408q-151 0 -220 72.5t-69 201.5t69 201.5t220 72.5h408v-28h-408q-68 0 -116.5 -17t-80.5 -48.5t-47 -77t-15 -103.5z" />
    <glyph glyph-name="propersuperset" unicode="&#x2283;" horiz-adv-x="700" 
d="M668 310q0 58 -15 103.5t-47 77t-81 48.5t-116 17h-408v28h408q151 0 220 -72.5t69 -201.5t-69 -201.5t-220 -72.5h-408v28h408q135 0 197 65t62 181z" />
    <glyph glyph-name="reflexsubset" unicode="&#x2286;" horiz-adv-x="700" 
d="M0 378q0 64 17 109.5t52 73.5t90 41t130 13h408v-28h-408q-68 0 -116.5 -11t-80.5 -36t-47 -64.5t-15 -97.5t15 -98t47 -64.5t80.5 -35.5t116.5 -11h408v-28h-408q-75 0 -130 13t-90 41t-52 73t-17 110zM0 -4v28h701v-28h-701z" />
    <glyph glyph-name="reflexsuperset" unicode="&#x2287;" horiz-adv-x="700" 
d="M701 378q0 -65 -17 -110t-52 -73t-90 -41t-130 -13h-408v28h408q67 0 116 11t81 35.5t47 64.5t15 98t-15 97.5t-47 64.5t-81 36t-116 11h-408v28h408q75 0 130 -13t90 -41t52 -73.5t17 -109.5zM0 -4v28h701v-28h-701z" />
    <glyph glyph-name="uni2299" unicode="&#x2299;" horiz-adv-x="700" 
d="M498 299q0 -32 -12 -60.5t-33 -49.5t-49.5 -33t-60.5 -12t-60 12t-49 33t-33.5 49.5t-12.5 60.5t12.5 60.5t33.5 49.5t49 33t60 12t60.5 -12t49.5 -33t33 -49.5t12 -60.5zM718 300q0 76 -29 143t-79.5 117t-117.5 79.5t-142 29.5q-76 0 -143 -29.5t-117 -79.5t-79 -117
t-29 -143q0 -75 29 -142t79 -117t117 -79t143 -29q75 0 142 29t117.5 79t79.5 117t29 142zM744 300q0 -82 -31 -153.5t-84.5 -125t-125 -84.5t-153.5 -31q-81 0 -152.5 31t-125 84.5t-85 125t-31.5 153.5t31.5 154t85 125t125 84t152.5 31q82 0 153.5 -31t125 -84t84.5 -125
t31 -154z" />
    <glyph glyph-name="uni2299" unicode="&#x25c9;" horiz-adv-x="700" 
d="M498 299q0 -32 -12 -60.5t-33 -49.5t-49.5 -33t-60.5 -12t-60 12t-49 33t-33.5 49.5t-12.5 60.5t12.5 60.5t33.5 49.5t49 33t60 12t60.5 -12t49.5 -33t33 -49.5t12 -60.5zM718 300q0 76 -29 143t-79.5 117t-117.5 79.5t-142 29.5q-76 0 -143 -29.5t-117 -79.5t-79 -117
t-29 -143q0 -75 29 -142t79 -117t117 -79t143 -29q75 0 142 29t117.5 79t79.5 117t29 142zM744 300q0 -82 -31 -153.5t-84.5 -125t-125 -84.5t-153.5 -31q-81 0 -152.5 31t-125 84.5t-85 125t-31.5 153.5t31.5 154t85 125t125 84t152.5 31q82 0 153.5 -31t125 -84t84.5 -125
t31 -154z" />
    <glyph glyph-name="perpendicular" unicode="&#x22a5;" horiz-adv-x="700" 
d="M667 0h-635v26h302v539h31v-539h302v-26z" />
    <glyph glyph-name="uni2312" unicode="&#x2312;" horiz-adv-x="700" 
d="M562 513q-16 24 -36.5 45.5t-46.5 38t-57.5 26t-67.5 9.5q-39 0 -71.5 -9.5t-59 -26t-46.5 -38t-34 -45.5h-36q19 31 43 57.5t54 45.5t67 29.5t81 10.5q86 0 144.5 -40.5t96.5 -102.5h-31z" />
    <glyph glyph-name="uni2460" unicode="&#x2460;" horiz-adv-x="700" 
d="M257 451q-9 -7 -15 1l-5 7q-7 9 1 15l123 106q4 3 10 3h10q11 0 11 -11v-549q0 -11 -11 -11h-10q-11 0 -11 11v516zM762 301q0 86 -32 161t-88 131t-131 88t-161 32t-161 -32t-131 -88t-88 -131t-32 -161t32 -161t88 -131t131 -88t161 -32t161 32t131 88t88 131t32 161z
M793 301q0 -92 -35 -172.5t-95 -140.5t-141 -95t-172 -35q-92 0 -172.5 35t-140.5 95t-95 140.5t-35 172.5q0 91 35 172t95 141t140.5 95t172.5 35q91 0 172 -35t141 -95t95 -141t35 -172z" />
    <glyph glyph-name="uni2461" unicode="&#x2461;" horiz-adv-x="700" 
d="M199 37q-8 0 -8 8v21q0 6 4 10l129 136q33 34 61.5 67.5t49.5 65t33 61t12 56.5q0 51 -36.5 82.5t-97.5 31.5q-30 0 -64.5 -11t-64.5 -28q-5 -2 -6 0t-3 7l-3 16q0 5 2 6.5t7 3.5q43 20 71 27.5t58 7.5q39 0 70 -10.5t53 -29.5t33.5 -44.5t11.5 -56.5q-2 -44 -17 -75
t-37 -66q-22 -28 -46.5 -58t-56.5 -65l-131 -134h293q8 0 8 -8v-13q0 -8 -8 -8h-317zM762 301q0 86 -32 161t-88 131t-131 88t-161 32t-161 -32t-131 -88t-88 -131t-32 -161t32 -161t88 -131t131 -88t161 -32t161 32t131 88t88 131t32 161zM793 301q0 -92 -35 -172.5
t-95 -140.5t-141 -95t-172 -35q-92 0 -172.5 35t-140.5 95t-95 140.5t-35 172.5q0 91 35 172t95 141t140.5 95t172.5 35q91 0 172 -35t141 -95t95 -141t35 -172z" />
    <glyph glyph-name="uni2462" unicode="&#x2462;" horiz-adv-x="700" 
d="M793 301q0 -92 -35 -172.5t-95 -140.5t-141 -95t-172 -35q-92 0 -172.5 35t-140.5 95t-95 140.5t-35 172.5q0 91 35 172t95 141t140.5 95t172.5 35q91 0 172 -35t141 -95t95 -141t35 -172zM762 301q0 86 -32 161t-88 131t-131 88t-161 32t-161 -32t-131 -88t-88 -131
t-32 -161t32 -161t88 -131t131 -88t161 -32t161 32t131 88t88 131t32 161zM241 543q-8 -2 -9 4l-3 15q-1 6 8 11q34 11 64.5 16.5t64.5 5.5t66.5 -8t57.5 -25t40.5 -43.5t15.5 -63.5q0 -29 -10.5 -52t-28 -40.5t-40 -28t-46.5 -14.5q28 -1 51.5 -12t40 -30t25.5 -43t9 -51
q0 -41 -17.5 -72t-46 -51.5t-65.5 -30.5t-76 -9q-40 1 -70 5t-60 13q-8 3 -7 12l2 16q2 7 9 2q32 -12 62 -15.5t68 -4.5q32 -1 62.5 7.5t54 26t38 44t14.5 62.5q0 54 -41 85t-142 31h-38q-10 0 -10 11v6q0 12 10 12h3q36 0 74.5 3.5t70 16t52 36.5t20.5 65q0 29 -13 50
t-34 35t-48.5 20.5t-57.5 6.5q-26 0 -58.5 -6.5t-61.5 -17.5z" />
    <glyph glyph-name="uni2463" unicode="&#x2463;" horiz-adv-x="700" 
d="M793 301q0 -92 -35 -172.5t-95 -140.5t-141 -95t-172 -35q-92 0 -172.5 35t-140.5 95t-95 140.5t-35 172.5q0 91 35 172t95 141t140.5 95t172.5 35q91 0 172 -35t141 -95t95 -141t35 -172zM762 301q0 86 -32 161t-88 131t-131 88t-161 32t-161 -32t-131 -88t-88 -131
t-32 -161t32 -161t88 -131t131 -88t161 -32t161 32t131 88t88 131t32 161zM385 585q5 7 6.5 8t10.5 1h31q11 0 11 -11v-393h75q11 0 11 -11v-8q0 -10 -11 -10h-75v-123q0 -11 -11 -11h-10q-11 0 -11 11v123h-276q-11 0 -11 10v14q0 5 1 7l3 6zM157 190h255v380z" />
    <glyph glyph-name="uni2464" unicode="&#x2464;" horiz-adv-x="700" 
d="M237 347q19 8 47 13t65 4q39 -1 72 -11.5t57 -31.5t38 -51.5t14 -70.5q0 -48 -15.5 -84t-43 -60t-66 -36t-84.5 -12q-35 0 -60 4t-52 13q-11 3 -11 14v12q0 13 11 8q28 -14 54 -18t58 -4q41 0 73.5 11.5t55.5 32t35 48.5t12 60q0 33 -8 60t-27.5 46.5t-52 30t-81.5 10.5
q-20 0 -33 -2t-24 -5.5t-22 -7.5t-25 -8q-19 -5 -19 14l5 226v22q0 11 10 11h274q10 0 10 -11v-7q0 -11 -10 -11h-252zM762 301q0 86 -32 161t-88 131t-131 88t-161 32t-161 -32t-131 -88t-88 -131t-32 -161t32 -161t88 -131t131 -88t161 -32t161 32t131 88t88 131t32 161z
M793 301q0 -92 -35 -172.5t-95 -140.5t-141 -95t-172 -35q-92 0 -172.5 35t-140.5 95t-95 140.5t-35 172.5q0 91 35 172t95 141t140.5 95t172.5 35q91 0 172 -35t141 -95t95 -141t35 -172z" />
    <glyph glyph-name="uni2465" unicode="&#x2465;" horiz-adv-x="700" 
d="M762 301q0 86 -32 161t-88 131t-131 88t-161 32t-161 -32t-131 -88t-88 -131t-32 -161t32 -161t88 -131t131 -88t161 -32t161 32t131 88t88 131t32 161zM793 301q0 -92 -35 -172.5t-95 -140.5t-141 -95t-172 -35q-92 0 -172.5 35t-140.5 95t-95 140.5t-35 172.5
q0 91 35 172t95 141t140.5 95t172.5 35q91 0 172 -35t141 -95t95 -141t35 -172zM498 192q0 32 -8.5 59.5t-26 48t-45 32.5t-65.5 12q-33 0 -61.5 -11t-48.5 -30.5t-30.5 -46t-8.5 -57.5q1 -30 11.5 -59.5t29 -52.5t43.5 -37t57 -14t60 12.5t48.5 34t32.5 49.5t12 60z
M495 548q-18 6 -39.5 10t-44.5 3q-60 -3 -101 -25.5t-66.5 -60t-36.5 -88.5t-11 -112q17 44 56.5 71t99.5 27q82 0 130 -45.5t48 -131.5q0 -41 -13.5 -75.5t-37.5 -60t-58.5 -39.5t-76.5 -14q-83 0 -133.5 67.5t-50.5 203.5q0 67 14 124t44.5 99t79.5 65.5t119 23.5
q20 0 42 -3.5t40 -8.5q12 -1 10 -13l-1 -10q-1 -5 -5 -7t-8 0z" />
    <glyph glyph-name="uni2466" unicode="&#x2466;" horiz-adv-x="700" 
d="M517 559q10 0 10 -10v-14q0 -6 -2 -10l-215 -509q-7 -10 -15 -10h-13q-9 0 -6 10l218 515h-296q-10 0 -10 11v7q0 10 10 10h319zM762 301q0 86 -32 161t-88 131t-131 88t-161 32t-161 -32t-131 -88t-88 -131t-32 -161t32 -161t88 -131t131 -88t161 -32t161 32t131 88
t88 131t32 161zM793 301q0 -92 -35 -172.5t-95 -140.5t-141 -95t-172 -35q-92 0 -172.5 35t-140.5 95t-95 140.5t-35 172.5q0 91 35 172t95 141t140.5 95t172.5 35q91 0 172 -35t141 -95t95 -141t35 -172z" />
    <glyph glyph-name="uni2467" unicode="&#x2467;" horiz-adv-x="700" 
d="M356 4q-35 0 -69 9.5t-61 29t-44 48t-17 66.5q0 32 10 55t28 40.5t43 30.5t54 25q-117 57 -117 147q0 32 16 57t41 42t56 26t60 9q30 0 60.5 -9t56 -26t41.5 -42t16 -57q0 -90 -117 -147q29 -12 54 -25t43 -30.5t28 -40.5t10 -55q0 -38 -17 -66.5t-44 -48t-61.5 -29
t-69.5 -9.5zM516 156q0 29 -12.5 50.5t-32.5 37.5t-46.5 26.5t-53.5 18.5q-8 4 -14 4t-15 -4q-27 -8 -53.5 -18.5t-46.5 -26.5t-32.5 -37.5t-12.5 -50.5q0 -28 15.5 -50.5t39 -38.5t51.5 -25t53 -9t53.5 9t52 25t39 38.5t15.5 50.5zM367 323q21 6 44 18t42.5 28.5t32 37
t12.5 44.5q0 27 -13 47t-33.5 34t-45.5 21t-50 7q-24 0 -49.5 -7t-45.5 -21t-33 -34t-13 -47q0 -24 12.5 -44.5t32 -37t42.5 -28.5t44 -18q10 -3 21 0zM762 301q0 86 -32 161t-88 131t-131 88t-161 32t-161 -32t-131 -88t-88 -131t-32 -161t32 -161t88 -131t131 -88t161 -32
t161 32t131 88t88 131t32 161zM793 301q0 -92 -35 -172.5t-95 -140.5t-141 -95t-172 -35q-92 0 -172.5 35t-140.5 95t-95 140.5t-35 172.5q0 91 35 172t95 141t140.5 95t172.5 35q91 0 172 -35t141 -95t95 -141t35 -172z" />
    <glyph glyph-name="uni2468" unicode="&#x2468;" horiz-adv-x="700" 
d="M762 301q0 86 -32 161t-88 131t-131 88t-161 32t-161 -32t-131 -88t-88 -131t-32 -161t32 -161t88 -131t131 -88t161 -32t161 32t131 88t88 131t32 161zM793 301q0 -92 -35 -172.5t-95 -140.5t-141 -95t-172 -35q-92 0 -172.5 35t-140.5 95t-95 140.5t-35 172.5
q0 91 35 172t95 141t140.5 95t172.5 35q91 0 172 -35t141 -95t95 -141t35 -172zM202 404q0 -32 8.5 -59.5t26 -48t45 -32.5t65.5 -12q33 0 61.5 11t48.5 30.5t30.5 46t8.5 57.5q-2 30 -12 59.5t-28.5 52.5t-44 37t-56.5 14q-32 0 -60 -12.5t-48.5 -34t-32.5 -50t-12 -59.5z
M205 48q18 -6 39.5 -10t44.5 -3q60 3 101 25.5t66.5 60t36.5 88.5t11 112q-17 -44 -56.5 -71t-99.5 -27q-82 0 -130 45.5t-48 131.5q0 41 13.5 75.5t37.5 60t58.5 39.5t76.5 14q41 0 75 -17t58 -50.5t37.5 -84.5t13.5 -119q0 -67 -14 -124t-44.5 -99t-79.5 -65.5t-119 -23.5
q-20 0 -42 3.5t-40 8.5q-12 1 -10 13l1 10q1 5 5 7t8 0z" />
    <glyph glyph-name="uni2469" unicode="&#x2469;" horiz-adv-x="700" 
d="M72 451q-9 -7 -15 1l-5 7q-7 9 1 15l123 106q4 3 10 3h10q11 0 11 -11v-549q0 -11 -11 -11h-10q-11 0 -11 11v516zM652 298q0 -50 -8 -101.5t-28.5 -93.5t-56.5 -68.5t-93 -26.5t-93 26.5t-56.5 68.5t-28.5 93.5t-8 101.5t8 101.5t28.5 93.5t56.5 68.5t93 26.5t93 -26.5
t56.5 -68.5t28.5 -93.5t8 -101.5zM621 298q0 45 -7 91.5t-24.5 84t-47.5 61.5t-76 24t-76 -24t-47 -61.5t-24 -84t-7 -91.5t7 -91.5t24 -84t47 -61.5t76 -24t76 24t47.5 61.5t24.5 84t7 91.5zM762 301q0 86 -32 161t-88 131t-131 88t-161 32t-161 -32t-131 -88t-88 -131
t-32 -161t32 -161t88 -131t131 -88t161 -32t161 32t131 88t88 131t32 161zM793 301q0 -92 -35 -172.5t-95 -140.5t-141 -95t-172 -35q-92 0 -172.5 35t-140.5 95t-95 140.5t-35 172.5q0 91 35 172t95 141t140.5 95t172.5 35q91 0 172 -35t141 -95t95 -141t35 -172z" />
    <glyph glyph-name="uni246A" unicode="&#x246a;" horiz-adv-x="700" 
d="M119 451q-9 -7 -15 1l-5 7q-7 9 1 15l123 106q4 3 10 3h10q11 0 11 -11v-549q0 -11 -11 -11h-10q-11 0 -11 11v516zM392 451q-9 -7 -15 1l-5 7q-7 9 1 15l123 106q4 3 10 3h10q11 0 11 -11v-549q0 -11 -11 -11h-10q-11 0 -11 11v516zM762 301q0 86 -32 161t-88 131
t-131 88t-161 32t-161 -32t-131 -88t-88 -131t-32 -161t32 -161t88 -131t131 -88t161 -32t161 32t131 88t88 131t32 161zM793 301q0 -92 -35 -172.5t-95 -140.5t-141 -95t-172 -35q-92 0 -172.5 35t-140.5 95t-95 140.5t-35 172.5q0 91 35 172t95 141t140.5 95t172.5 35
q91 0 172 -35t141 -95t95 -141t35 -172z" />
    <glyph glyph-name="uni246B" unicode="&#x246b;" horiz-adv-x="700" 
d="M67 451q-9 -7 -15 1l-5 7q-7 9 1 15l123 106q4 3 10 3h10q11 0 11 -11v-549q0 -11 -11 -11h-10q-11 0 -11 11v516zM294 12q-8 0 -8 8v21q0 6 4 10l129 136q33 34 61.5 67.5t49.5 65t33 61t12 56.5q0 51 -36.5 82.5t-97.5 31.5q-30 0 -64.5 -11t-64.5 -28q-5 -2 -6 0t-3 7
l-3 16q0 5 2 6.5t7 3.5q43 20 71 27.5t58 7.5q39 0 70 -10.5t53 -29.5t33.5 -44.5t11.5 -56.5q-2 -44 -17 -75t-37 -66q-22 -28 -46.5 -58t-56.5 -65l-131 -134h293q8 0 8 -8v-13q0 -8 -8 -8h-317zM762 301q0 86 -32 161t-88 131t-131 88t-161 32t-161 -32t-131 -88
t-88 -131t-32 -161t32 -161t88 -131t131 -88t161 -32t161 32t131 88t88 131t32 161zM793 301q0 -92 -35 -172.5t-95 -140.5t-141 -95t-172 -35q-92 0 -172.5 35t-140.5 95t-95 140.5t-35 172.5q0 91 35 172t95 141t140.5 95t172.5 35q91 0 172 -35t141 -95t95 -141t35 -172z
" />
    <glyph glyph-name="uni246C" unicode="&#x246c;" horiz-adv-x="700" 
d="M793 301q0 -92 -35 -172.5t-95 -140.5t-141 -95t-172 -35q-92 0 -172.5 35t-140.5 95t-95 140.5t-35 172.5q0 91 35 172t95 141t140.5 95t172.5 35q91 0 172 -35t141 -95t95 -141t35 -172zM762 301q0 86 -32 161t-88 131t-131 88t-161 32t-161 -32t-131 -88t-88 -131
t-32 -161t32 -161t88 -131t131 -88t161 -32t161 32t131 88t88 131t32 161zM311 528q-8 -2 -9 4l-3 15q-1 6 8 11q34 11 64.5 16.5t64.5 5.5t66.5 -8t57.5 -25t40.5 -43.5t15.5 -63.5q0 -29 -10.5 -52t-28 -40.5t-40 -28t-46.5 -14.5q28 -1 51.5 -12t40 -30t25.5 -43t9 -51
q0 -41 -17.5 -72t-46 -51.5t-65.5 -30.5t-76 -9q-40 1 -70 5t-60 13q-8 3 -7 12l2 16q2 7 9 2q32 -12 62 -15.5t68 -4.5q32 -1 62.5 7.5t54 26t38 44t14.5 62.5q0 54 -41 85t-142 31h-38q-10 0 -10 11v6q0 12 10 12h3q36 0 74.5 3.5t70 16t52 36.5t20.5 65q0 29 -13 50
t-34 35t-48.5 20.5t-57.5 6.5q-26 0 -58.5 -6.5t-61.5 -17.5zM72 451q-9 -7 -15 1l-5 7q-7 9 1 15l123 106q4 3 10 3h10q11 0 11 -11v-549q0 -11 -11 -11h-10q-11 0 -11 11v516z" />
    <glyph glyph-name="uni246D" unicode="&#x246d;" horiz-adv-x="700" 
d="M793 301q0 -92 -35 -172.5t-95 -140.5t-141 -95t-172 -35q-92 0 -172.5 35t-140.5 95t-95 140.5t-35 172.5q0 91 35 172t95 141t140.5 95t172.5 35q91 0 172 -35t141 -95t95 -141t35 -172zM762 301q0 86 -32 161t-88 131t-131 88t-161 32t-161 -32t-131 -88t-88 -131
t-32 -161t32 -161t88 -131t131 -88t161 -32t161 32t131 88t88 131t32 161zM500 573q5 7 6.5 8t10.5 1h31q11 0 11 -11v-393h75q11 0 11 -11v-8q0 -10 -11 -10h-75v-127q0 -11 -11 -11h-10q-11 0 -11 11v127h-276q-11 0 -11 10v14q0 5 1 7l3 6zM272 178h255v380zM72 451
q-9 -7 -15 1l-5 7q-7 9 1 15l123 106q4 3 10 3h10q11 0 11 -11v-549q0 -11 -11 -11h-10q-11 0 -11 11v516z" />
    <glyph glyph-name="uni246E" unicode="&#x246e;" horiz-adv-x="700" 
d="M72 451q-9 -7 -15 1l-5 7q-7 9 1 15l123 106q4 3 10 3h10q11 0 11 -11v-549q0 -11 -11 -11h-10q-11 0 -11 11v516zM337 342q19 8 47 13t65 4q39 -1 72 -11.5t57 -31.5t38 -51.5t14 -70.5q0 -48 -15.5 -84t-43 -60t-66 -36t-84.5 -12q-35 0 -60 4t-52 13q-11 3 -11 14v12
q0 13 11 8q28 -14 54 -18t58 -4q41 0 73.5 11.5t55.5 32t35 48.5t12 60q0 33 -8 60t-27.5 46.5t-52 30t-81.5 10.5q-20 0 -33 -2t-24 -5.5t-22 -7.5t-25 -8q-19 -5 -19 14l5 226v22q0 11 10 11h274q10 0 10 -11v-7q0 -11 -10 -11h-252zM762 301q0 86 -32 161t-88 131
t-131 88t-161 32t-161 -32t-131 -88t-88 -131t-32 -161t32 -161t88 -131t131 -88t161 -32t161 32t131 88t88 131t32 161zM793 301q0 -92 -35 -172.5t-95 -140.5t-141 -95t-172 -35q-92 0 -172.5 35t-140.5 95t-95 140.5t-35 172.5q0 91 35 172t95 141t140.5 95t172.5 35
q91 0 172 -35t141 -95t95 -141t35 -172z" />
    <glyph glyph-name="uni2474" unicode="&#x2474;" horiz-adv-x="700" 
d="M47 -165q-56 85 -84.5 207t-28.5 258t28.5 258t84.5 207h23q-31 -60 -50.5 -118t-31 -115.5t-15.5 -115t-4 -116.5t4 -116.5t15.5 -115t31 -115.5t50.5 -118h-23zM766 300q0 -136 -28.5 -258t-84.5 -207h-23q31 60 50.5 118t30.5 115.5t15.5 115t4.5 116.5t-4.5 116.5
t-15.5 115t-30.5 115.5t-50.5 118h23q56 -85 84.5 -207t28.5 -258zM258 451q-9 -7 -15 1l-5 7q-7 9 1 15l123 106q4 3 10 3h10q11 0 11 -11v-549q0 -11 -11 -11h-10q-11 0 -11 11v516z" />
    <glyph glyph-name="uni2475" unicode="&#x2475;" horiz-adv-x="700" 
d="M47 -165q-56 85 -84.5 207t-28.5 258t28.5 258t84.5 207h23q-31 -60 -50.5 -118t-31 -115.5t-15.5 -115t-4 -116.5t4 -116.5t15.5 -115t31 -115.5t50.5 -118h-23zM766 300q0 -136 -28.5 -258t-84.5 -207h-23q31 60 50.5 118t30.5 115.5t15.5 115t4.5 116.5t-4.5 116.5
t-15.5 115t-30.5 115.5t-50.5 118h23q56 -85 84.5 -207t28.5 -258zM200 37q-8 0 -8 8v21q0 6 4 10l129 136q33 34 61.5 67.5t49.5 65t33 61t12 56.5q0 51 -36.5 82.5t-97.5 31.5q-30 0 -64.5 -11t-64.5 -28q-5 -2 -6 0t-3 7l-3 16q0 5 2 6.5t7 3.5q43 20 71 27.5t58 7.5
q39 0 70 -10.5t53 -29.5t33.5 -44.5t11.5 -56.5q-2 -44 -17 -75t-37 -66q-22 -28 -46.5 -58t-56.5 -65l-131 -134h293q8 0 8 -8v-13q0 -8 -8 -8h-317z" />
    <glyph glyph-name="uni2476" unicode="&#x2476;" horiz-adv-x="700" 
d="M222 543q-8 -2 -9 4l-3 15q-1 6 8 11q34 11 64.5 16.5t64.5 5.5t66.5 -8t57.5 -25t40.5 -43.5t15.5 -63.5q0 -29 -10.5 -52t-28 -40.5t-40 -28t-46.5 -14.5q28 -1 51.5 -12t40 -30t25.5 -43t9 -51q0 -41 -17.5 -72t-46 -51.5t-65.5 -30.5t-76 -9q-40 1 -70 5t-60 13
q-8 3 -7 12l2 16q2 7 9 2q32 -12 62 -15.5t68 -4.5q32 -1 62.5 7.5t54 26t38 44t14.5 62.5q0 54 -41 85t-142 31h-38q-10 0 -10 11v6q0 12 10 12h3q36 0 74.5 3.5t70 16t52 36.5t20.5 65q0 29 -13 50t-34 35t-48.5 20.5t-57.5 6.5q-26 0 -58.5 -6.5t-61.5 -17.5zM766 300
q0 -136 -28.5 -258t-84.5 -207h-23q31 60 50.5 118t30.5 115.5t15.5 115t4.5 116.5t-4.5 116.5t-15.5 115t-30.5 115.5t-50.5 118h23q56 -85 84.5 -207t28.5 -258zM47 -165q-56 85 -84.5 207t-28.5 258t28.5 258t84.5 207h23q-31 -60 -50.5 -118t-31 -115.5t-15.5 -115
t-4 -116.5t4 -116.5t15.5 -115t31 -115.5t50.5 -118h-23z" />
    <glyph glyph-name="uni2477" unicode="&#x2477;" horiz-adv-x="700" 
d="M386 585q5 7 6.5 8t10.5 1h31q11 0 11 -11v-393h75q11 0 11 -11v-8q0 -10 -11 -10h-75v-123q0 -11 -11 -11h-10q-11 0 -11 11v123h-276q-11 0 -11 10v14q0 5 1 7l3 6zM158 190h255v380zM766 300q0 -136 -28.5 -258t-84.5 -207h-23q31 60 50.5 118t30.5 115.5t15.5 115
t4.5 116.5t-4.5 116.5t-15.5 115t-30.5 115.5t-50.5 118h23q56 -85 84.5 -207t28.5 -258zM47 -165q-56 85 -84.5 207t-28.5 258t28.5 258t84.5 207h23q-31 -60 -50.5 -118t-31 -115.5t-15.5 -115t-4 -116.5t4 -116.5t15.5 -115t31 -115.5t50.5 -118h-23z" />
    <glyph glyph-name="uni2478" unicode="&#x2478;" horiz-adv-x="700" 
d="M47 -165q-56 85 -84.5 207t-28.5 258t28.5 258t84.5 207h23q-31 -60 -50.5 -118t-31 -115.5t-15.5 -115t-4 -116.5t4 -116.5t15.5 -115t31 -115.5t50.5 -118h-23zM766 300q0 -136 -28.5 -258t-84.5 -207h-23q31 60 50.5 118t30.5 115.5t15.5 115t4.5 116.5t-4.5 116.5
t-15.5 115t-30.5 115.5t-50.5 118h23q56 -85 84.5 -207t28.5 -258zM238 347q19 8 47 13t65 4q39 -1 72 -11.5t57 -31.5t38 -51.5t14 -70.5q0 -48 -15.5 -84t-43 -60t-66 -36t-84.5 -12q-35 0 -60 4t-52 13q-11 3 -11 14v12q0 13 11 8q28 -14 54 -18t58 -4q41 0 73.5 11.5
t55.5 32t35 48.5t12 60q0 33 -8 60t-27.5 46.5t-52 30t-81.5 10.5q-20 0 -33 -2t-24 -5.5t-22 -7.5t-25 -8q-19 -5 -19 14l5 226v22q0 11 10 11h274q10 0 10 -11v-7q0 -11 -10 -11h-252z" />
    <glyph glyph-name="uni2479" unicode="&#x2479;" horiz-adv-x="700" 
d="M47 -165q-56 85 -84.5 207t-28.5 258t28.5 258t84.5 207h23q-31 -60 -50.5 -118t-31 -115.5t-15.5 -115t-4 -116.5t4 -116.5t15.5 -115t31 -115.5t50.5 -118h-23zM766 300q0 -136 -28.5 -258t-84.5 -207h-23q31 60 50.5 118t30.5 115.5t15.5 115t4.5 116.5t-4.5 116.5
t-15.5 115t-30.5 115.5t-50.5 118h23q56 -85 84.5 -207t28.5 -258zM500 193q0 32 -8.5 59.5t-26 48t-45 32.5t-65.5 12q-33 0 -60.5 -13t-47 -34t-30.5 -48.5t-11 -56.5q0 -31 10 -59t29 -49.5t44.5 -34.5t57.5 -13q31 0 59 12.5t49 34t33 49.5t12 60zM497 548
q-18 6 -39.5 9.5t-44.5 3.5q-55 0 -95.5 -22t-67.5 -59.5t-39.5 -88.5t-12.5 -111q9 22 25 39t37 29t45.5 18.5t48.5 6.5q82 0 129.5 -45t47.5 -131q0 -41 -13.5 -76t-37.5 -60t-58 -39t-76 -14q-83 0 -133.5 67.5t-50.5 203.5q0 67 14 124t44.5 98.5t79.5 65t119 23.5
q20 0 41.5 -3.5t40.5 -8.5q12 -1 10 -13l-1 -10q-1 -5 -5 -7t-8 0z" />
    <glyph glyph-name="uni247A" unicode="&#x247a;" horiz-adv-x="700" 
d="M47 -165q-56 85 -84.5 207t-28.5 258t28.5 258t84.5 207h23q-31 -60 -50.5 -118t-31 -115.5t-15.5 -115t-4 -116.5t4 -116.5t15.5 -115t31 -115.5t50.5 -118h-23zM766 300q0 -136 -28.5 -258t-84.5 -207h-23q31 60 50.5 118t30.5 115.5t15.5 115t4.5 116.5t-4.5 116.5
t-15.5 115t-30.5 115.5t-50.5 118h23q56 -85 84.5 -207t28.5 -258zM518 559q10 0 10 -10v-14q0 -6 -2 -10l-215 -509q-7 -10 -15 -10h-13q-9 0 -6 10l218 515h-296q-10 0 -10 11v7q0 10 10 10h319z" />
    <glyph glyph-name="uni247B" unicode="&#x247b;" horiz-adv-x="700" 
d="M47 -165q-56 85 -84.5 207t-28.5 258t28.5 258t84.5 207h23q-31 -60 -50.5 -118t-31 -115.5t-15.5 -115t-4 -116.5t4 -116.5t15.5 -115t31 -115.5t50.5 -118h-23zM766 300q0 -136 -28.5 -258t-84.5 -207h-23q31 60 50.5 118t30.5 115.5t15.5 115t4.5 116.5t-4.5 116.5
t-15.5 115t-30.5 115.5t-50.5 118h23q56 -85 84.5 -207t28.5 -258zM352 4q-35 0 -69 9.5t-61 29t-44 48t-17 66.5q0 32 10 55t28 40.5t43 30.5t54 25q-117 57 -117 147q0 32 16 57t41 42t56 26t60 9q30 0 60.5 -9t56 -26t41.5 -42t16 -57q0 -90 -117 -147q29 -12 54 -25
t43 -30.5t28 -40.5t10 -55q0 -38 -17 -66.5t-44 -48t-61.5 -29t-69.5 -9.5zM512 156q0 29 -12.5 50.5t-32.5 37.5t-46.5 26.5t-53.5 18.5q-8 4 -14 4t-15 -4q-27 -8 -53.5 -18.5t-46.5 -26.5t-32.5 -37.5t-12.5 -50.5q0 -28 15.5 -50.5t39 -38.5t51.5 -25t53 -9t53.5 9
t52 25t39 38.5t15.5 50.5zM363 323q21 6 44 18t42.5 28.5t32 37t12.5 44.5q0 27 -13 47t-33.5 34t-45.5 21t-50 7q-24 0 -49.5 -7t-45.5 -21t-33 -34t-13 -47q0 -24 12.5 -44.5t32 -37t42.5 -28.5t44 -18q10 -3 21 0z" />
    <glyph glyph-name="uni247C" unicode="&#x247c;" horiz-adv-x="700" 
d="M47 -165q-56 85 -84.5 207t-28.5 258t28.5 258t84.5 207h23q-31 -60 -50.5 -118t-31 -115.5t-15.5 -115t-4 -116.5t4 -116.5t15.5 -115t31 -115.5t50.5 -118h-23zM766 300q0 -136 -28.5 -258t-84.5 -207h-23q31 60 50.5 118t30.5 115.5t15.5 115t4.5 116.5t-4.5 116.5
t-15.5 115t-30.5 115.5t-50.5 118h23q56 -85 84.5 -207t28.5 -258zM205 406q0 -32 8.5 -59.5t26 -48t44.5 -32t65 -11.5q33 0 60.5 12.5t47 33.5t30.5 48.5t11 56.5q0 30 -10.5 58t-29 49.5t-44.5 34.5t-57 13q-32 0 -59.5 -12.5t-48 -34t-32.5 -49.5t-12 -59zM208 52
q18 -6 39 -9.5t44 -3.5q55 0 95 20.5t66.5 57t39.5 88t13 114.5q-8 -21 -24 -38.5t-37 -29.5t-45.5 -18.5t-48.5 -6.5q-81 0 -129 45t-48 131q0 41 13.5 75.5t37.5 59.5t58 39t76 14q41 0 75 -15t58 -47.5t37 -84t13 -123.5q0 -66 -13.5 -123t-44 -98.5t-79.5 -65
t-119 -23.5q-20 0 -41.5 3.5t-40.5 8.5q-11 2 -9 13l1 10q1 5 5 7t8 0z" />
    <glyph glyph-name="uni247D" unicode="&#x247d;" horiz-adv-x="700" 
d="M47 -165q-56 85 -84.5 207t-28.5 258t28.5 258t84.5 207h23q-31 -60 -50.5 -118t-31 -115.5t-15.5 -115t-4 -116.5t4 -116.5t15.5 -115t31 -115.5t50.5 -118h-23zM766 300q0 -136 -28.5 -258t-84.5 -207h-23q31 60 50.5 118t30.5 115.5t15.5 115t4.5 116.5t-4.5 116.5
t-15.5 115t-30.5 115.5t-50.5 118h23q56 -85 84.5 -207t28.5 -258zM73 451q-9 -7 -15 1l-5 7q-7 9 1 15l123 106q4 3 10 3h10q11 0 11 -11v-549q0 -11 -11 -11h-10q-11 0 -11 11v516zM653 298q0 -50 -8 -101.5t-28.5 -93.5t-56.5 -68.5t-93 -26.5t-93 26.5t-56.5 68.5
t-28.5 93.5t-8 101.5t8 101.5t28.5 93.5t56.5 68.5t93 26.5t93 -26.5t56.5 -68.5t28.5 -93.5t8 -101.5zM622 298q0 45 -7 91.5t-24.5 84t-47.5 61.5t-76 24t-76 -24t-47 -61.5t-24 -84t-7 -91.5t7 -91.5t24 -84t47 -61.5t76 -24t76 24t47.5 61.5t24.5 84t7 91.5z" />
    <glyph glyph-name="uni247E" unicode="&#x247e;" horiz-adv-x="700" 
d="M47 -165q-56 85 -84.5 207t-28.5 258t28.5 258t84.5 207h23q-31 -60 -50.5 -118t-31 -115.5t-15.5 -115t-4 -116.5t4 -116.5t15.5 -115t31 -115.5t50.5 -118h-23zM766 300q0 -136 -28.5 -258t-84.5 -207h-23q31 60 50.5 118t30.5 115.5t15.5 115t4.5 116.5t-4.5 116.5
t-15.5 115t-30.5 115.5t-50.5 118h23q56 -85 84.5 -207t28.5 -258zM120 451q-9 -7 -15 1l-5 7q-7 9 1 15l123 106q4 3 10 3h10q11 0 11 -11v-549q0 -11 -11 -11h-10q-11 0 -11 11v516zM393 451q-9 -7 -15 1l-5 7q-7 9 1 15l123 106q4 3 10 3h10q11 0 11 -11v-549
q0 -11 -11 -11h-10q-11 0 -11 11v516z" />
    <glyph glyph-name="uni247F" unicode="&#x247f;" horiz-adv-x="700" 
d="M47 -165q-56 85 -84.5 207t-28.5 258t28.5 258t84.5 207h23q-31 -60 -50.5 -118t-31 -115.5t-15.5 -115t-4 -116.5t4 -116.5t15.5 -115t31 -115.5t50.5 -118h-23zM766 300q0 -136 -28.5 -258t-84.5 -207h-23q31 60 50.5 118t30.5 115.5t15.5 115t4.5 116.5t-4.5 116.5
t-15.5 115t-30.5 115.5t-50.5 118h23q56 -85 84.5 -207t28.5 -258zM68 451q-9 -7 -15 1l-5 7q-7 9 1 15l123 106q4 3 10 3h10q11 0 11 -11v-549q0 -11 -11 -11h-10q-11 0 -11 11v516zM295 12q-8 0 -8 8v21q0 6 4 10l129 136q33 34 61.5 67.5t49.5 65t33 61t12 56.5
q0 51 -36.5 82.5t-97.5 31.5q-30 0 -64.5 -11t-64.5 -28q-5 -2 -6 0t-3 7l-3 16q0 5 2 6.5t7 3.5q43 20 71 27.5t58 7.5q39 0 70 -10.5t53 -29.5t33.5 -44.5t11.5 -56.5q-2 -44 -17 -75t-37 -66q-22 -28 -46.5 -58t-56.5 -65l-131 -134h293q8 0 8 -8v-13q0 -8 -8 -8h-317z
" />
    <glyph glyph-name="uni2480" unicode="&#x2480;" horiz-adv-x="700" 
d="M312 528q-8 -2 -9 4l-3 15q-1 6 8 11q34 11 64.5 16.5t64.5 5.5t66.5 -8t57.5 -25t40.5 -43.5t15.5 -63.5q0 -29 -10.5 -52t-28 -40.5t-40 -28t-46.5 -14.5q28 -1 51.5 -12t40 -30t25.5 -43t9 -51q0 -41 -17.5 -72t-46 -51.5t-65.5 -30.5t-76 -9q-40 1 -70 5t-60 13
q-8 3 -7 12l2 16q2 7 9 2q32 -12 62 -15.5t68 -4.5q32 -1 62.5 7.5t54 26t38 44t14.5 62.5q0 54 -41 85t-142 31h-38q-10 0 -10 11v6q0 12 10 12h3q36 0 74.5 3.5t70 16t52 36.5t20.5 65q0 29 -13 50t-34 35t-48.5 20.5t-57.5 6.5q-26 0 -58.5 -6.5t-61.5 -17.5zM766 300
q0 -136 -28.5 -258t-84.5 -207h-23q31 60 50.5 118t30.5 115.5t15.5 115t4.5 116.5t-4.5 116.5t-15.5 115t-30.5 115.5t-50.5 118h23q56 -85 84.5 -207t28.5 -258zM47 -165q-56 85 -84.5 207t-28.5 258t28.5 258t84.5 207h23q-31 -60 -50.5 -118t-31 -115.5t-15.5 -115
t-4 -116.5t4 -116.5t15.5 -115t31 -115.5t50.5 -118h-23zM73 451q-9 -7 -15 1l-5 7q-7 9 1 15l123 106q4 3 10 3h10q11 0 11 -11v-549q0 -11 -11 -11h-10q-11 0 -11 11v516z" />
    <glyph glyph-name="uni2481" unicode="&#x2481;" horiz-adv-x="700" 
d="M501 573q5 7 6.5 8t10.5 1h31q11 0 11 -11v-393h75q11 0 11 -11v-8q0 -10 -11 -10h-75v-127q0 -11 -11 -11h-10q-11 0 -11 11v127h-276q-11 0 -11 10v14q0 5 1 7l3 6zM273 178h255v380zM766 300q0 -136 -28.5 -258t-84.5 -207h-23q31 60 50.5 118t30.5 115.5t15.5 115
t4.5 116.5t-4.5 116.5t-15.5 115t-30.5 115.5t-50.5 118h23q56 -85 84.5 -207t28.5 -258zM47 -165q-56 85 -84.5 207t-28.5 258t28.5 258t84.5 207h23q-31 -60 -50.5 -118t-31 -115.5t-15.5 -115t-4 -116.5t4 -116.5t15.5 -115t31 -115.5t50.5 -118h-23zM73 451q-9 -7 -15 1
l-5 7q-7 9 1 15l123 106q4 3 10 3h10q11 0 11 -11v-549q0 -11 -11 -11h-10q-11 0 -11 11v516z" />
    <glyph glyph-name="uni2482" unicode="&#x2482;" horiz-adv-x="700" 
d="M47 -165q-56 85 -84.5 207t-28.5 258t28.5 258t84.5 207h23q-31 -60 -50.5 -118t-31 -115.5t-15.5 -115t-4 -116.5t4 -116.5t15.5 -115t31 -115.5t50.5 -118h-23zM766 300q0 -136 -28.5 -258t-84.5 -207h-23q31 60 50.5 118t30.5 115.5t15.5 115t4.5 116.5t-4.5 116.5
t-15.5 115t-30.5 115.5t-50.5 118h23q56 -85 84.5 -207t28.5 -258zM73 451q-9 -7 -15 1l-5 7q-7 9 1 15l123 106q4 3 10 3h10q11 0 11 -11v-549q0 -11 -11 -11h-10q-11 0 -11 11v516zM338 342q19 8 47 13t65 4q39 -1 72 -11.5t57 -31.5t38 -51.5t14 -70.5q0 -48 -15.5 -84
t-43 -60t-66 -36t-84.5 -12q-35 0 -60 4t-52 13q-11 3 -11 14v12q0 13 11 8q28 -14 54 -18t58 -4q41 0 73.5 11.5t55.5 32t35 48.5t12 60q0 33 -8 60t-27.5 46.5t-52 30t-81.5 10.5q-20 0 -33 -2t-24 -5.5t-22 -7.5t-25 -8q-19 -5 -19 14l5 226v22q0 11 10 11h274
q10 0 10 -11v-7q0 -11 -10 -11h-252z" />
    <glyph glyph-name="uni249C" unicode="&#x249c;" horiz-adv-x="700" 
d="M47 -165q-56 85 -84.5 207t-28.5 258t28.5 258t84.5 207h23q-31 -60 -50.5 -118t-31 -115.5t-15.5 -115t-4 -116.5t4 -116.5t15.5 -115t31 -115.5t50.5 -118h-23zM766 300q0 -136 -28.5 -258t-84.5 -207h-23q31 60 50.5 118t30.5 115.5t15.5 115t4.5 116.5t-4.5 116.5
t-15.5 115t-30.5 115.5t-50.5 118h23q56 -85 84.5 -207t28.5 -258zM455 313q-53 2 -100.5 -1.5t-73.5 -16.5q-35 -17 -54.5 -40t-19.5 -71t33 -72.5t84 -24.5q33 0 61 10t48.5 31t32.5 54t12 79v52h-23zM226 455q-11 -6 -11 5v18q0 11 11 18q29 14 61 20.5t71 6.5
q81 0 117.5 -38.5t36.5 -117.5v-205q0 -24 0.5 -43.5t2.5 -36.5q0 -12 -11 -12h-15q-11 0 -11 12v62q-9 -21 -26 -37t-38.5 -27t-46 -17t-47.5 -6q-66 0 -106.5 33t-40.5 96q0 101 95 138q33 14 83.5 18.5t111.5 4.5h15v24q0 26 -5.5 48t-19 38.5t-36.5 25.5t-59 9
q-38 0 -70.5 -10t-61.5 -27z" />
    <glyph glyph-name="uni249D" unicode="&#x249d;" horiz-adv-x="700" 
d="M47 -165q-56 85 -84.5 207t-28.5 258t28.5 258t84.5 207h23q-31 -60 -50.5 -118t-31 -115.5t-15.5 -115t-4 -116.5t4 -116.5t15.5 -115t31 -115.5t50.5 -118h-23zM766 300q0 -136 -28.5 -258t-84.5 -207h-23q31 60 50.5 118t30.5 115.5t15.5 115t4.5 116.5t-4.5 116.5
t-15.5 115t-30.5 115.5t-50.5 118h23q56 -85 84.5 -207t28.5 -258zM241 345q18 38 52.5 63.5t85.5 25.5q88 0 132.5 -52t44.5 -163q0 -110 -44.5 -163t-132.5 -53q-42 0 -78.5 23t-59.5 71v-75q0 -11 -11 -11h-11q-10 0 -10 11v586q0 10 10 10h11q11 0 11 -10v-263zM379 33
q46 0 74.5 16t44 42t21 59.5t5.5 68.5t-5.5 68.5t-21 60t-44 42.5t-74.5 16q-35 0 -60.5 -16.5t-43 -43t-26 -60t-8.5 -67.5q0 -38 10.5 -71.5t29 -59t44 -40.5t54.5 -15z" />
    <glyph glyph-name="uni249E" unicode="&#x249e;" horiz-adv-x="700" 
d="M47 -165q-56 85 -84.5 207t-28.5 258t28.5 258t84.5 207h23q-31 -60 -50.5 -118t-31 -115.5t-15.5 -115t-4 -116.5t4 -116.5t15.5 -115t31 -115.5t50.5 -118h-23zM766 300q0 -136 -28.5 -258t-84.5 -207h-23q31 60 50.5 118t30.5 115.5t15.5 115t4.5 116.5t-4.5 116.5
t-15.5 115t-30.5 115.5t-50.5 118h23q56 -85 84.5 -207t28.5 -258zM189 295q0 -57 22.5 -99t61 -66.5t89 -30.5t107.5 9q12 1 13 -7l1 -10q1 -8 -2 -11.5t-8 -5.5q-66 -16 -124 -8t-101 37t-67.5 77.5t-24.5 114.5q0 65 24.5 113.5t67.5 77t101 36.5t124 -8q11 -5 10 -15
l-1 -12q-1 -8 -13 -7q-57 16 -107.5 10.5t-89 -30t-61 -66.5t-22.5 -99z" />
    <glyph glyph-name="uni249F" unicode="&#x249f;" horiz-adv-x="700" 
d="M47 -165q-56 85 -84.5 207t-28.5 258t28.5 258t84.5 207h23q-31 -60 -50.5 -118t-31 -115.5t-15.5 -115t-4 -116.5t4 -116.5t15.5 -115t31 -115.5t50.5 -118h-23zM766 300q0 -136 -28.5 -258t-84.5 -207h-23q31 60 50.5 118t30.5 115.5t15.5 115t4.5 116.5t-4.5 116.5
t-15.5 115t-30.5 115.5t-50.5 118h23q56 -85 84.5 -207t28.5 -258zM465 598q0 10 11 10h11q10 0 10 -10v-586q0 -11 -10 -11h-11q-11 0 -11 11v75q-23 -48 -59.5 -71t-78.5 -23q-88 0 -132.5 53t-44.5 163q0 111 44.5 163t132.5 52q51 0 85.5 -25.5t52.5 -63.5v263zM327 23
q29 0 54.5 15t44 40.5t29 59t10.5 71.5q0 34 -8.5 67.5t-26 60t-43.5 43t-60 16.5q-46 0 -74.5 -16t-44 -42.5t-21 -60t-5.5 -68.5t5.5 -68.5t21 -59.5t44 -42t74.5 -16z" />
    <glyph glyph-name="uni24A0" unicode="&#x24a0;" horiz-adv-x="700" 
d="M47 -165q-56 85 -84.5 207t-28.5 258t28.5 258t84.5 207h23q-31 -60 -50.5 -118t-31 -115.5t-15.5 -115t-4 -116.5t4 -116.5t15.5 -115t31 -115.5t50.5 -118h-23zM766 300q0 -136 -28.5 -258t-84.5 -207h-23q31 60 50.5 118t30.5 115.5t15.5 115t4.5 116.5t-4.5 116.5
t-15.5 115t-30.5 115.5t-50.5 118h23q56 -85 84.5 -207t28.5 -258zM487 312q1 32 -6 64.5t-23 58.5t-42 42.5t-65 16.5q-38 0 -66.5 -16.5t-48 -42.5t-29.5 -58.5t-11 -64.5h291zM196 282q-1 -40 9.5 -74t31.5 -58.5t53.5 -38.5t75.5 -14q65 0 111 26q11 5 11 -6v-16
q0 -7 -9 -12q-26 -10 -55 -15t-62 -5q-199 0 -199 229q0 44 12.5 85t35.5 72.5t57 50t78 18.5q46 0 79 -17.5t54 -46.5t31 -68.5t10 -82.5q0 -11 -0.5 -16.5t-3 -7.5t-8.5 -2.5t-17 -0.5h-295z" />
    <glyph glyph-name="uni24A1" unicode="&#x24a1;" horiz-adv-x="700" 
d="M47 -165q-56 85 -84.5 207t-28.5 258t28.5 258t84.5 207h23q-31 -60 -50.5 -118t-31 -115.5t-15.5 -115t-4 -116.5t4 -116.5t15.5 -115t31 -115.5t50.5 -118h-23zM766 300q0 -136 -28.5 -258t-84.5 -207h-23q31 60 50.5 118t30.5 115.5t15.5 115t4.5 116.5t-4.5 116.5
t-15.5 115t-30.5 115.5t-50.5 118h23q56 -85 84.5 -207t28.5 -258zM242 349q-11 0 -11 11v11q0 10 11 10h81v42q0 42 2 68.5t10 44.5q11 27 37.5 41t50.5 13q11 0 20.5 -1t17.5 -4q10 -3 9 -13l-2 -10q0 -10 -10 -6q-8 3 -15 4.5t-16 1.5q-22 0 -42.5 -11t-25.5 -40
q-2 -9 -3 -27.5t-1 -60.5v-42h92q11 0 11 -10v-11q0 -11 -11 -11h-92l-1 -357q0 -11 -10 -11h-9q-11 0 -11 11l-1 357h-81z" />
    <glyph glyph-name="uni24A2" unicode="&#x24a2;" horiz-adv-x="700" 
d="M47 -165q-56 85 -84.5 207t-28.5 258t28.5 258t84.5 207h23q-31 -60 -50.5 -118t-31 -115.5t-15.5 -115t-4 -116.5t4 -116.5t15.5 -115t31 -115.5t50.5 -118h-23zM766 300q0 -136 -28.5 -258t-84.5 -207h-23q31 60 50.5 118t30.5 115.5t15.5 115t4.5 116.5t-4.5 116.5
t-15.5 115t-30.5 115.5t-50.5 118h23q56 -85 84.5 -207t28.5 -258zM351 164q38 0 64 15t42 38t23 52t7 58q0 35 -7 68t-23 58.5t-42 41t-64 15.5t-65 -15.5t-44 -41t-25 -58.5t-8 -68q0 -29 8 -58t25 -52t44 -38t65 -15zM223 55q30 -13 55 -17.5t57 -4.5q72 0 114.5 41.5
t42.5 131.5v17q-23 -49 -62 -68t-79 -19q-43 0 -75.5 14.5t-54.5 40.5t-33 60.5t-11 75.5q0 55 13 94.5t36 65.5t55 38.5t70 12.5q51 0 87.5 -24t53.5 -62v68q0 11 11 11h11q10 0 10 -11v-303q1 -104 -47 -158.5t-143 -54.5q-34 0 -57.5 4t-54.5 13q-12 4 -10 15v12
q2 10 11 7z" />
    <glyph glyph-name="uni24A3" unicode="&#x24a3;" horiz-adv-x="700" 
d="M47 -165q-56 85 -84.5 207t-28.5 258t28.5 258t84.5 207h23q-31 -60 -50.5 -118t-31 -115.5t-15.5 -115t-4 -116.5t4 -116.5t15.5 -115t31 -115.5t50.5 -118h-23zM766 300q0 -136 -28.5 -258t-84.5 -207h-23q31 60 50.5 118t30.5 115.5t15.5 115t4.5 116.5t-4.5 116.5
t-15.5 115t-30.5 115.5t-50.5 118h23q56 -85 84.5 -207t28.5 -258zM224 12q0 -11 -11 -11h-10q-11 0 -11 11v587q0 11 11 11h10q11 0 11 -11v-245q16 27 53.5 48.5t91.5 21.5q150 0 150 -176v-236q0 -11 -10 -11h-11q-11 0 -11 11v235q0 74 -28 111t-99 37q-31 0 -56 -12.5
t-43 -31t-27.5 -41t-9.5 -42.5v-256z" />
    <glyph glyph-name="uni24A4" unicode="&#x24a4;" horiz-adv-x="700" 
d="M47 -165q-56 85 -84.5 207t-28.5 258t28.5 258t84.5 207h23q-31 -60 -50.5 -118t-31 -115.5t-15.5 -115t-4 -116.5t4 -116.5t15.5 -115t31 -115.5t50.5 -118h-23zM766 300q0 -136 -28.5 -258t-84.5 -207h-23q31 60 50.5 118t30.5 115.5t15.5 115t4.5 116.5t-4.5 116.5
t-15.5 115t-30.5 115.5t-50.5 118h23q56 -85 84.5 -207t28.5 -258zM322 569q0 11 8 19.5t19 8.5t19.5 -8.5t8.5 -19.5t-8.5 -19t-19.5 -8t-19 8t-8 19zM367 0q0 -11 -12 -11h-11q-11 0 -11 11v408q0 11 11 11h11q12 0 12 -11v-408z" />
    <glyph glyph-name="uni24A5" unicode="&#x24a5;" horiz-adv-x="700" 
d="M47 -165q-56 85 -84.5 207t-28.5 258t28.5 258t84.5 207h23q-31 -60 -50.5 -118t-31 -115.5t-15.5 -115t-4 -116.5t4 -116.5t15.5 -115t31 -115.5t50.5 -118h-23zM766 300q0 -136 -28.5 -258t-84.5 -207h-23q31 60 50.5 118t30.5 115.5t15.5 115t4.5 116.5t-4.5 116.5
t-15.5 115t-30.5 115.5t-50.5 118h23q56 -85 84.5 -207t28.5 -258zM333 648q0 11 8 19.5t20 8.5t20.5 -8.5t8.5 -19.5q0 -12 -8.5 -20.5t-20.5 -8.5t-20 8.5t-8 20.5zM247 -75q-9 1 -9 9v12q0 6 2 7.5t7 0.5q10 -2 23 -2q27 0 42.5 7t23 20t9.5 30t2 38v434q0 11 12 11h11
q11 0 11 -11v-448q0 -28 -4.5 -49t-16 -34.5t-31 -20.5t-50.5 -7q-12 0 -17 0.5t-15 2.5z" />
    <glyph glyph-name="uni24A6" unicode="&#x24a6;" horiz-adv-x="700" 
d="M47 -165q-56 85 -84.5 207t-28.5 258t28.5 258t84.5 207h23q-31 -60 -50.5 -118t-31 -115.5t-15.5 -115t-4 -116.5t4 -116.5t15.5 -115t31 -115.5t50.5 -118h-23zM766 300q0 -136 -28.5 -258t-84.5 -207h-23q31 60 50.5 118t30.5 115.5t15.5 115t4.5 116.5t-4.5 116.5
t-15.5 115t-30.5 115.5t-50.5 118h23q56 -85 84.5 -207t28.5 -258zM224 602q0 11 11 11h10q12 0 12 -11v-432l208 237q9 11 26 11h12q5 0 6 -3.5t-3 -7.5l-157 -177l170 -218q6 -11 -3 -11h-14q-8 0 -14 2t-10 9l-150 194l-71 -80v-114q0 -11 -12 -11h-10q-11 0 -11 11v590z
" />
    <glyph glyph-name="uni24A7" unicode="&#x24a7;" horiz-adv-x="700" 
d="M47 -165q-56 85 -84.5 207t-28.5 258t28.5 258t84.5 207h23q-31 -60 -50.5 -118t-31 -115.5t-15.5 -115t-4 -116.5t4 -116.5t15.5 -115t31 -115.5t50.5 -118h-23zM766 300q0 -136 -28.5 -258t-84.5 -207h-23q31 60 50.5 118t30.5 115.5t15.5 115t4.5 116.5t-4.5 116.5
t-15.5 115t-30.5 115.5t-50.5 118h23q56 -85 84.5 -207t28.5 -258zM367 5q0 -11 -12 -11h-11q-11 0 -11 11v588q0 11 11 11h11q12 0 12 -11v-588z" />
    <glyph glyph-name="uni24A8" unicode="&#x24a8;" horiz-adv-x="700" 
d="M766 300q0 -136 -28.5 -258t-84.5 -207h-23q31 60 50.5 118t30.5 115.5t15.5 115t4.5 116.5t-4.5 116.5t-15.5 115t-30.5 115.5t-50.5 118h23q56 -85 84.5 -207t28.5 -258zM47 -165q-56 85 -84.5 207t-28.5 258t28.5 258t84.5 207h23q-31 -60 -50.5 -118t-31 -115.5
t-15.5 -115t-4 -116.5t4 -116.5t15.5 -115t31 -115.5t50.5 -118h-23zM110 461q19 30 46.5 50t72.5 20q48 0 82.5 -24t42.5 -71q17 47 57.5 71t88.5 24q38 0 65 -12.5t44 -34t25 -49.5t8 -59v-285q0 -11 -11 -11h-11q-11 0 -11 11v282q0 56 -29 91t-80 36q-27 0 -51.5 -12
t-42.5 -33t-28 -49.5t-9 -61.5v-253q0 -11 -11 -11h-11q-12 0 -12 11v282q0 28 -8 51t-21.5 40t-33 26.5t-41.5 9.5q-27 0 -48.5 -12t-36.5 -32t-23 -46.5t-8 -55.5v-263q0 -11 -12 -11h-11q-11 0 -11 11v327q0 45 -3 92q0 11 11 11h10q11 0 11 -11v-49z" />
    <glyph glyph-name="uni24A9" unicode="&#x24a9;" horiz-adv-x="700" 
d="M221 96q0 -11 -11 -11h-11q-12 0 -12 11v370q0 23 -2 46q-2 12 11 12h14q11 0 11 -12v-52q8 14 19.5 27t29 23t42 16.5t58.5 6.5q87 1 123.5 -45.5t36.5 -140.5v-251q0 -11 -11 -11h-11q-12 0 -12 11v250q0 79 -31.5 118t-102.5 39q-33 0 -59.5 -13t-44.5 -33t-27.5 -44
t-9.5 -45v-272zM766 300q0 -136 -28.5 -258t-84.5 -207h-23q31 60 50.5 118t30.5 115.5t15.5 115t4.5 116.5t-4.5 116.5t-15.5 115t-30.5 115.5t-50.5 118h23q56 -85 84.5 -207t28.5 -258zM47 -165q-56 85 -84.5 207t-28.5 258t28.5 258t84.5 207h23q-31 -60 -50.5 -118
t-31 -115.5t-15.5 -115t-4 -116.5t4 -116.5t15.5 -115t31 -115.5t50.5 -118h-23z" />
    <glyph glyph-name="uni24AA" unicode="&#x24aa;" horiz-adv-x="700" 
d="M47 -165q-56 85 -84.5 207t-28.5 258t28.5 258t84.5 207h23q-31 -60 -50.5 -118t-31 -115.5t-15.5 -115t-4 -116.5t4 -116.5t15.5 -115t31 -115.5t50.5 -118h-23zM766 300q0 -136 -28.5 -258t-84.5 -207h-23q31 60 50.5 118t30.5 115.5t15.5 115t4.5 116.5t-4.5 116.5
t-15.5 115t-30.5 115.5t-50.5 118h23q56 -85 84.5 -207t28.5 -258zM553 303q0 -40 -11.5 -81t-36 -74.5t-64 -54.5t-95.5 -21t-95.5 21t-64 54.5t-36 74.5t-11.5 81t11.5 81.5t36 75t64 54.5t95.5 21t95.5 -21t64 -54.5t36 -75t11.5 -81.5zM519 303q0 36 -9 72t-29.5 64.5
t-53.5 46.5t-81 18t-81 -18t-53.5 -46.5t-29.5 -64.5t-9 -72t9 -71.5t29.5 -64t53.5 -46.5t81 -18t81 18t53.5 46.5t29.5 64t9 71.5z" />
    <glyph glyph-name="uni24AB" unicode="&#x24ab;" horiz-adv-x="700" 
d="M47 -165q-56 85 -84.5 207t-28.5 258t28.5 258t84.5 207h23q-31 -60 -50.5 -118t-31 -115.5t-15.5 -115t-4 -116.5t4 -116.5t15.5 -115t31 -115.5t50.5 -118h-23zM766 300q0 -136 -28.5 -258t-84.5 -207h-23q31 60 50.5 118t30.5 115.5t15.5 115t4.5 116.5t-4.5 116.5
t-15.5 115t-30.5 115.5t-50.5 118h23q56 -85 84.5 -207t28.5 -258zM213 11q0 -12 -12 -12h-11q-12 0 -12 12v547q0 12 12 12h15q12 0 12 -12l-4 -81q25 54 64.5 77.5t84.5 23.5q43 0 79 -15.5t61 -45.5t39 -73.5t14 -98.5q0 -51 -12.5 -94t-37 -73.5t-60.5 -48t-83 -17.5
q-56 0 -93 27.5t-56 68.5v-197zM362 547q-32 0 -59 -16t-47 -44t-31.5 -64.5t-11.5 -78.5q0 -36 9.5 -72t28 -64.5t46.5 -46.5t65 -18q42 0 71.5 17.5t49 46t28.5 64.5t9 74t-9 74t-28.5 64.5t-49 46t-71.5 17.5z" />
    <glyph glyph-name="uni24AC" unicode="&#x24ac;" horiz-adv-x="700" 
d="M47 -165q-56 85 -84.5 207t-28.5 258t28.5 258t84.5 207h23q-31 -60 -50.5 -118t-31 -115.5t-15.5 -115t-4 -116.5t4 -116.5t15.5 -115t31 -115.5t50.5 -118h-23zM766 300q0 -136 -28.5 -258t-84.5 -207h-23q31 60 50.5 118t30.5 115.5t15.5 115t4.5 116.5t-4.5 116.5
t-15.5 115t-30.5 115.5t-50.5 118h23q56 -85 84.5 -207t28.5 -258zM488 208q-19 -41 -56 -68.5t-93 -27.5q-47 0 -83 17.5t-60.5 48t-37 73.5t-12.5 94q0 55 14 98.5t39 73.5t60.5 45.5t79.5 15.5q45 0 84.5 -23.5t64.5 -77.5l-4 81q0 12 12 12h15q12 0 12 -12v-547
q0 -12 -12 -12h-11q-12 0 -12 12v197zM339 547q-42 0 -71.5 -17.5t-49 -46t-28.5 -64.5t-9 -74t9 -74t28.5 -64.5t49 -46t71.5 -17.5q37 0 65 18t46.5 46.5t28 64.5t9.5 72q0 42 -11.5 78.5t-31.5 64.5t-47.5 44t-58.5 16z" />
    <glyph glyph-name="uni24AD" unicode="&#x24ad;" horiz-adv-x="700" 
d="M47 -165q-56 85 -84.5 207t-28.5 258t28.5 258t84.5 207h23q-31 -60 -50.5 -118t-31 -115.5t-15.5 -115t-4 -116.5t4 -116.5t15.5 -115t31 -115.5t50.5 -118h-23zM766 300q0 -136 -28.5 -258t-84.5 -207h-23q31 60 50.5 118t30.5 115.5t15.5 115t4.5 116.5t-4.5 116.5
t-15.5 115t-30.5 115.5t-50.5 118h23q56 -85 84.5 -207t28.5 -258zM300 77q0 -11 -11 -11h-13q-11 0 -11 11v324q0 29 -0.5 46.5t-1.5 39.5q0 10 11 10h12q11 0 11 -10v-87q20 51 45.5 79.5t68.5 28.5q17 0 37 -5q5 -2 8.5 -5t3.5 -10v-9q0 -5 -4 -7t-8 0q-15 5 -38 5
q-15 0 -27.5 -6.5t-23.5 -17.5t-20 -25t-16 -29q-23 -45 -23 -116v-206z" />
    <glyph glyph-name="uni24AE" unicode="&#x24ae;" horiz-adv-x="700" 
d="M47 -165q-56 85 -84.5 207t-28.5 258t28.5 258t84.5 207h23q-31 -60 -50.5 -118t-31 -115.5t-15.5 -115t-4 -116.5t4 -116.5t15.5 -115t31 -115.5t50.5 -118h-23zM766 300q0 -136 -28.5 -258t-84.5 -207h-23q31 60 50.5 118t30.5 115.5t15.5 115t4.5 116.5t-4.5 116.5
t-15.5 115t-30.5 115.5t-50.5 118h23q56 -85 84.5 -207t28.5 -258zM225 82q-3 2 -7 4.5t-3 10.5l3 21q3 10 13 7q49 -21 103 -21q59 0 88 26t29 65q0 21 -13 39t-35 32q-11 8 -27.5 16t-34.5 15.5t-35 15t-29 14.5q-56 32 -56 85q0 30 11.5 53t31 38t45.5 22.5t55 7.5
q31 0 53.5 -3t45.5 -10q4 -2 7 -4t3 -8l-3 -17q-1 -3 -4 -5t-6 0q-20 8 -49.5 10.5t-58.5 2.5q-47 0 -69.5 -25t-23.5 -62q-1 -22 18 -39t46 -31t55.5 -25.5t46.5 -21.5q39 -23 51.5 -48.5t12.5 -51.5q0 -33 -12 -56t-33 -38.5t-48.5 -23t-57.5 -8.5q-35 -2 -61 1.5
t-52 11.5z" />
    <glyph glyph-name="uni24AF" unicode="&#x24af;" horiz-adv-x="700" 
d="M766 300q0 -136 -28.5 -258t-84.5 -207h-23q31 60 50.5 118t30.5 115.5t15.5 115t4.5 116.5t-4.5 116.5t-15.5 115t-30.5 115.5t-50.5 118h23q56 -85 84.5 -207t28.5 -258zM47 -165q-56 85 -84.5 207t-28.5 258t28.5 258t84.5 207h23q-31 -60 -50.5 -118t-31 -115.5
t-15.5 -115t-4 -116.5t4 -116.5t15.5 -115t31 -115.5t50.5 -118h-23zM306 456v118q0 11 11 11h12q11 0 11 -11v-118h101q11 0 11 -11v-8q0 -12 -11 -12h-101v-237q0 -91 4 -108q4 -15 11 -23.5t16.5 -12.5t21 -5t23.5 -1q10 0 21.5 3t20.5 6q11 4 12 -6l1 -11q1 -11 -10 -14
q-9 -3 -23.5 -6t-26.5 -3q-26 -1 -52 6.5t-42 35.5q-11 20 -11 57v319h-90q-11 0 -11 12v8q0 11 11 11h90z" />
    <glyph glyph-name="uni24B0" unicode="&#x24b0;" horiz-adv-x="700" 
d="M47 -165q-56 85 -84.5 207t-28.5 258t28.5 258t84.5 207h23q-31 -60 -50.5 -118t-31 -115.5t-15.5 -115t-4 -116.5t4 -116.5t15.5 -115t31 -115.5t50.5 -118h-23zM766 300q0 -136 -28.5 -258t-84.5 -207h-23q31 60 50.5 118t30.5 115.5t15.5 115t4.5 116.5t-4.5 116.5
t-15.5 115t-30.5 115.5t-50.5 118h23q56 -85 84.5 -207t28.5 -258zM490 502q0 11 11 11h11q11 0 11 -11v-323l2 -89q0 -11 -11 -11h-9q-11 0 -11 11v80q-6 -14 -18 -32t-31.5 -34t-46 -27t-60.5 -11q-86 0 -122 47t-36 141v248q0 11 11 11h11q12 0 12 -11v-247
q0 -78 28.5 -119.5t99.5 -38.5q40 1 68 20t46 44.5t26 54t8 49.5v237z" />
    <glyph glyph-name="uni24B1" unicode="&#x24b1;" horiz-adv-x="700" 
d="M47 -165q-56 85 -84.5 207t-28.5 258t28.5 258t84.5 207h23q-31 -60 -50.5 -118t-31 -115.5t-15.5 -115t-4 -116.5t4 -116.5t15.5 -115t31 -115.5t50.5 -118h-23zM766 300q0 -136 -28.5 -258t-84.5 -207h-23q31 60 50.5 118t30.5 115.5t15.5 115t4.5 116.5t-4.5 116.5
t-15.5 115t-30.5 115.5t-50.5 118h23q56 -85 84.5 -207t28.5 -258zM331 53q-5 0 -8 8l-154 421q-3 8 7 8h19q6 0 10 -8l144 -399l145 399q3 8 10 8h20q7 0 6 -8l-154 -421q-3 -8 -8 -8h-37z" />
    <glyph glyph-name="uni24B2" unicode="&#x24b2;" horiz-adv-x="700" 
d="M47 -165q-56 85 -84.5 207t-28.5 258t28.5 258t84.5 207h23q-31 -60 -50.5 -118t-31 -115.5t-15.5 -115t-4 -116.5t4 -116.5t15.5 -115t31 -115.5t50.5 -118h-23zM766 300q0 -136 -28.5 -258t-84.5 -207h-23q31 60 50.5 118t30.5 115.5t15.5 115t4.5 116.5t-4.5 116.5
t-15.5 115t-30.5 115.5t-50.5 118h23q56 -85 84.5 -207t28.5 -258zM357 472l-131 -396q-2 -6 -4.5 -9t-7.5 -3h-35q-8 0 -12 12l-138 416q-3 11 9 11h13q11 0 14 -11l131 -401l136 401q3 11 14 11h22q11 0 14 -11l128 -401l131 401q3 11 14 11h13q12 0 9 -11l-138 -416
q-2 -6 -4.5 -9t-7.5 -3h-35q-8 0 -12 12z" />
    <glyph glyph-name="uni24B3" unicode="&#x24b3;" horiz-adv-x="700" 
d="M47 -165q-56 85 -84.5 207t-28.5 258t28.5 258t84.5 207h23q-31 -60 -50.5 -118t-31 -115.5t-15.5 -115t-4 -116.5t4 -116.5t15.5 -115t31 -115.5t50.5 -118h-23zM766 300q0 -136 -28.5 -258t-84.5 -207h-23q31 60 50.5 118t30.5 115.5t15.5 115t4.5 116.5t-4.5 116.5
t-15.5 115t-30.5 115.5t-50.5 118h23q56 -85 84.5 -207t28.5 -258zM475 506q5 5 7 8t8 3h14q6 0 10 -3t-1 -8l-144 -197l161 -219q5 -6 1 -9t-10 -3h-11q-6 0 -9.5 2.5t-8.5 9.5l-143 193l-142 -193q-5 -7 -8.5 -9.5t-9.5 -2.5h-11q-6 0 -10 3t1 9l161 219l-144 197
q-5 5 -1 8t10 3h14q6 0 8 -3t7 -8l125 -171z" />
    <glyph glyph-name="uni24B4" unicode="&#x24b4;" horiz-adv-x="700" 
d="M207 -14q-7 3 -6 10l1 15q1 5 2.5 5.5t5.5 -0.5q6 -2 14 -3t14 -1q24 0 40 4.5t28 17t21.5 36t20.5 61.5l-156 416q-3 8 7 8h20q6 0 10 -8l135 -375l136 375q3 8 10 8h20q9 0 6 -8l-172 -464q-19 -54 -48 -76.5t-66 -22.5h-18q-15 0 -25 2zM766 300q0 -136 -28.5 -258
t-84.5 -207h-23q31 60 50.5 118t30.5 115.5t15.5 115t4.5 116.5t-4.5 116.5t-15.5 115t-30.5 115.5t-50.5 118h23q56 -85 84.5 -207t28.5 -258zM47 -165q-56 85 -84.5 207t-28.5 258t28.5 258t84.5 207h23q-31 -60 -50.5 -118t-31 -115.5t-15.5 -115t-4 -116.5t4 -116.5
t15.5 -115t31 -115.5t50.5 -118h-23z" />
    <glyph glyph-name="uni24B5" unicode="&#x24b5;" horiz-adv-x="700" 
d="M47 -165q-56 85 -84.5 207t-28.5 258t28.5 258t84.5 207h23q-31 -60 -50.5 -118t-31 -115.5t-15.5 -115t-4 -116.5t4 -116.5t15.5 -115t31 -115.5t50.5 -118h-23zM766 300q0 -136 -28.5 -258t-84.5 -207h-23q31 60 50.5 118t30.5 115.5t15.5 115t4.5 116.5t-4.5 116.5
t-15.5 115t-30.5 115.5t-50.5 118h23q56 -85 84.5 -207t28.5 -258zM469 489h-262q-11 0 -11 12v8q0 11 11 11h292q12 0 12 -11v-12q0 -9 -5 -16l-285 -367h282q12 0 12 -12v-8q0 -11 -12 -11h-307q-11 0 -11 11v12q0 8 4 16z" />
    <glyph glyph-name="uni24D0" unicode="&#x24d0;" horiz-adv-x="700" 
d="M762 301q0 86 -32 161t-88 131t-131 88t-161 32t-161 -32t-131 -88t-88 -131t-32 -161t32 -161t88 -131t131 -88t161 -32t161 32t131 88t88 131t32 161zM793 301q0 -92 -35 -172.5t-95 -140.5t-141 -95t-172 -35q-92 0 -172.5 35t-140.5 95t-95 140.5t-35 172.5
q0 91 35 172t95 141t140.5 95t172.5 35q91 0 172 -35t141 -95t95 -141t35 -172zM454 313q-53 2 -100.5 -1.5t-73.5 -16.5q-35 -17 -54.5 -40t-19.5 -71t33 -72.5t84 -24.5q33 0 61 10t48.5 31t32.5 54t12 79v52h-23zM225 455q-11 -6 -11 5v18q0 11 11 18q29 14 61 20.5
t71 6.5q81 0 117.5 -38.5t36.5 -117.5v-205q0 -24 0.5 -43.5t2.5 -36.5q0 -12 -11 -12h-15q-11 0 -11 12v62q-9 -21 -26 -37t-38.5 -27t-46 -17t-47.5 -6q-66 0 -106.5 33t-40.5 96q0 101 95 138q33 14 83.5 18.5t111.5 4.5h15v24q0 26 -5.5 48t-19 38.5t-36.5 25.5t-59 9
q-38 0 -70.5 -10t-61.5 -27z" />
    <glyph glyph-name="uni24D1" unicode="&#x24d1;" horiz-adv-x="700" 
d="M235 335q18 38 52.5 63.5t85.5 25.5q88 0 132.5 -52t44.5 -163q0 -110 -44.5 -163t-132.5 -53q-42 0 -78.5 23t-59.5 71v-75q0 -11 -11 -11h-11q-10 0 -10 11v586q0 10 10 10h11q11 0 11 -10v-263zM373 23q46 0 74.5 16t44 42t21 59.5t5.5 68.5t-5.5 68.5t-21 60
t-44 42.5t-74.5 16q-35 0 -60.5 -16.5t-43 -43t-26 -60t-8.5 -67.5q0 -38 10.5 -71.5t29 -59t44 -40.5t54.5 -15zM762 301q0 86 -32 161t-88 131t-131 88t-161 32t-161 -32t-131 -88t-88 -131t-32 -161t32 -161t88 -131t131 -88t161 -32t161 32t131 88t88 131t32 161z
M793 301q0 -92 -35 -172.5t-95 -140.5t-141 -95t-172 -35q-92 0 -172.5 35t-140.5 95t-95 140.5t-35 172.5q0 91 35 172t95 141t140.5 95t172.5 35q91 0 172 -35t141 -95t95 -141t35 -172z" />
    <glyph glyph-name="uni24D2" unicode="&#x24d2;" horiz-adv-x="700" 
d="M188 295q0 -57 22.5 -99t61 -66.5t89 -30.5t107.5 9q12 1 13 -7l1 -10q1 -8 -2 -11.5t-8 -5.5q-66 -16 -124 -8t-101 37t-67.5 77.5t-24.5 114.5q0 65 24.5 113.5t67.5 77t101 36.5t124 -8q11 -5 10 -15l-1 -12q-1 -8 -13 -7q-57 16 -107.5 10.5t-89 -30t-61 -66.5
t-22.5 -99zM762 301q0 86 -32 161t-88 131t-131 88t-161 32t-161 -32t-131 -88t-88 -131t-32 -161t32 -161t88 -131t131 -88t161 -32t161 32t131 88t88 131t32 161zM793 301q0 -92 -35 -172.5t-95 -140.5t-141 -95t-172 -35q-92 0 -172.5 35t-140.5 95t-95 140.5t-35 172.5
q0 91 35 172t95 141t140.5 95t172.5 35q91 0 172 -35t141 -95t95 -141t35 -172z" />
    <glyph glyph-name="uni24D3" unicode="&#x24d3;" horiz-adv-x="700" 
d="M464 598q0 10 11 10h11q10 0 10 -10v-586q0 -11 -10 -11h-11q-11 0 -11 11v75q-23 -48 -59.5 -71t-78.5 -23q-88 0 -132.5 53t-44.5 163q0 111 44.5 163t132.5 52q51 0 85.5 -25.5t52.5 -63.5v263zM326 23q29 0 54.5 15t44 40.5t29 59t10.5 71.5q0 34 -8.5 67.5t-26 60
t-43.5 43t-60 16.5q-46 0 -74.5 -16t-44 -42.5t-21 -60t-5.5 -68.5t5.5 -68.5t21 -59.5t44 -42t74.5 -16zM762 301q0 86 -32 161t-88 131t-131 88t-161 32t-161 -32t-131 -88t-88 -131t-32 -161t32 -161t88 -131t131 -88t161 -32t161 32t131 88t88 131t32 161zM793 301
q0 -92 -35 -172.5t-95 -140.5t-141 -95t-172 -35q-92 0 -172.5 35t-140.5 95t-95 140.5t-35 172.5q0 91 35 172t95 141t140.5 95t172.5 35q91 0 172 -35t141 -95t95 -141t35 -172z" />
    <glyph glyph-name="uni24D4" unicode="&#x24d4;" horiz-adv-x="700" 
d="M486 312q1 32 -6 64.5t-23 58.5t-42 42.5t-65 16.5q-38 0 -66.5 -16.5t-48 -42.5t-29.5 -58.5t-11 -64.5h291zM195 282q-1 -40 9.5 -74t31.5 -58.5t53.5 -38.5t75.5 -14q65 0 111 26q11 5 11 -6v-16q0 -7 -9 -12q-26 -10 -55 -15t-62 -5q-199 0 -199 229q0 44 12.5 85
t35.5 72.5t57 50t78 18.5q46 0 79 -17.5t54 -46.5t31 -68.5t10 -82.5q0 -11 -0.5 -16.5t-3 -7.5t-8.5 -2.5t-17 -0.5h-295zM762 301q0 86 -32 161t-88 131t-131 88t-161 32t-161 -32t-131 -88t-88 -131t-32 -161t32 -161t88 -131t131 -88t161 -32t161 32t131 88t88 131
t32 161zM793 301q0 -92 -35 -172.5t-95 -140.5t-141 -95t-172 -35q-92 0 -172.5 35t-140.5 95t-95 140.5t-35 172.5q0 91 35 172t95 141t140.5 95t172.5 35q91 0 172 -35t141 -95t95 -141t35 -172z" />
    <glyph glyph-name="uni24D5" unicode="&#x24d5;" horiz-adv-x="700" 
d="M241 349q-11 0 -11 11v11q0 10 11 10h81v42q0 42 2 68.5t10 44.5q11 27 37.5 41t50.5 13q11 0 20.5 -1t17.5 -4q10 -3 9 -13l-2 -10q0 -10 -10 -6q-8 3 -15 4.5t-16 1.5q-22 0 -42.5 -11t-25.5 -40q-2 -9 -3 -27.5t-1 -60.5v-42h92q11 0 11 -10v-11q0 -11 -11 -11h-92
l-1 -357q0 -11 -10 -11h-9q-11 0 -11 11l-1 357h-81zM762 301q0 86 -32 161t-88 131t-131 88t-161 32t-161 -32t-131 -88t-88 -131t-32 -161t32 -161t88 -131t131 -88t161 -32t161 32t131 88t88 131t32 161zM793 301q0 -92 -35 -172.5t-95 -140.5t-141 -95t-172 -35
q-92 0 -172.5 35t-140.5 95t-95 140.5t-35 172.5q0 91 35 172t95 141t140.5 95t172.5 35q91 0 172 -35t141 -95t95 -141t35 -172z" />
    <glyph glyph-name="uni24D6" unicode="&#x24d6;" horiz-adv-x="700" 
d="M350 164q38 0 64 15t42 38t23 52t7 58q0 35 -7 68t-23 58.5t-42 41t-64 15.5t-65 -15.5t-44 -41t-25 -58.5t-8 -68q0 -29 8 -58t25 -52t44 -38t65 -15zM222 55q30 -13 55 -17.5t57 -4.5q72 0 114.5 41.5t42.5 131.5v17q-23 -49 -62 -68t-79 -19q-43 0 -75.5 14.5
t-54.5 40.5t-33 60.5t-11 75.5q0 55 13 94.5t36 65.5t55 38.5t70 12.5q51 0 87.5 -24t53.5 -62v68q0 11 11 11h11q10 0 10 -11v-303q1 -104 -47 -158.5t-143 -54.5q-34 0 -57.5 4t-54.5 13q-12 4 -10 15v12q2 10 11 7zM762 301q0 86 -32 161t-88 131t-131 88t-161 32
t-161 -32t-131 -88t-88 -131t-32 -161t32 -161t88 -131t131 -88t161 -32t161 32t131 88t88 131t32 161zM793 301q0 -92 -35 -172.5t-95 -140.5t-141 -95t-172 -35q-92 0 -172.5 35t-140.5 95t-95 140.5t-35 172.5q0 91 35 172t95 141t140.5 95t172.5 35q91 0 172 -35
t141 -95t95 -141t35 -172z" />
    <glyph glyph-name="uni24D7" unicode="&#x24d7;" horiz-adv-x="700" 
d="M223 12q0 -11 -11 -11h-10q-11 0 -11 11v587q0 11 11 11h10q11 0 11 -11v-245q16 27 53.5 48.5t91.5 21.5q150 0 150 -176v-236q0 -11 -10 -11h-11q-11 0 -11 11v235q0 74 -28 111t-99 37q-31 0 -56 -12.5t-43 -31t-27.5 -41t-9.5 -42.5v-256zM762 301q0 86 -32 161
t-88 131t-131 88t-161 32t-161 -32t-131 -88t-88 -131t-32 -161t32 -161t88 -131t131 -88t161 -32t161 32t131 88t88 131t32 161zM793 301q0 -92 -35 -172.5t-95 -140.5t-141 -95t-172 -35q-92 0 -172.5 35t-140.5 95t-95 140.5t-35 172.5q0 91 35 172t95 141t140.5 95
t172.5 35q91 0 172 -35t141 -95t95 -141t35 -172z" />
    <glyph glyph-name="uni24D8" unicode="&#x24d8;" horiz-adv-x="700" 
d="M321 569q0 11 8 19.5t19 8.5t19.5 -8.5t8.5 -19.5t-8.5 -19t-19.5 -8t-19 8t-8 19zM366 0q0 -11 -12 -11h-11q-11 0 -11 11v408q0 11 11 11h11q12 0 12 -11v-408zM762 301q0 86 -32 161t-88 131t-131 88t-161 32t-161 -32t-131 -88t-88 -131t-32 -161t32 -161t88 -131
t131 -88t161 -32t161 32t131 88t88 131t32 161zM793 301q0 -92 -35 -172.5t-95 -140.5t-141 -95t-172 -35q-92 0 -172.5 35t-140.5 95t-95 140.5t-35 172.5q0 91 35 172t95 141t140.5 95t172.5 35q91 0 172 -35t141 -95t95 -141t35 -172z" />
    <glyph glyph-name="uni24D9" unicode="&#x24d9;" horiz-adv-x="700" 
d="M332 648q0 11 8 19.5t20 8.5t20.5 -8.5t8.5 -19.5q0 -12 -8.5 -20.5t-20.5 -8.5t-20 8.5t-8 20.5zM246 -75q-9 1 -9 9v12q0 6 2 7.5t7 0.5q10 -2 23 -2q27 0 42.5 7t23 20t9.5 30t2 38v434q0 11 12 11h11q11 0 11 -11v-448q0 -28 -4.5 -49t-16 -34.5t-31 -20.5t-50.5 -7
q-12 0 -17 0.5t-15 2.5zM762 301q0 86 -32 161t-88 131t-131 88t-161 32t-161 -32t-131 -88t-88 -131t-32 -161t32 -161t88 -131t131 -88t161 -32t161 32t131 88t88 131t32 161zM793 301q0 -92 -35 -172.5t-95 -140.5t-141 -95t-172 -35q-92 0 -172.5 35t-140.5 95
t-95 140.5t-35 172.5q0 91 35 172t95 141t140.5 95t172.5 35q91 0 172 -35t141 -95t95 -141t35 -172z" />
    <glyph glyph-name="uni24DA" unicode="&#x24da;" horiz-adv-x="700" 
d="M223 602q0 11 11 11h10q12 0 12 -11v-432l208 237q9 11 26 11h12q5 0 6 -3.5t-3 -7.5l-157 -177l170 -218q6 -11 -3 -11h-14q-8 0 -14 2t-10 9l-150 194l-71 -80v-114q0 -11 -12 -11h-10q-11 0 -11 11v590zM762 301q0 86 -32 161t-88 131t-131 88t-161 32t-161 -32
t-131 -88t-88 -131t-32 -161t32 -161t88 -131t131 -88t161 -32t161 32t131 88t88 131t32 161zM793 301q0 -92 -35 -172.5t-95 -140.5t-141 -95t-172 -35q-92 0 -172.5 35t-140.5 95t-95 140.5t-35 172.5q0 91 35 172t95 141t140.5 95t172.5 35q91 0 172 -35t141 -95t95 -141
t35 -172z" />
    <glyph glyph-name="uni24DB" unicode="&#x24db;" horiz-adv-x="700" 
d="M366 5q0 -11 -12 -11h-11q-11 0 -11 11v588q0 11 11 11h11q12 0 12 -11v-588zM762 301q0 86 -32 161t-88 131t-131 88t-161 32t-161 -32t-131 -88t-88 -131t-32 -161t32 -161t88 -131t131 -88t161 -32t161 32t131 88t88 131t32 161zM793 301q0 -92 -35 -172.5t-95 -140.5
t-141 -95t-172 -35q-92 0 -172.5 35t-140.5 95t-95 140.5t-35 172.5q0 91 35 172t95 141t140.5 95t172.5 35q91 0 172 -35t141 -95t95 -141t35 -172z" />
    <glyph glyph-name="uni24DC" unicode="&#x24dc;" horiz-adv-x="700" 
d="M109 461q19 30 46.5 50t72.5 20q48 0 82.5 -24t42.5 -71q17 47 57.5 71t88.5 24q38 0 65 -12.5t44 -34t25 -49.5t8 -59v-285q0 -11 -11 -11h-11q-11 0 -11 11v282q0 56 -29 91t-80 36q-27 0 -51.5 -12t-42.5 -33t-28 -49.5t-9 -61.5v-253q0 -11 -11 -11h-11q-12 0 -12 11
v282q0 28 -8 51t-21.5 40t-33 26.5t-41.5 9.5q-27 0 -48.5 -12t-36.5 -32t-23 -46.5t-8 -55.5v-263q0 -11 -12 -11h-11q-11 0 -11 11v327q0 45 -3 92q0 11 11 11h10q11 0 11 -11v-49zM762 301q0 86 -32 161t-88 131t-131 88t-161 32t-161 -32t-131 -88t-88 -131t-32 -161
t32 -161t88 -131t131 -88t161 -32t161 32t131 88t88 131t32 161zM793 301q0 -92 -35 -172.5t-95 -140.5t-141 -95t-172 -35q-92 0 -172.5 35t-140.5 95t-95 140.5t-35 172.5q0 91 35 172t95 141t140.5 95t172.5 35q91 0 172 -35t141 -95t95 -141t35 -172z" />
    <glyph glyph-name="uni24DD" unicode="&#x24dd;" horiz-adv-x="700" 
d="M793 301q0 -92 -35 -172.5t-95 -140.5t-141 -95t-172 -35q-92 0 -172.5 35t-140.5 95t-95 140.5t-35 172.5q0 91 35 172t95 141t140.5 95t172.5 35q91 0 172 -35t141 -95t95 -141t35 -172zM762 301q0 86 -32 161t-88 131t-131 88t-161 32t-161 -32t-131 -88t-88 -131
t-32 -161t32 -161t88 -131t131 -88t161 -32t161 32t131 88t88 131t32 161zM220 96q0 -11 -11 -11h-11q-12 0 -12 11v370q0 23 -2 46q-2 12 11 12h14q11 0 11 -12v-52q8 14 19.5 27t29 23t42 16.5t58.5 6.5q87 1 123.5 -45.5t36.5 -140.5v-251q0 -11 -11 -11h-11
q-12 0 -12 11v250q0 79 -31.5 118t-102.5 39q-33 0 -59.5 -13t-44.5 -33t-27.5 -44t-9.5 -45v-272z" />
    <glyph glyph-name="uni24DE" unicode="&#x24de;" horiz-adv-x="700" 
d="M552 303q0 -40 -11.5 -81t-36 -74.5t-64 -54.5t-95.5 -21t-95.5 21t-64 54.5t-36 74.5t-11.5 81t11.5 81.5t36 75t64 54.5t95.5 21t95.5 -21t64 -54.5t36 -75t11.5 -81.5zM518 303q0 36 -9 72t-29.5 64.5t-53.5 46.5t-81 18t-81 -18t-53.5 -46.5t-29.5 -64.5t-9 -72
t9 -71.5t29.5 -64t53.5 -46.5t81 -18t81 18t53.5 46.5t29.5 64t9 71.5zM762 301q0 86 -32 161t-88 131t-131 88t-161 32t-161 -32t-131 -88t-88 -131t-32 -161t32 -161t88 -131t131 -88t161 -32t161 32t131 88t88 131t32 161zM793 301q0 -92 -35 -172.5t-95 -140.5t-141 -95
t-172 -35q-92 0 -172.5 35t-140.5 95t-95 140.5t-35 172.5q0 91 35 172t95 141t140.5 95t172.5 35q91 0 172 -35t141 -95t95 -141t35 -172z" />
    <glyph glyph-name="uni24DF" unicode="&#x24df;" horiz-adv-x="700" 
d="M212 11q0 -12 -12 -12h-11q-12 0 -12 12v547q0 12 12 12h15q12 0 12 -12l-4 -81q25 54 64.5 77.5t84.5 23.5q43 0 79 -15.5t61 -45.5t39 -73.5t14 -98.5q0 -51 -12.5 -94t-37 -73.5t-60.5 -48t-83 -17.5q-56 0 -93 27.5t-56 68.5v-197zM361 547q-32 0 -59 -16t-47 -44
t-31.5 -64.5t-11.5 -78.5q0 -36 9.5 -72t28 -64.5t46.5 -46.5t65 -18q42 0 71.5 17.5t49 46t28.5 64.5t9 74t-9 74t-28.5 64.5t-49 46t-71.5 17.5zM762 301q0 86 -32 161t-88 131t-131 88t-161 32t-161 -32t-131 -88t-88 -131t-32 -161t32 -161t88 -131t131 -88t161 -32
t161 32t131 88t88 131t32 161zM793 301q0 -92 -35 -172.5t-95 -140.5t-141 -95t-172 -35q-92 0 -172.5 35t-140.5 95t-95 140.5t-35 172.5q0 91 35 172t95 141t140.5 95t172.5 35q91 0 172 -35t141 -95t95 -141t35 -172z" />
    <glyph glyph-name="uni24E0" unicode="&#x24e0;" horiz-adv-x="700" 
d="M487 208q-19 -41 -56 -68.5t-93 -27.5q-47 0 -83 17.5t-60.5 48t-37 73.5t-12.5 94q0 55 14 98.5t39 73.5t60.5 45.5t79.5 15.5q45 0 84.5 -23.5t64.5 -77.5l-4 81q0 12 12 12h15q12 0 12 -12v-547q0 -12 -12 -12h-11q-12 0 -12 12v197zM338 547q-42 0 -71.5 -17.5
t-49 -46t-28.5 -64.5t-9 -74t9 -74t28.5 -64.5t49 -46t71.5 -17.5q37 0 65 18t46.5 46.5t28 64.5t9.5 72q0 42 -11.5 78.5t-31.5 64.5t-47.5 44t-58.5 16zM762 301q0 86 -32 161t-88 131t-131 88t-161 32t-161 -32t-131 -88t-88 -131t-32 -161t32 -161t88 -131t131 -88
t161 -32t161 32t131 88t88 131t32 161zM793 301q0 -92 -35 -172.5t-95 -140.5t-141 -95t-172 -35q-92 0 -172.5 35t-140.5 95t-95 140.5t-35 172.5q0 91 35 172t95 141t140.5 95t172.5 35q91 0 172 -35t141 -95t95 -141t35 -172z" />
    <glyph glyph-name="uni24E1" unicode="&#x24e1;" horiz-adv-x="700" 
d="M299 77q0 -11 -11 -11h-13q-11 0 -11 11v324q0 29 -0.5 46.5t-1.5 39.5q0 10 11 10h12q11 0 11 -10v-87q20 51 45.5 79.5t68.5 28.5q17 0 37 -5q5 -2 8.5 -5t3.5 -10v-9q0 -5 -4 -7t-8 0q-15 5 -38 5q-15 0 -27.5 -6.5t-23.5 -17.5t-20 -25t-16 -29q-23 -45 -23 -116
v-206zM762 301q0 86 -32 161t-88 131t-131 88t-161 32t-161 -32t-131 -88t-88 -131t-32 -161t32 -161t88 -131t131 -88t161 -32t161 32t131 88t88 131t32 161zM793 301q0 -92 -35 -172.5t-95 -140.5t-141 -95t-172 -35q-92 0 -172.5 35t-140.5 95t-95 140.5t-35 172.5
q0 91 35 172t95 141t140.5 95t172.5 35q91 0 172 -35t141 -95t95 -141t35 -172z" />
    <glyph glyph-name="uni24E2" unicode="&#x24e2;" horiz-adv-x="700" 
d="M224 82q-3 2 -7 4.5t-3 10.5l3 21q3 10 13 7q49 -21 103 -21q59 0 88 26t29 65q0 21 -13 39t-35 32q-11 8 -27.5 16t-34.5 15.5t-35 15t-29 14.5q-56 32 -56 85q0 30 11.5 53t31 38t45.5 22.5t55 7.5q31 0 53.5 -3t45.5 -10q4 -2 7 -4t3 -8l-3 -17q-1 -3 -4 -5t-6 0
q-20 8 -49.5 10.5t-58.5 2.5q-47 0 -69.5 -25t-23.5 -62q-1 -22 18 -39t46 -31t55.5 -25.5t46.5 -21.5q39 -23 51.5 -48.5t12.5 -51.5q0 -33 -12 -56t-33 -38.5t-48.5 -23t-57.5 -8.5q-35 -2 -61 1.5t-52 11.5zM762 301q0 86 -32 161t-88 131t-131 88t-161 32t-161 -32
t-131 -88t-88 -131t-32 -161t32 -161t88 -131t131 -88t161 -32t161 32t131 88t88 131t32 161zM793 301q0 -92 -35 -172.5t-95 -140.5t-141 -95t-172 -35q-92 0 -172.5 35t-140.5 95t-95 140.5t-35 172.5q0 91 35 172t95 141t140.5 95t172.5 35q91 0 172 -35t141 -95t95 -141
t35 -172z" />
    <glyph glyph-name="uni24E3" unicode="&#x24e3;" horiz-adv-x="700" 
d="M793 301q0 -92 -35 -172.5t-95 -140.5t-141 -95t-172 -35q-92 0 -172.5 35t-140.5 95t-95 140.5t-35 172.5q0 91 35 172t95 141t140.5 95t172.5 35q91 0 172 -35t141 -95t95 -141t35 -172zM762 301q0 86 -32 161t-88 131t-131 88t-161 32t-161 -32t-131 -88t-88 -131
t-32 -161t32 -161t88 -131t131 -88t161 -32t161 32t131 88t88 131t32 161zM305 456v118q0 11 11 11h12q11 0 11 -11v-118h101q11 0 11 -11v-8q0 -12 -11 -12h-101v-237q0 -91 4 -108q4 -15 11 -23.5t16.5 -12.5t21 -5t23.5 -1q10 0 21.5 3t20.5 6q11 4 12 -6l1 -11
q1 -11 -10 -14q-9 -3 -23.5 -6t-26.5 -3q-26 -1 -52 6.5t-42 35.5q-11 20 -11 57v319h-90q-11 0 -11 12v8q0 11 11 11h90z" />
    <glyph glyph-name="uni24E4" unicode="&#x24e4;" horiz-adv-x="700" 
d="M489 502q0 11 11 11h11q11 0 11 -11v-323l2 -89q0 -11 -11 -11h-9q-11 0 -11 11v80q-6 -14 -18 -32t-31.5 -34t-46 -27t-60.5 -11q-86 0 -122 47t-36 141v248q0 11 11 11h11q12 0 12 -11v-247q0 -78 28.5 -119.5t99.5 -38.5q40 1 68 20t46 44.5t26 54t8 49.5v237z
M762 301q0 86 -32 161t-88 131t-131 88t-161 32t-161 -32t-131 -88t-88 -131t-32 -161t32 -161t88 -131t131 -88t161 -32t161 32t131 88t88 131t32 161zM793 301q0 -92 -35 -172.5t-95 -140.5t-141 -95t-172 -35q-92 0 -172.5 35t-140.5 95t-95 140.5t-35 172.5q0 91 35 172
t95 141t140.5 95t172.5 35q91 0 172 -35t141 -95t95 -141t35 -172z" />
    <glyph glyph-name="uni24E5" unicode="&#x24e5;" horiz-adv-x="700" 
d="M330 53q-5 0 -8 8l-154 421q-3 8 7 8h19q6 0 10 -8l144 -399l145 399q3 8 10 8h20q7 0 6 -8l-154 -421q-3 -8 -8 -8h-37zM762 301q0 86 -32 161t-88 131t-131 88t-161 32t-161 -32t-131 -88t-88 -131t-32 -161t32 -161t88 -131t131 -88t161 -32t161 32t131 88t88 131
t32 161zM793 301q0 -92 -35 -172.5t-95 -140.5t-141 -95t-172 -35q-92 0 -172.5 35t-140.5 95t-95 140.5t-35 172.5q0 91 35 172t95 141t140.5 95t172.5 35q91 0 172 -35t141 -95t95 -141t35 -172z" />
    <glyph glyph-name="uni24E6" unicode="&#x24e6;" horiz-adv-x="700" 
d="M356 472l-131 -396q-2 -6 -4.5 -9t-7.5 -3h-35q-8 0 -12 12l-138 416q-3 11 9 11h13q11 0 14 -11l131 -401l136 401q3 11 14 11h22q11 0 14 -11l128 -401l131 401q3 11 14 11h13q12 0 9 -11l-138 -416q-2 -6 -4.5 -9t-7.5 -3h-35q-8 0 -12 12zM762 301q0 86 -32 161
t-88 131t-131 88t-161 32t-161 -32t-131 -88t-88 -131t-32 -161t32 -161t88 -131t131 -88t161 -32t161 32t131 88t88 131t32 161zM793 301q0 -92 -35 -172.5t-95 -140.5t-141 -95t-172 -35q-92 0 -172.5 35t-140.5 95t-95 140.5t-35 172.5q0 91 35 172t95 141t140.5 95
t172.5 35q91 0 172 -35t141 -95t95 -141t35 -172z" />
    <glyph glyph-name="uni24E7" unicode="&#x24e7;" horiz-adv-x="700" 
d="M474 506q5 5 7 8t8 3h14q6 0 10 -3t-1 -8l-144 -197l161 -219q5 -6 1 -9t-10 -3h-11q-6 0 -9.5 2.5t-8.5 9.5l-143 193l-142 -193q-5 -7 -8.5 -9.5t-9.5 -2.5h-11q-6 0 -10 3t1 9l161 219l-144 197q-5 5 -1 8t10 3h14q6 0 8 -3t7 -8l125 -171zM762 301q0 86 -32 161
t-88 131t-131 88t-161 32t-161 -32t-131 -88t-88 -131t-32 -161t32 -161t88 -131t131 -88t161 -32t161 32t131 88t88 131t32 161zM793 301q0 -92 -35 -172.5t-95 -140.5t-141 -95t-172 -35q-92 0 -172.5 35t-140.5 95t-95 140.5t-35 172.5q0 91 35 172t95 141t140.5 95
t172.5 35q91 0 172 -35t141 -95t95 -141t35 -172z" />
    <glyph glyph-name="uni24E8" unicode="&#x24e8;" horiz-adv-x="700" 
d="M793 301q0 -92 -35 -172.5t-95 -140.5t-141 -95t-172 -35q-92 0 -172.5 35t-140.5 95t-95 140.5t-35 172.5q0 91 35 172t95 141t140.5 95t172.5 35q91 0 172 -35t141 -95t95 -141t35 -172zM762 301q0 86 -32 161t-88 131t-131 88t-161 32t-161 -32t-131 -88t-88 -131
t-32 -161t32 -161t88 -131t131 -88t161 -32t161 32t131 88t88 131t32 161zM206 -14q-7 3 -6 10l1 15q1 5 2.5 5.5t5.5 -0.5q6 -2 14 -3t14 -1q24 0 40 4.5t28 17t21.5 36t20.5 61.5l-156 416q-3 8 7 8h20q6 0 10 -8l135 -375l136 375q3 8 10 8h20q9 0 6 -8l-172 -464
q-19 -54 -48 -76.5t-66 -22.5h-18q-15 0 -25 2z" />
    <glyph glyph-name="uni24E9" unicode="&#x24e9;" horiz-adv-x="700" 
d="M468 489h-262q-11 0 -11 12v8q0 11 11 11h292q12 0 12 -11v-12q0 -9 -5 -16l-285 -367h282q12 0 12 -12v-8q0 -11 -12 -11h-307q-11 0 -11 11v12q0 8 4 16zM762 301q0 86 -32 161t-88 131t-131 88t-161 32t-161 -32t-131 -88t-88 -131t-32 -161t32 -161t88 -131t131 -88
t161 -32t161 32t131 88t88 131t32 161zM793 301q0 -92 -35 -172.5t-95 -140.5t-141 -95t-172 -35q-92 0 -172.5 35t-140.5 95t-95 140.5t-35 172.5q0 91 35 172t95 141t140.5 95t172.5 35q91 0 172 -35t141 -95t95 -141t35 -172z" />
    <glyph glyph-name="SF100000" unicode="&#x2500;" horiz-adv-x="700" 
d="M-120 286v29h940v-29h-940z" />
    <glyph glyph-name="uni2501" unicode="&#x2501;" horiz-adv-x="700" 
d="M-120 271v54h940v-54h-940z" />
    <glyph glyph-name="SF110000" unicode="&#x2502;" horiz-adv-x="700" 
d="M335 -200v1000h29v-1000h-29z" />
    <glyph glyph-name="uni2503" unicode="&#x2503;" horiz-adv-x="700" 
d="M323 -200v1000h54v-1000h-54z" />
    <glyph glyph-name="SF010000" unicode="&#x250c;" horiz-adv-x="700" 
d="M137 286v-486h-29v515h484v-29h-455z" />
    <glyph glyph-name="uni250D" unicode="&#x250d;" horiz-adv-x="700" 
d="M143 264v-464h-38v536h489v-72h-451z" />
    <glyph glyph-name="uni250E" unicode="&#x250e;" horiz-adv-x="700" 
d="M172 282v-482h-76v518h508v-36h-432z" />
    <glyph glyph-name="uni250F" unicode="&#x250f;" horiz-adv-x="700" 
d="M155 271v-471h-54v525h497v-54h-443z" />
    <glyph glyph-name="SF030000" unicode="&#x2510;" horiz-adv-x="700" 
d="M563 -200v486h-456v29h485v-515h-29z" />
    <glyph glyph-name="uni2511" unicode="&#x2511;" horiz-adv-x="700" 
d="M556 -200v464h-451v72h489v-536h-38z" />
    <glyph glyph-name="uni2512" unicode="&#x2512;" horiz-adv-x="700" 
d="M528 -200v482h-432v36h508v-518h-76z" />
    <glyph glyph-name="uni2513" unicode="&#x2513;" horiz-adv-x="700" 
d="M544 -200v471h-443v54h497v-525h-54z" />
    <glyph glyph-name="SF020000" unicode="&#x2514;" horiz-adv-x="700" 
d="M108 286v514h29v-485h455v-29h-484z" />
    <glyph glyph-name="uni2515" unicode="&#x2515;" horiz-adv-x="700" 
d="M105 264v536h38v-464h451v-72h-489z" />
    <glyph glyph-name="uni2516" unicode="&#x2516;" horiz-adv-x="700" 
d="M96 282v518h76v-482h432v-36h-508z" />
    <glyph glyph-name="uni2517" unicode="&#x2517;" horiz-adv-x="700" 
d="M101 271v529h54v-475h443v-54h-497z" />
    <glyph glyph-name="SF040000" unicode="&#x2518;" horiz-adv-x="700" 
d="M107 286v29h456v485h29v-514h-485z" />
    <glyph glyph-name="uni2519" unicode="&#x2519;" horiz-adv-x="700" 
d="M105 264v72h451v464h38v-536h-489z" />
    <glyph glyph-name="uni251A" unicode="&#x251a;" horiz-adv-x="700" 
d="M96 282v36h432v482h76v-518h-508z" />
    <glyph glyph-name="uni251B" unicode="&#x251b;" horiz-adv-x="700" 
d="M101 271v54h443v475h54v-529h-497z" />
    <glyph glyph-name="SF080000" unicode="&#x251c;" horiz-adv-x="700" 
d="M137 286v-486h-29v1000h29v-485h455v-29h-455z" />
    <glyph glyph-name="uni251D" unicode="&#x251d;" horiz-adv-x="700" 
d="M143 264v-464h-38v1000h38v-464h451v-72h-451z" />
    <glyph glyph-name="uni251E" unicode="&#x251e;" horiz-adv-x="700" 
d="M152 282l1 -482h-38v500h-19v500h76v-482h432v-36h-452z" />
    <glyph glyph-name="uni251F" unicode="&#x251f;" horiz-adv-x="700" 
d="M172 282v-482h-76v500h19v500h38v-482h451v-36h-432z" />
    <glyph glyph-name="uni2520" unicode="&#x2520;" horiz-adv-x="700" 
d="M172 282v-482h-76v1000h76v-482h432v-36h-432z" />
    <glyph glyph-name="uni2521" unicode="&#x2521;" horiz-adv-x="700" 
d="M153 264v-464h-38v500h-19v500h76v-464h432v-72h-451z" />
    <glyph glyph-name="uni2522" unicode="&#x2522;" horiz-adv-x="700" 
d="M172 264v-464h-76v500h19v500h38v-464h451v-72h-432z" />
    <glyph glyph-name="uni2523" unicode="&#x2523;" horiz-adv-x="700" 
d="M155 271v-471h-54v1000h54v-475h443v-54h-443z" />
    <glyph glyph-name="SF090000" unicode="&#x2524;" horiz-adv-x="700" 
d="M563 -200v486h-456v29h456v485h29v-1000h-29z" />
    <glyph glyph-name="uni2525" unicode="&#x2525;" horiz-adv-x="700" 
d="M556 -200v464h-451v72h451v464h38v-1000h-38z" />
    <glyph glyph-name="uni2526" unicode="&#x2526;" horiz-adv-x="700" 
d="M585 300v-500h-38v482h-451v36h432v482h76v-500h-19z" />
    <glyph glyph-name="uni2527" unicode="&#x2527;" horiz-adv-x="700" 
d="M528 -200v482h-432v36h451v482h38v-500h19v-500h-76z" />
    <glyph glyph-name="uni2528" unicode="&#x2528;" horiz-adv-x="700" 
d="M528 -200v482h-432v36h432v482h76v-1000h-76z" />
    <glyph glyph-name="uni2529" unicode="&#x2529;" horiz-adv-x="700" 
d="M585 300v-500h-38v464h-451v72h432v464h76v-500h-19z" />
    <glyph glyph-name="uni252A" unicode="&#x252a;" horiz-adv-x="700" 
d="M528 -200v464h-432v72h451v464h38v-500h19v-500h-76z" />
    <glyph glyph-name="uni252B" unicode="&#x252b;" horiz-adv-x="700" 
d="M544 -200v471h-443v54h443v475h54v-1000h-54z" />
    <glyph glyph-name="SF060000" unicode="&#x252c;" horiz-adv-x="700" 
d="M365 286v-486h-29v486h-456v29h940v-29h-455z" />
    <glyph glyph-name="uni252D" unicode="&#x252d;" horiz-adv-x="700" 
d="M369 282v-482h-38v464h-451v72h470v-18h470v-36h-451z" />
    <glyph glyph-name="uni252E" unicode="&#x252e;" horiz-adv-x="700" 
d="M369 264v-464h-38v482h-451v36h470v18h470v-72h-451z" />
    <glyph glyph-name="uni252F" unicode="&#x252f;" horiz-adv-x="700" 
d="M369 264v-464h-38v464h-451v72h940v-72h-451z" />
    <glyph glyph-name="uni2530" unicode="&#x2530;" horiz-adv-x="700" 
d="M388 282v-482h-76v482h-432v36h940v-36h-432z" />
    <glyph glyph-name="uni2531" unicode="&#x2531;" horiz-adv-x="700" 
d="M388 282v-482h-76v464h-432v72h470v-18h470v-36h-432z" />
    <glyph glyph-name="uni2532" unicode="&#x2532;" horiz-adv-x="700" 
d="M388 264v-464h-76v482h-432v36h470v18h470v-72h-432z" />
    <glyph glyph-name="uni2533" unicode="&#x2533;" horiz-adv-x="700" 
d="M377 271v-471h-54v471h-443v54h940v-54h-443z" />
    <glyph glyph-name="SF070000" unicode="&#x2534;" horiz-adv-x="700" 
d="M-120 286v29h456v485h29v-485h455v-29h-940z" />
    <glyph glyph-name="uni2535" unicode="&#x2535;" horiz-adv-x="700" 
d="M350 282v-18h-470v72h451v464h38v-482h451v-36h-470z" />
    <glyph glyph-name="uni2536" unicode="&#x2536;" horiz-adv-x="700" 
d="M350 264v18h-470v36h451v482h38v-464h451v-72h-470z" />
    <glyph glyph-name="uni2537" unicode="&#x2537;" horiz-adv-x="700" 
d="M-120 264v72h451v464h38v-464h451v-72h-940z" />
    <glyph glyph-name="uni2538" unicode="&#x2538;" horiz-adv-x="700" 
d="M-120 282v36h432v482h76v-482h432v-36h-940z" />
    <glyph glyph-name="uni2539" unicode="&#x2539;" horiz-adv-x="700" 
d="M350 282v-18h-470v72h432v464h76v-482h432v-36h-470z" />
    <glyph glyph-name="uni253A" unicode="&#x253a;" horiz-adv-x="700" 
d="M350 264v18h-470v36h432v482h76v-464h432v-72h-470z" />
    <glyph glyph-name="uni253B" unicode="&#x253b;" horiz-adv-x="700" 
d="M-120 271v54h443v475h54v-475h443v-54h-940z" />
    <glyph glyph-name="SF050000" unicode="&#x253c;" horiz-adv-x="700" 
d="M365 285v-485h-29v485h-456v29h456v486h29v-486h455v-29h-455z" />
    <glyph glyph-name="uni253D" unicode="&#x253d;" horiz-adv-x="700" 
d="M369 282v-482h-38v464h-451v76h451v460h38v-482h451v-36h-451z" />
    <glyph glyph-name="uni253E" unicode="&#x253e;" horiz-adv-x="700" 
d="M369 264v-464h-38v482h-451v36h451v482h38v-464h451v-72h-451z" />
    <glyph glyph-name="uni253F" unicode="&#x253f;" horiz-adv-x="700" 
d="M369 264v-464h-38v464h-451v72h451v464h38v-464h451v-72h-451z" />
    <glyph glyph-name="uni2540" unicode="&#x2540;" horiz-adv-x="700" 
d="M369 282v-482h-38v482h-451v36h432v482h76v-482h432v-36h-451z" />
    <glyph glyph-name="uni2541" unicode="&#x2541;" horiz-adv-x="700" 
d="M388 282v-482h-76v482h-432v36h451v482h38v-482h451v-36h-432z" />
    <glyph glyph-name="uni2542" unicode="&#x2542;" horiz-adv-x="700" 
d="M388 282v-482h-76v482h-432v36h432v482h76v-482h432v-36h-432z" />
    <glyph glyph-name="uni2543" unicode="&#x2543;" horiz-adv-x="700" 
d="M369 282v-482h-38v464h-451v72h432v464h76v-482h432v-36h-451z" />
    <glyph glyph-name="uni2544" unicode="&#x2544;" horiz-adv-x="700" 
d="M369 264v-464h-38v482h-451v36h432v482h76v-464h432v-72h-451z" />
    <glyph glyph-name="uni2545" unicode="&#x2545;" horiz-adv-x="700" 
d="M388 282v-482h-76v464h-432v72h451v464h38v-482h451v-36h-432z" />
    <glyph glyph-name="uni2546" unicode="&#x2546;" horiz-adv-x="700" 
d="M388 264v-464h-76v482h-432v36h451v482h38v-464h451v-72h-432z" />
    <glyph glyph-name="uni2547" unicode="&#x2547;" horiz-adv-x="700" 
d="M369 264v-464h-38v464h-451v72h432v464h76v-464h432v-72h-451z" />
    <glyph glyph-name="uni2548" unicode="&#x2548;" horiz-adv-x="700" 
d="M388 264v-464h-76v464h-432v72h451v464h38v-464h451v-72h-432z" />
    <glyph glyph-name="uni2549" unicode="&#x2549;" horiz-adv-x="700" 
d="M388 282v-482h-76v464h-432v72h432v464h76v-482h432v-36h-432z" />
    <glyph glyph-name="uni254A" unicode="&#x254a;" horiz-adv-x="700" 
d="M388 264v-464h-76v482h-432v36h432v482h76v-464h432v-72h-432z" />
    <glyph glyph-name="uni254B" unicode="&#x254b;" horiz-adv-x="700" 
d="M377 271v-471h-54v471h-443v54h443v475h54v-475h443v-54h-443z" />
    </font>
</defs>
</svg>
